<svg xmlns="http://www.w3.org/2000/svg" viewBox="0 0 500 500"><g id="freepik--background-complete--inject-114"><rect y="382.4" width="500" height="0.25" style="fill:#ebebeb"></rect><rect x="416.78" y="398.49" width="33.12" height="0.25" style="fill:#ebebeb"></rect><rect x="322.53" y="401.21" width="8.69" height="0.25" style="fill:#ebebeb"></rect><rect x="396.59" y="389.21" width="19.19" height="0.25" style="fill:#ebebeb"></rect><rect x="52.46" y="390.89" width="43.19" height="0.25" style="fill:#ebebeb"></rect><rect x="104.56" y="390.89" width="6.33" height="0.25" style="fill:#ebebeb"></rect><rect x="131.47" y="395.11" width="93.68" height="0.25" style="fill:#ebebeb"></rect><path d="M237,337.8H43.91a5.71,5.71,0,0,1-5.7-5.71V60.66A5.71,5.71,0,0,1,43.91,55H237a5.71,5.71,0,0,1,5.71,5.71V332.09A5.71,5.71,0,0,1,237,337.8ZM43.91,55.2a5.46,5.46,0,0,0-5.45,5.46V332.09a5.46,5.46,0,0,0,5.45,5.46H237a5.47,5.47,0,0,0,5.46-5.46V60.66A5.47,5.47,0,0,0,237,55.2Z" style="fill:#ebebeb"></path><path d="M453.31,337.8H260.21a5.72,5.72,0,0,1-5.71-5.71V60.66A5.72,5.72,0,0,1,260.21,55h193.1A5.71,5.71,0,0,1,459,60.66V332.09A5.71,5.71,0,0,1,453.31,337.8ZM260.21,55.2a5.47,5.47,0,0,0-5.46,5.46V332.09a5.47,5.47,0,0,0,5.46,5.46h193.1a5.47,5.47,0,0,0,5.46-5.46V60.66a5.47,5.47,0,0,0-5.46-5.46Z" style="fill:#ebebeb"></path><rect x="55.21" y="91.65" width="378.77" height="132.28" style="fill:#e6e6e6"></rect><rect x="57.58" y="91.65" width="381.48" height="132.28" style="fill:#f0f0f0"></rect><rect x="55.21" y="223.93" width="378.77" height="4.71" style="fill:#e6e6e6"></rect><rect x="60.62" y="223.93" width="381.48" height="4.71" style="fill:#f0f0f0"></rect><rect x="189.28" y="-25.84" width="118.08" height="367.27" transform="translate(406.11 -90.53) rotate(90)" style="fill:#fafafa"></rect><polygon points="298.26 216.83 309.63 98.75 329.31 98.75 317.93 216.83 298.26 216.83" style="fill:#fff"></polygon><polygon points="182.12 216.83 193.49 98.75 213.16 98.75 201.79 216.83 182.12 216.83" style="fill:#fff"></polygon><path d="M69.52,197.85a.7.7,0,0,1-.7-.7V103.53a.7.7,0,0,1,1.4,0v93.62A.7.7,0,0,1,69.52,197.85Z" style="fill:#f0f0f0"></path><polygon points="322.16 216.83 333.53 98.75 341.2 98.75 329.83 216.83 322.16 216.83" style="fill:#fff"></polygon><rect x="372.47" y="157.34" width="118.08" height="0.9" transform="translate(589.3 -273.71) rotate(90)" style="fill:#e6e6e6"></rect><polygon points="440.74 107.31 61.97 107.31 61.31 101.51 440.08 101.51 440.74 107.31" style="fill:#e0e0e0;opacity:0.5"></polygon><polygon points="440.74 116.83 61.97 116.83 61.31 111.04 440.08 111.04 440.74 116.83" style="fill:#e0e0e0;opacity:0.5"></polygon><polygon points="440.74 126.36 61.97 126.36 61.31 120.56 440.08 120.56 440.74 126.36" style="fill:#e0e0e0;opacity:0.5"></polygon><polygon points="440.74 135.88 61.97 135.88 61.31 130.09 440.08 130.09 440.74 135.88" style="fill:#e0e0e0;opacity:0.5"></polygon><polygon points="440.74 145.4 61.97 145.4 61.31 139.61 440.08 139.61 440.74 145.4" style="fill:#e0e0e0;opacity:0.5"></polygon><polygon points="440.74 154.93 61.97 154.93 61.31 149.13 440.08 149.13 440.74 154.93" style="fill:#e0e0e0;opacity:0.5"></polygon><path d="M293.19,341.76h57a3.39,3.39,0,0,0,3.38-3.37h0a3.39,3.39,0,0,0-3.38-3.38h-57a3.39,3.39,0,0,0-3.38,3.38h0A3.39,3.39,0,0,0,293.19,341.76Z" style="fill:#ebebeb"></path><polygon points="358.83 335.01 360.73 335.01 367.96 287.84 366.06 287.84 358.83 335.01" style="fill:#e0e0e0"></polygon><polygon points="329.91 335.01 331.8 335.01 339.03 287.84 337.14 287.84 329.91 335.01" style="fill:#e0e0e0"></polygon><path d="M329.83,325.53H367a5.39,5.39,0,0,0,5.14-4.49l5.67-39.39a3.8,3.8,0,0,0-3.84-4.49H336.79a5.39,5.39,0,0,0-5.14,4.49L326,321A3.81,3.81,0,0,0,329.83,325.53Z" style="fill:#ebebeb"></path><path d="M335.32,341.76h26.07a3.38,3.38,0,0,0,3.37-3.37h0a3.39,3.39,0,0,0-3.37-3.38H335.32a3.38,3.38,0,0,0-3.37,3.38h0A3.38,3.38,0,0,0,335.32,341.76Z" style="fill:#f5f5f5"></path><polygon points="321.13 382.4 323.03 382.4 330.26 341.76 328.36 341.76 321.13 382.4" style="fill:#e0e0e0"></polygon><polygon points="288.27 382.4 290.16 382.4 297.39 341.76 295.5 341.76 288.27 382.4" style="fill:#e0e0e0"></polygon><polygon points="333.85 382.4 331.96 382.4 324.73 341.76 326.62 341.76 333.85 382.4" style="fill:#e0e0e0"></polygon><polygon points="366.72 382.4 364.82 382.4 357.59 341.76 359.49 341.76 366.72 382.4" style="fill:#e0e0e0"></polygon><path d="M123.91,341.76H67a3.39,3.39,0,0,1-3.38-3.37h0A3.39,3.39,0,0,1,67,335h57a3.39,3.39,0,0,1,3.38,3.38h0A3.39,3.39,0,0,1,123.91,341.76Z" style="fill:#ebebeb"></path><polygon points="58.27 335.01 56.37 335.01 49.14 287.84 51.04 287.84 58.27 335.01" style="fill:#e0e0e0"></polygon><polygon points="87.19 335.01 85.3 335.01 78.07 287.84 79.96 287.84 87.19 335.01" style="fill:#e0e0e0"></polygon><path d="M87.28,325.53H50.13A5.39,5.39,0,0,1,45,321l-5.67-39.39a3.8,3.8,0,0,1,3.84-4.49H80.31a5.39,5.39,0,0,1,5.14,4.49L91.12,321A3.81,3.81,0,0,1,87.28,325.53Z" style="fill:#ebebeb"></path><path d="M81.78,341.76H55.71a3.38,3.38,0,0,1-3.37-3.37h0A3.39,3.39,0,0,1,55.71,335H81.78a3.38,3.38,0,0,1,3.37,3.38h0A3.38,3.38,0,0,1,81.78,341.76Z" style="fill:#f5f5f5"></path><polygon points="95.97 382.4 94.07 382.4 86.84 341.76 88.74 341.76 95.97 382.4" style="fill:#e0e0e0"></polygon><polygon points="128.83 382.4 126.94 382.4 119.7 341.76 121.6 341.76 128.83 382.4" style="fill:#e0e0e0"></polygon><polygon points="83.25 382.4 85.14 382.4 92.37 341.76 90.48 341.76 83.25 382.4" style="fill:#e0e0e0"></polygon><polygon points="50.38 382.4 52.28 382.4 59.51 341.76 57.61 341.76 50.38 382.4" style="fill:#e0e0e0"></polygon><path d="M354.93,341.76H298a3.39,3.39,0,0,1-3.38-3.37h0A3.39,3.39,0,0,1,298,335h57a3.39,3.39,0,0,1,3.38,3.38h0A3.39,3.39,0,0,1,354.93,341.76Z" style="fill:#ebebeb"></path><polygon points="289.28 335.01 287.39 335.01 280.16 287.84 282.05 287.84 289.28 335.01" style="fill:#e0e0e0"></polygon><polygon points="318.21 335.01 316.31 335.01 309.08 287.84 310.98 287.84 318.21 335.01" style="fill:#e0e0e0"></polygon><path d="M318.29,325.53H281.15A5.38,5.38,0,0,1,276,321l-5.67-39.39a3.8,3.8,0,0,1,3.84-4.49h37.14a5.38,5.38,0,0,1,5.14,4.49L322.13,321A3.8,3.8,0,0,1,318.29,325.53Z" style="fill:#ebebeb"></path><path d="M312.8,341.76H286.73a3.39,3.39,0,0,1-3.38-3.37h0a3.39,3.39,0,0,1,3.38-3.38H312.8a3.39,3.39,0,0,1,3.37,3.38h0A3.38,3.38,0,0,1,312.8,341.76Z" style="fill:#f5f5f5"></path><polygon points="326.99 382.4 325.09 382.4 317.86 341.76 319.75 341.76 326.99 382.4" style="fill:#e0e0e0"></polygon><polygon points="359.85 382.4 357.95 382.4 350.72 341.76 352.62 341.76 359.85 382.4" style="fill:#e0e0e0"></polygon><polygon points="314.26 382.4 316.16 382.4 323.39 341.76 321.49 341.76 314.26 382.4" style="fill:#e0e0e0"></polygon><polygon points="281.4 382.4 283.29 382.4 290.53 341.76 288.63 341.76 281.4 382.4" style="fill:#e0e0e0"></polygon><path d="M378.56,341.76h57a3.39,3.39,0,0,0,3.38-3.37h0a3.39,3.39,0,0,0-3.38-3.38h-57a3.39,3.39,0,0,0-3.38,3.38h0A3.39,3.39,0,0,0,378.56,341.76Z" style="fill:#ebebeb"></path><polygon points="444.2 335.01 446.1 335.01 453.33 287.84 451.44 287.84 444.2 335.01" style="fill:#e0e0e0"></polygon><polygon points="415.28 335.01 417.17 335.01 424.41 287.84 422.51 287.84 415.28 335.01" style="fill:#e0e0e0"></polygon><path d="M415.2,325.53h37.14a5.39,5.39,0,0,0,5.14-4.49l5.67-39.39a3.8,3.8,0,0,0-3.84-4.49H422.16a5.37,5.37,0,0,0-5.13,4.49L411.35,321A3.81,3.81,0,0,0,415.2,325.53Z" style="fill:#ebebeb"></path><path d="M420.69,341.76h26.07a3.38,3.38,0,0,0,3.37-3.37h0a3.38,3.38,0,0,0-3.37-3.38H420.69a3.39,3.39,0,0,0-3.37,3.38h0A3.38,3.38,0,0,0,420.69,341.76Z" style="fill:#f5f5f5"></path><polygon points="406.5 382.4 408.4 382.4 415.63 341.76 413.74 341.76 406.5 382.4" style="fill:#e0e0e0"></polygon><polygon points="373.64 382.4 375.54 382.4 382.77 341.76 380.87 341.76 373.64 382.4" style="fill:#e0e0e0"></polygon><polygon points="419.23 382.4 417.33 382.4 410.1 341.76 412 341.76 419.23 382.4" style="fill:#e0e0e0"></polygon><polygon points="452.09 382.4 450.19 382.4 442.96 341.76 444.86 341.76 452.09 382.4" style="fill:#e0e0e0"></polygon><path d="M154.85,341.76h57a3.39,3.39,0,0,0,3.38-3.37h0a3.39,3.39,0,0,0-3.38-3.38h-57a3.39,3.39,0,0,0-3.38,3.38h0A3.39,3.39,0,0,0,154.85,341.76Z" style="fill:#ebebeb"></path><polygon points="220.5 335.01 222.39 335.01 229.62 287.84 227.73 287.84 220.5 335.01" style="fill:#e0e0e0"></polygon><polygon points="191.57 335.01 193.47 335.01 200.7 287.84 198.8 287.84 191.57 335.01" style="fill:#e0e0e0"></polygon><path d="M191.49,325.53h37.14a5.39,5.39,0,0,0,5.14-4.49l5.67-39.39a3.8,3.8,0,0,0-3.84-4.49H198.45a5.37,5.37,0,0,0-5.13,4.49L187.64,321A3.81,3.81,0,0,0,191.49,325.53Z" style="fill:#ebebeb"></path><path d="M197,341.76h26.07a3.39,3.39,0,0,0,3.38-3.37h0a3.39,3.39,0,0,0-3.38-3.38H197a3.39,3.39,0,0,0-3.37,3.38h0A3.38,3.38,0,0,0,197,341.76Z" style="fill:#f5f5f5"></path><polygon points="182.79 382.4 184.69 382.4 191.92 341.76 190.03 341.76 182.79 382.4" style="fill:#e0e0e0"></polygon><polygon points="149.93 382.4 151.83 382.4 159.06 341.76 157.16 341.76 149.93 382.4" style="fill:#e0e0e0"></polygon><polygon points="195.52 382.4 193.62 382.4 186.39 341.76 188.29 341.76 195.52 382.4" style="fill:#e0e0e0"></polygon><polygon points="228.38 382.4 226.49 382.4 219.25 341.76 221.15 341.76 228.38 382.4" style="fill:#e0e0e0"></polygon></g><g id="freepik--Shadow--inject-114"><ellipse id="freepik--path--inject-114" cx="250" cy="416.24" rx="193.89" ry="11.32" style="fill:#f5f5f5"></ellipse></g><g id="freepik--Flower--inject-114"><path d="M223,242.82c.2,5.62-9.54,18.18-9.54,18.18s-10.61-11.83-10.81-17.45,2.87-10.29,9.81-10.54S222.83,237.2,223,242.82Z" style="fill:#407BFF"></path><rect x="213.16" y="243.17" width="0.68" height="149.16" style="fill:#263238"></rect><path d="M196.29,387.83a2.16,2.16,0,0,0-2.14,2.53c1.45,7.86,9.56,13.88,19.35,13.88s17.89-6,19.34-13.88a2.15,2.15,0,0,0-2.13-2.53Z" style="fill:#407BFF"></path><path d="M208.1,273.28a31.71,31.71,0,0,0-12.93-8C191.09,269.47,195,275.22,208.1,273.28Z" style="fill:#407BFF"></path><path d="M213.3,280.42c-3.14-5.66-10-12.47-18.19-14.94l.13-.44c8.34,2.5,15.28,9.42,18.46,15.16Z" style="fill:#263238"></path><path d="M206.13,312.13c0-13.5-9.83-17.25-17.65-10.95h0c-5.56,5.75-.3,13.59,17.65,10.95a48.15,48.15,0,0,0-4.24-3.76A48.15,48.15,0,0,1,206.13,312.13Z" style="fill:#407BFF"></path><path d="M213.3,321.83c-4.29-7.74-13.65-17.06-24.88-20.43l.13-.44c11.36,3.41,20.82,12.82,25.15,20.65Z" style="fill:#263238"></path><path d="M220.42,290.2A40.45,40.45,0,0,1,237,279.92C242.19,285.32,237.25,292.68,220.42,290.2Z" style="fill:#407BFF"></path><path d="M213.7,299.31l-.4-.22c4.07-7.35,12.94-16.19,23.61-19.39l.13.44C226.5,283.31,217.72,292.05,213.7,299.31Z" style="fill:#263238"></path><path d="M220.78,329.41a52.09,52.09,0,0,1,19.35-16C247.71,319.45,242.68,329.68,220.78,329.41Z" style="fill:#407BFF"></path><path d="M213.71,342.16l-.43-.16c3.93-10.06,13.72-22.84,26.75-28.75l.19.42C227.31,319.52,217.6,332.2,213.71,342.16Z" style="fill:#263238"></path></g><g id="freepik--character-1--inject-114"><path d="M163.3,366.29H95.47a4,4,0,0,1-4-4h0a4,4,0,0,1,4-4H163.3a4,4,0,0,1,4,4h0A4,4,0,0,1,163.3,366.29Z" style="fill:#407BFF"></path><polygon points="85.13 358.25 82.88 358.25 74.27 302.07 76.52 302.07 85.13 358.25" style="fill:#263238"></polygon><polygon points="119.58 358.25 117.32 358.25 108.71 302.07 110.97 302.07 119.58 358.25" style="fill:#263238"></polygon><path d="M119.67,347H75.44a6.4,6.4,0,0,1-6.11-5.35l-6.76-46.9a4.54,4.54,0,0,1,4.58-5.35h44.23a6.42,6.42,0,0,1,6.12,5.35l6.75,46.9A4.54,4.54,0,0,1,119.67,347Z" style="fill:#407BFF"></path><path d="M62.57,294.71l6.76,46.9a6.07,6.07,0,0,0,1.41,3.07c1.62,1.91,4.5.87,4.16-1.46L67.69,293.1c-.34-2.33-3.52-3.36-4.59-1.46A4.9,4.9,0,0,0,62.57,294.71Z" style="fill:#fff;opacity:0.4"></path><path d="M113.13,366.29h-31a4,4,0,0,1-4-4h0a4,4,0,0,1,4-4h31a4,4,0,0,1,4,4h0A4,4,0,0,1,113.13,366.29Z" style="fill:#407BFF"></path><path d="M113.13,366.29h-31a4,4,0,0,1-4-4h0a4,4,0,0,1,4-4h31a4,4,0,0,1,4,4h0A4,4,0,0,1,113.13,366.29Z" style="fill:#fff;opacity:0.4"></path><polygon points="130.03 414.67 127.77 414.67 119.16 366.29 121.41 366.29 130.03 414.67" style="fill:#263238"></polygon><polygon points="169.16 414.67 166.9 414.67 158.29 366.29 160.55 366.29 169.16 414.67" style="fill:#263238"></polygon><polygon points="114.88 414.67 117.13 414.67 125.74 366.29 123.49 366.29 114.88 414.67" style="fill:#263238"></polygon><polygon points="75.74 414.67 78 414.67 86.61 366.29 84.36 366.29 75.74 414.67" style="fill:#263238"></polygon><polygon points="191.77 368.19 180.62 373.04 187.01 380.5 196.34 376.46 191.77 368.19" style="fill:#7f3e3b"></polygon><polygon points="191.77 368.2 180.61 373.05 184.2 377.23 194.33 372.83 191.77 368.2" style="opacity:0.2"></polygon><path d="M185.05,384.1l1.27-.24a2.29,2.29,0,0,0,1.68-1.38h0l.8.41a2.37,2.37,0,0,0,1.48.21l17.34-3.38a6.85,6.85,0,0,0-1.31-3.3s-7.69,1.07-9.85-.82a.58.58,0,0,0-.6-.12c-1.41.6-7,2.81-10.46,2.36a.7.7,0,0,0-.76.82A38.17,38.17,0,0,1,185.05,384.1Z" style="fill:#407BFF"></path><path d="M196.14,376.05h-.06a.18.18,0,0,1-.12-.16c-.07-1.13.47-3.21,1.23-3.57a.61.61,0,0,1,.7.14.72.72,0,0,1,.24.57c0,1.09-1.78,2.9-1.86,3A.19.19,0,0,1,196.14,376.05Zm1.31-3.43-.1,0c-.48.23-.95,1.68-1,2.76.58-.64,1.45-1.74,1.44-2.38a.42.42,0,0,0-.13-.3A.27.27,0,0,0,197.45,372.62Z" style="fill:#407BFF"></path><path d="M197.79,376.18a11.9,11.9,0,0,1-1.68-.13.19.19,0,0,1-.15-.14.2.2,0,0,1,.07-.19c.86-.71,2.87-1.51,3.6-1.1a.63.63,0,0,1,.31.65.81.81,0,0,1-.32.53A3.41,3.41,0,0,1,197.79,376.18Zm-1.16-.44a5.14,5.14,0,0,0,2.77-.24.4.4,0,0,0,.17-.28c0-.18,0-.24-.11-.28C199,374.69,197.54,375.16,196.63,375.74Z" style="fill:#407BFF"></path><path d="M91.54,333.08l4.78,10c7.05,14.77,24.43,22.2,38.3,16.39,8.1-3.41,16.94-10.58,23-13.86,5.15,11.27,14.78,23.72,22.15,32.37l14.92-7.5c-5.57-12.79-14.25-32.75-19.75-45.72a13.27,13.27,0,0,0-11.59-8C138.51,316.05,91.54,333.08,91.54,333.08Z" style="fill:#263238"></path><polygon points="164.03 400.93 151.88 400.36 154.33 409.88 164.48 410.36 164.03 400.93" style="fill:#7f3e3b"></polygon><polygon points="164.03 400.93 151.87 400.36 153.24 405.69 164.28 406.21 164.03 400.93" style="opacity:0.2"></polygon><path d="M152.46,414.89h1.3a2.31,2.31,0,0,0,1.92-1h0l.7.54a2.27,2.27,0,0,0,1.42.49h17.65a6.81,6.81,0,0,0-.65-3.49s-7.75-.42-9.51-2.69a.54.54,0,0,0-.56-.22c-1.5.31-7.37,1.42-10.72.31a.7.7,0,0,0-.91.66A37.58,37.58,0,0,1,152.46,414.89Z" style="fill:#407BFF"></path><path d="M164.93,409.11a.19.19,0,0,1-.1,0,.18.18,0,0,1-.08-.18c.15-1.11,1.07-3.06,1.89-3.26a.6.6,0,0,1,.66.26.77.77,0,0,1,.13.61c-.19,1.08-2.31,2.51-2.4,2.57A.17.17,0,0,1,164.93,409.11Zm1.86-3.13h-.06c-.52.13-1.25,1.47-1.53,2.51.7-.51,1.75-1.42,1.87-2.06a.4.4,0,0,0-.07-.32A.24.24,0,0,0,166.79,406Z" style="fill:#407BFF"></path><path d="M167.56,409.66a9.68,9.68,0,0,1-2.69-.56.18.18,0,0,1-.12-.16.19.19,0,0,1,.09-.18c1-.53,3.11-.93,3.75-.39a.59.59,0,0,1,.18.69.79.79,0,0,1-.42.46A1.89,1.89,0,0,1,167.56,409.66Zm-2.13-.76a5.19,5.19,0,0,0,2.76.29.45.45,0,0,0,.23-.24c.05-.17,0-.25-.06-.3C168,408.31,166.44,408.5,165.43,408.9Z" style="fill:#407BFF"></path><path d="M84.59,329.12l.08,10.57C84.8,355.28,98,359.81,113.8,361c9.21.68,21.66.89,28.84.75,1.05,10.92,4.46,33.17,7.89,42.49l15.52-1.08c.41-13.23,1-32,1.51-44.44a13.07,13.07,0,0,0-7.44-11.9C136.85,335.34,84.59,329.12,84.59,329.12Z" style="fill:#263238"></path><path d="M158.19,346.92a110.91,110.91,0,0,0,9.22,15.29c-.08,2.18-.16,4.5-.25,6.9-5.49-8.67-9-22.21-9-22.21A0,0,0,0,0,158.19,346.92Z" style="opacity:0.2"></path><path d="M135.23,268.07l1,.51,1.24.62c.85.39,1.71.79,2.58,1.14a43.89,43.89,0,0,0,5.2,1.79,29.06,29.06,0,0,0,5,.89,17.86,17.86,0,0,0,4.49-.22l-3,1.8a9.14,9.14,0,0,0,2.32-2.58,39.15,39.15,0,0,0,2.48-4.41c.81-1.62,1.56-3.33,2.3-5.08l2.2-5.29.11-.25a4.29,4.29,0,0,1,8.23,1.27,46.85,46.85,0,0,1,.1,6.58,51.79,51.79,0,0,1-.76,6.59,38.6,38.6,0,0,1-1.89,6.82,22.67,22.67,0,0,1-4.42,7.34,6,6,0,0,1-2.27,1.53l-.74.27a29.51,29.51,0,0,1-9.08,1.82,36.48,36.48,0,0,1-8.69-.67,44.56,44.56,0,0,1-7.93-2.32c-1.26-.51-2.51-1-3.72-1.65-.61-.31-1.21-.62-1.82-1l-.92-.54-1.06-.65a8.46,8.46,0,0,1,8.26-14.75Z" style="fill:#803e3c"></path><path d="M164.36,262.14,161,258.55c-1.94-4.76,4.62-6.19,4.62-6.19l2.88-2a2.61,2.61,0,0,1,3.31.57l2.35,2.49a2.7,2.7,0,0,1,.16,3.77l-2.19,2.1a5.32,5.32,0,0,1-2.27,1.29Z" style="fill:#7f3e3b"></path><path d="M118,260.86c2.06-2.77,8.37-2.06,14.79,4.2,1.59-.07,5.71,3.66,10.49,4.87s6.35,9.8,5.48,13.23c-.91,3.6-2.71,6-7.17,6.47s-10.33-2.41-15.06-6S114.33,265.77,118,260.86Z" style="fill:#407BFF"></path><path d="M115.65,258.66A147.3,147.3,0,0,0,89,261.24a10.87,10.87,0,0,0-8.28,13.46c6.58,25,2.86,52.37,3.38,57.38,0,0,52.38,7.54,60.41-8,4.27-20.74-7.55-29.13-13.84-53.88A16,16,0,0,0,115.65,258.66Z" style="fill:#407BFF"></path><path d="M115.65,258.66A147.3,147.3,0,0,0,89,261.24a10.87,10.87,0,0,0-8.28,13.46c6.58,25,2.86,52.37,3.38,57.38,0,0,52.38,7.54,60.41-8,4.27-20.74-7.55-29.13-13.84-53.88A16,16,0,0,0,115.65,258.66Z" style="fill:#fff;opacity:0.8"></path><g style="opacity:0.2"><path d="M91.11,330.4h0a.24.24,0,0,1-.21-.27q0-.44.09-.93a.25.25,0,0,1,.26-.22.23.23,0,0,1,.21.26c0,.33,0,.65-.09.95A.24.24,0,0,1,91.11,330.4Z" style="fill:#407BFF"></path><path d="M91.32,327.53h0a.24.24,0,0,1-.22-.25c0-.61,0-1.25,0-1.93a.25.25,0,0,1,.24-.24h0a.25.25,0,0,1,.23.25c0,.68,0,1.33-.06,1.94A.23.23,0,0,1,91.32,327.53Zm.08-3.87a.24.24,0,0,1-.24-.24v-.11c0-.6,0-1.2,0-1.83a.23.23,0,0,1,.23-.24.23.23,0,0,1,.24.24c0,.62,0,1.23,0,1.82v.12A.24.24,0,0,1,91.4,323.66Zm-.05-3.88a.23.23,0,0,1-.23-.23c0-.64,0-1.28-.05-1.94a.24.24,0,0,1,.23-.25h0a.24.24,0,0,1,.24.24c0,.66,0,1.3,0,1.94a.23.23,0,0,1-.23.24Zm-.11-3.87a.24.24,0,0,1-.24-.23c0-.64,0-1.29-.08-1.94a.25.25,0,0,1,.23-.25h0a.24.24,0,0,1,.24.23c0,.66,0,1.3.08,1.94a.25.25,0,0,1-.23.25ZM91.07,312a.23.23,0,0,1-.23-.22c0-.64-.07-1.29-.1-1.94a.24.24,0,0,1,.22-.25h0a.25.25,0,0,1,.24.23l.09,1.93a.23.23,0,0,1-.22.25Zm-.2-3.87a.25.25,0,0,1-.24-.22c0-.64-.07-1.29-.11-1.94a.24.24,0,0,1,.48,0c0,.65.07,1.3.11,1.94a.24.24,0,0,1-.22.25Zm-.23-3.86a.24.24,0,0,1-.24-.23c0-.64-.08-1.29-.13-1.93a.23.23,0,0,1,.23-.25.23.23,0,0,1,.25.22c0,.64.08,1.29.13,1.93a.24.24,0,0,1-.23.25Zm-.26-3.87a.24.24,0,0,1-.24-.23c0-.64-.09-1.29-.14-1.93a.24.24,0,0,1,.48,0c0,.64.09,1.28.14,1.93a.25.25,0,0,1-.23.26Zm-.29-3.87a.23.23,0,0,1-.23-.22l-.15-1.93a.24.24,0,1,1,.47,0l.15,1.93a.24.24,0,0,1-.22.26Zm-.3-3.86a.24.24,0,0,1-.24-.22l-.16-1.93a.24.24,0,0,1,.21-.26.23.23,0,0,1,.26.22l.16,1.93a.24.24,0,0,1-.21.26Zm-.33-3.87a.23.23,0,0,1-.24-.21c-.06-.66-.12-1.3-.18-1.93a.24.24,0,0,1,.48-.05c.06.64.12,1.28.17,1.94a.23.23,0,0,1-.21.25ZM89.1,285a.25.25,0,0,1-.24-.21c-.06-.66-.12-1.31-.19-1.93a.24.24,0,0,1,.22-.26.23.23,0,0,1,.26.21c.06.63.13,1.27.19,1.93a.24.24,0,0,1-.22.26Zm-.38-3.85a.23.23,0,0,1-.24-.22q-.11-1-.21-1.92a.25.25,0,0,1,.21-.27.24.24,0,0,1,.26.22c.07.6.14,1.25.21,1.92a.24.24,0,0,1-.21.27Z" style="fill:#407BFF"></path><path d="M88.28,277.27a.23.23,0,0,1-.23-.18l-.11-.95a.24.24,0,0,1,.47-.05l.11.89a.26.26,0,0,1-.2.29Z" style="fill:#407BFF"></path></g><path d="M94.62,285.87l-1.19,2.7-1.23,2.86c-.82,1.92-1.58,3.86-2.34,5.78s-1.41,3.88-2.06,5.8-1.17,3.85-1.65,5.76l-.28-3.49a1.16,1.16,0,0,1,.08.47,5.4,5.4,0,0,1,.33.82,15.47,15.47,0,0,0,1.21,2,44.08,44.08,0,0,0,3.6,4.51c1.35,1.54,2.81,3.07,4.32,4.6L100,322.3l.14.14a4.28,4.28,0,0,1-4.52,7,59.47,59.47,0,0,1-6.58-3,63.57,63.57,0,0,1-6.23-3.72,42.57,42.57,0,0,1-6-4.87,30.56,30.56,0,0,1-2.89-3.28c-.48-.67-.94-1.37-1.37-2.07-.44-.86-.84-1.74-1.22-2.63a5.11,5.11,0,0,1-.38-2.48l.1-1A67.53,67.53,0,0,1,72.13,299,72.84,72.84,0,0,1,74,291.81c.7-2.35,1.52-4.63,2.42-6.89.46-1.12.92-2.25,1.44-3.36.26-.55.51-1.11.79-1.66l.91-1.76a8.48,8.48,0,0,1,15.3,7.28Z" style="fill:#803e3c"></path><path d="M98.07,324l-1.69,2.59c-1.11,5,5.59,5.33,5.59,5.33l3.17,1.46a2.59,2.59,0,0,0,3.16-1.11l1.9-2.85a2.71,2.71,0,0,0-.46-3.75l-2.52-1.7a5.27,5.27,0,0,0-2.45-.89l-3.91-.4A3,3,0,0,0,98.07,324Z" style="fill:#7f3e3b"></path><path d="M87,263.83c-3.39-.63-8,5.94-8.72,13.2-2.88,3-3.15,7.93-5.51,12.26C68,298.17,72,301.1,75.15,302.76,81.87,306.32,89.4,305,91.4,301s4.15-8.7,4.75-14.57C97,277.79,93,265,87,263.83Z" style="fill:#407BFF"></path><path d="M136.82,284.46l-11.67.89a1.39,1.39,0,0,1-1.31-1l-1.61-5.09a.8.8,0,0,1,.65-1.12l11.68-.9a1.38,1.38,0,0,1,1.31,1l1.6,5.08A.8.8,0,0,1,136.82,284.46Z" style="fill:#fff"></path><path d="M116.06,261.36a6.84,6.84,0,0,0-3.44-2.88,6.35,6.35,0,0,1-.37-4.24l-16.2-4.09c1.6,5.18,2.86,9.27,1.07,11.94,3.24,1.71,9,5,15.26,5.35C117.08,267.69,117.21,263.5,116.06,261.36Z" style="fill:#7f3e3b"></path><path d="M112.15,254.74l-12,0c4,3.76,9.72,4.91,12.2,3.13A6.32,6.32,0,0,1,112.15,254.74Z" style="opacity:0.2"></path><path d="M114.43,244.14c2-2.79,2.54-6.94,1-7.51.13-2.82-.21-5.78-3-6.27a5.54,5.54,0,0,0-6.51,5.33C101.9,240.32,108.32,245.69,114.43,244.14Z" style="fill:#e0e0e0"></path><path d="M93,241.62c2,7.37,3.47,12.34,8.43,14.62,9.88,4.53,14.23-.59,14.51-8.42.25-7-3-17.93-10.92-19.36A10.52,10.52,0,0,0,93,241.62Z" style="fill:#7f3e3b"></path><path d="M110.24,248.29a7.08,7.08,0,0,0,1.24-.17.2.2,0,0,0,.15-.26.25.25,0,0,0-.28-.17,6.29,6.29,0,0,1-5.32-1.21.23.23,0,0,0-.31,0,.21.21,0,0,0,0,.31A6.58,6.58,0,0,0,110.24,248.29Z" style="fill:#263238"></path><path d="M93.79,246.85c2.89-1.91,4.78-5.63,3.56-6.7,1.1-2.59,1.56-6.36-.61-6.9s-6.33-.72-7.95,2.76C83.35,238.94,87.52,246.19,93.79,246.85Z" style="fill:#e0e0e0"></path><path d="M103.09,241.08a3.5,3.5,0,0,0-2.65.41A6.85,6.85,0,0,0,103.09,241.08Z" style="opacity:0.2"></path><path d="M103.15,241.72a2.9,2.9,0,0,0-2.24,1A5.79,5.79,0,0,0,103.15,241.72Z" style="opacity:0.2"></path><path d="M113.4,239.11s.54-.8,1-.45A1.48,1.48,0,0,1,113.4,239.11Z" style="opacity:0.2"></path><path d="M113.58,239.69s.43-.71.82-.12A.71.71,0,0,1,113.58,239.69Z" style="opacity:0.2"></path><path d="M109.67,232.64a21.63,21.63,0,0,0-6.69.8A60.42,60.42,0,0,0,109.67,232.64Z" style="opacity:0.2"></path><path d="M110.66,233.71s-5.14.33-7.57,1.76A42.2,42.2,0,0,0,110.66,233.71Z" style="opacity:0.2"></path><path d="M91.68,249.21a7.16,7.16,0,0,0,4.73,2.86c2.51.36,3.46-2,2.51-4.18-.87-2-3.22-4.57-5.62-3.91A3.27,3.27,0,0,0,91.68,249.21Z" style="fill:#7f3e3b"></path><path d="M105.15,241.08c.12.61.55,1,.94.95s.62-.65.5-1.25-.54-1-.94-.95S105,240.47,105.15,241.08Z" style="fill:#263238"></path><path d="M111.62,239.86c.12.61.54,1,.94.95s.62-.64.5-1.25-.55-1-.94-.95S111.49,239.25,111.62,239.86Z" style="fill:#263238"></path><path d="M109.62,240.77l1,5.12a4.45,4.45,0,0,0,3-1A10.79,10.79,0,0,0,109.62,240.77Z" style="fill:#630f0f"></path><path d="M102.83,239.64a.41.41,0,0,1-.19,0,.36.36,0,0,1-.24-.45,3.66,3.66,0,0,1,2.27-2.46.36.36,0,0,1,.45.25.37.37,0,0,1-.25.45h0a2.94,2.94,0,0,0-1.77,2A.37.37,0,0,1,102.83,239.64Z" style="fill:#e0e0e0"></path><path d="M114.75,237.31a.37.37,0,0,1-.33-.1,2.85,2.85,0,0,0-2.46-.92.36.36,0,0,1-.43-.29.38.38,0,0,1,.29-.43A3.61,3.61,0,0,1,115,236.7a.36.36,0,0,1,0,.51A.32.32,0,0,1,114.75,237.31Z" style="fill:#e0e0e0"></path><path d="M117.11,274.67c-8.55-.83-25.88-12.22-19.21-14.64,4.28,4.71,12,5.94,15.33,5.94,1.24-1.18,2.42-4.52-.61-7.49C116.1,258.18,123.07,268.88,117.11,274.67Z" style="fill:#407BFF"></path></g><g id="freepik--character-3--inject-114"><path d="M341.73,365.85h67.83a4,4,0,0,0,4-4h0a4,4,0,0,0-4-4H341.73a4,4,0,0,0-4,4h0A4,4,0,0,0,341.73,365.85Z" style="fill:#407BFF"></path><polygon points="419.9 357.82 422.16 357.82 430.77 301.64 428.51 301.64 419.9 357.82" style="fill:#263238"></polygon><polygon points="385.45 357.82 387.71 357.82 396.32 301.64 394.07 301.64 385.45 357.82" style="fill:#263238"></polygon><path d="M385.36,346.53h44.23a6.42,6.42,0,0,0,6.12-5.35l6.75-46.9a4.54,4.54,0,0,0-4.58-5.35H393.65a6.4,6.4,0,0,0-6.11,5.35l-6.76,46.9A4.54,4.54,0,0,0,385.36,346.53Z" style="fill:#407BFF"></path><path d="M442.46,294.28l-6.75,46.9a6.17,6.17,0,0,1-1.42,3.07c-1.62,1.91-4.5.87-4.16-1.46l7.22-50.12c.33-2.33,3.51-3.37,4.58-1.46A4.84,4.84,0,0,1,442.46,294.28Z" style="fill:#fff;opacity:0.4"></path><path d="M391.9,365.85h31a4,4,0,0,0,4-4h0a4,4,0,0,0-4-4h-31a4,4,0,0,0-4,4h0A4,4,0,0,0,391.9,365.85Z" style="fill:#407BFF"></path><path d="M391.9,365.85h31a4,4,0,0,0,4-4h0a4,4,0,0,0-4-4h-31a4,4,0,0,0-4,4h0A4,4,0,0,0,391.9,365.85Z" style="fill:#fff;opacity:0.4"></path><polygon points="375.01 414.24 377.26 414.24 385.88 365.86 383.62 365.86 375.01 414.24" style="fill:#263238"></polygon><polygon points="335.88 414.24 338.13 414.24 346.74 365.86 344.49 365.86 335.88 414.24" style="fill:#263238"></polygon><polygon points="390.16 414.24 387.9 414.24 379.29 365.86 381.55 365.86 390.16 414.24" style="fill:#263238"></polygon><polygon points="429.29 414.24 427.03 414.24 418.42 365.86 420.68 365.86 429.29 414.24" style="fill:#263238"></polygon><path d="M353.85,259.93c2.42,3.17,3.68,2.34,5.31-1.66,1-2.57,3.88-1.44,4.55-6,.27-1.89-5.72-5.53-9-4.55S352,257.46,353.85,259.93Z" style="fill:#263238"></path><path d="M358.85,280.54a8.07,8.07,0,0,0-10,5.53l-.16.54-.42,1.47-.49,1.62c-.35,1.08-.7,2.16-1.1,3.21a46.55,46.55,0,0,1-2.59,5.9,20.1,20.1,0,0,1-3,4.28,7.46,7.46,0,0,1-1.12,1c-.6-.39-1.21-.8-1.82-1.26a61.18,61.18,0,0,1-4.72-3.94c-1.59-1.42-3.14-2.94-4.7-4.5s-3.12-3.2-4.61-4.7l-.18-.18a4.07,4.07,0,0,0-6.68,4.32,57.64,57.64,0,0,0,3.09,6.69,68.39,68.39,0,0,0,3.84,6.3,51.83,51.83,0,0,0,4.8,6,33.76,33.76,0,0,0,6.45,5.49,6.19,6.19,0,0,0,3.21.95h.6a17.56,17.56,0,0,0,6.6-1.25,20.16,20.16,0,0,0,5.31-3.15,30.78,30.78,0,0,0,6.73-7.9,49.15,49.15,0,0,0,4-8.23c.53-1.39,1-2.77,1.43-4.18.21-.71.42-1.42.6-2.14l.26-1.09.27-1.23A8.1,8.1,0,0,0,358.85,280.54Z"></path><path d="M309.71,290.24l2.52,2a8.85,8.85,0,0,0,3.4,1.66l3.45.85a4.26,4.26,0,0,0,4.32-1.45h0a4.24,4.24,0,0,0-.48-5.88,16.74,16.74,0,0,0-4.26-2.47l-3.53-2.07a2.84,2.84,0,0,0-3.62.64l-2.22,2.69A2.84,2.84,0,0,0,309.71,290.24Z" style="fill:#ffb573"></path><path d="M378.46,275.2c-8.27.67-17.57,1.72-24.58,5A8.9,8.9,0,0,0,349,289.5c1.05,7.82,1.87,13.88,3.78,20.32,4.13,14-5.88,20.13,3.43,30.95,4.08,4.63,29.09,9,46.8,3.17,2.3-9.57,1.22-28.9-1.64-50.22A21.38,21.38,0,0,0,378.46,275.2Z" style="fill:#263238"></path><path d="M396.46,304.08c4.61,21.63,1.14,27.38-7.78,33.41-12.52,1.94-17.54-3.23-17.54-3.23Z"></path><path d="M367.69,307.27l10.85.07a1,1,0,0,0,1-.95l.29-4.65a.89.89,0,0,0-.85-1l-10.85-.07a1,1,0,0,0-1,.95l-.29,4.65A.88.88,0,0,0,367.69,307.27Z" style="fill:#fff"></path><g style="opacity:0.2"><path d="M361.82,292.4a.37.37,0,0,1-.34-.23.37.37,0,0,1,.22-.46c6.15-2.18,14.89-7.81,17.63-11.37a.36.36,0,1,1,.57.43c-3.14,4.07-12.23,9.58-18,11.61A.25.25,0,0,1,361.82,292.4Z" style="fill:#fff"></path><path d="M367.91,293l-.11,0c-5.85-1.81-8.27-7.78-8.78-11a.35.35,0,0,1,.3-.41.35.35,0,0,1,.4.3c.49,3.08,2.78,8.74,8.29,10.45a.35.35,0,0,1,.24.44A.36.36,0,0,1,367.91,293Z" style="fill:#fff"></path></g><path d="M373.3,263.84c-.16,4.12.93,10.39,4.08,12.77a2.66,2.66,0,0,1-.18,4.39c-2.29,1.46-8.52,4.63-11.63,4.63s-4.91-3.44-4.56-5.13a3.94,3.94,0,0,1,1.3-2.06c2.1-1.91.56-3.88-.3-5.31Z" style="fill:#ffb573"></path><path d="M369.91,269.58a6.49,6.49,0,0,0-.26-.74L362,273.13a6.4,6.4,0,0,1,1.36,3.32C367.21,274.9,370.6,271.94,369.91,269.58Z" style="opacity:0.2"></path><path d="M323.13,392.86c1.26-1.32,9.45-3.83,9.45-3.83a160.88,160.88,0,0,1,5.29,18.78l-10.58,1.06S325.55,398.15,323.13,392.86Z" style="fill:#ffb573"></path><path d="M373,335.6c-30.6.43-70.87-1.21-61.38,26.68,4.06,11.94.65,7.88,5.4,22.33,2,6.23,2.74,8.06,4.22,12.38,1.62,3.86,11.36,3.14,15,1.63,4.32-2.3.66-8.51.16-12-2.46-17.07,2.05-15.14-3.31-26.33,9.76,1.42,40.88.43,45-16.35C378,343.94,383.64,337.25,373,335.6Z" style="fill:#407BFF"></path><path d="M373,335.6c-30.6.43-70.87-1.21-61.38,26.68,4.06,11.94.65,7.88,5.4,22.33,2,6.23,2.74,8.06,4.22,12.38,1.62,3.86,11.36,3.14,15,1.63,4.32-2.3.66-8.51.16-12-2.46-17.07,2.05-15.14-3.31-26.33,9.76,1.42,40.88.43,45-16.35C378,343.94,383.64,337.25,373,335.6Z" style="opacity:0.4"></path><path d="M323.73,399l1.31,2.58a.79.79,0,0,0,.86.43c1.73-.3,6.9-1.13,9.9-.76a.8.8,0,0,0,.89-.75c.06-1,.05-2.34,0-3.16a.81.81,0,0,0-.81-.79,58.63,58.63,0,0,0-11.64,1.29A.82.82,0,0,0,323.73,399Z" style="fill:#263238"></path><path d="M340.17,414.51,339,407.07a.74.74,0,0,0-.78-.57l-10.85.05a4,4,0,0,0-2.47.66c-2.44,2-6.23,4-11.73,5-1.74.34-1,3.79,3.08,3.77,6.75,0,6.47-.24,12.22-.26,4.92,0,6.15.22,10.06.26A1.47,1.47,0,0,0,340.17,414.51Z" style="fill:#263238"></path><path d="M374.58,254c0,7.5.38,11.86-3.25,16.16-5.46,6.47-15.11,4.24-17.4-3-2.06-6.48-1.7-17.66,5.6-21.55S374.59,246.51,374.58,254Z" style="fill:#ffb573"></path><path d="M360.75,257.31c-.05.68.27,1.25.71,1.28s.85-.49.9-1.17-.27-1.26-.71-1.29S360.8,256.63,360.75,257.31Z" style="fill:#263238"></path><path d="M353.73,257.15c-.06.68.26,1.26.7,1.29s.85-.5.9-1.18-.26-1.25-.7-1.28S353.78,256.47,353.73,257.15Z" style="fill:#263238"></path><path d="M373.06,260.35c-3.69,1.52-4.36.17-3.74-4.11.39-2.74-2.63-3.2-.9-7.49.72-1.76,7.73-1.9,10,.58S375.94,259.17,373.06,260.35Z" style="fill:#263238"></path><path d="M371.53,250.7c-8.44.73-19.28.77-20.8-5.43-1-4.2,4.06-10.49,11.86-4.37,5.43,4.24,10.7,1.62,13.35,2.53C378.35,244.26,383,249.7,371.53,250.7Z" style="fill:#263238"></path><path d="M377,249.62a6.67,6.67,0,0,1-1.15-.11.47.47,0,1,1,.17-.93,3.48,3.48,0,0,0,3-.54,1.91,1.91,0,0,0,.69-1.52.46.46,0,0,1,.46-.48h0a.46.46,0,0,1,.47.46,2.78,2.78,0,0,1-1,2.26A3.89,3.89,0,0,1,377,249.62Z" style="fill:#263238"></path><path d="M361.71,265a5.85,5.85,0,0,1-1.09.21.19.19,0,0,1-.21-.17.19.19,0,0,1,.17-.22,5.24,5.24,0,0,0,4-2.45.19.19,0,0,1,.26-.09.2.2,0,0,1,.08.26A5.33,5.33,0,0,1,361.71,265Z" style="fill:#263238"></path><path d="M362.91,253.22a.33.33,0,0,1,.34.18,2.84,2.84,0,0,0,2.06,1.52.36.36,0,1,1-.06.71,3.55,3.55,0,0,1-2.62-1.89.35.35,0,0,1,.14-.48A.25.25,0,0,1,362.91,253.22Z" style="fill:#263238"></path><path d="M355.12,253.39a.31.31,0,0,1,.21.11.35.35,0,0,1,0,.5,3.5,3.5,0,0,1-3.09,1,.35.35,0,0,1-.26-.42.36.36,0,0,1,.43-.27,2.76,2.76,0,0,0,2.43-.8A.39.39,0,0,1,355.12,253.39Z" style="fill:#263238"></path><path d="M377.64,261.32a7,7,0,0,1-4,3.42c-2.32.72-3.55-1.34-3-3.56.52-2,2.36-4.79,4.72-4.54A3.11,3.11,0,0,1,377.64,261.32Z" style="fill:#ffb573"></path><path d="M357.14,257.39a21.51,21.51,0,0,1-2.35,5.45,3.54,3.54,0,0,0,2.95.26Z" style="fill:#ed893e"></path><path d="M353.69,392.29c1.12-1.44,9-4.77,9-4.77a162.38,162.38,0,0,1,7.16,18.15l-10.42,2.12S356.63,397.31,353.69,392.29Z" style="fill:#ffb573"></path><path d="M376.92,333.55c-30.07,2.05-53.33,2.11-40.06,28.41,5.68,11.25,3.73,8.84,9.91,22.74,2.66,6,3.54,7.74,5.46,11.88,2,3.68,11.62,2,15,.12,4.07-2.73-.2-8.54-1-12-4.17-16.73.56-14.22-5.82-24.87,9.85.51,43.46,3.82,42.56-15.93C403,343.94,398.07,333.55,376.92,333.55Z" style="fill:#407BFF"></path><path d="M376.92,333.55c-30.07,2.05-53.33,2.11-40.06,28.41,5.68,11.25,3.73,8.84,9.91,22.74,2.66,6,3.54,7.74,5.46,11.88,2,3.68,11.62,2,15,.12,4.07-2.73-.2-8.54-1-12-4.17-16.73.56-14.22-5.82-24.87,9.85.51,43.46,3.82,42.56-15.93C403,343.94,398.07,333.55,376.92,333.55Z" style="opacity:0.4"></path><path d="M354.91,398.37l1.56,2.44a.81.81,0,0,0,.9.34c1.7-.47,6.75-1.82,9.78-1.76a.8.8,0,0,0,.81-.84c0-1-.19-2.32-.29-3.14a.81.81,0,0,0-.88-.71,58.38,58.38,0,0,0-11.45,2.47A.81.81,0,0,0,354.91,398.37Z" style="fill:#263238"></path><path d="M372.83,411.62l-2.17-7.53a.72.72,0,0,0-.85-.45l-10.73,1.62a4,4,0,0,0-2.35,1,17.9,17.9,0,0,1-10.58,6c-1.74.34-1,3.79,3.08,3.77,6.74,0,6.45-.88,12.14-1.72,4.31-.63,6.13-.65,10-1A1.48,1.48,0,0,0,372.83,411.62Z" style="fill:#263238"></path><path d="M347.16,331.94l3.13-.73a8.81,8.81,0,0,1,3.79,0l3.47.71a4.27,4.27,0,0,1,3.29,3.15h0a4.23,4.23,0,0,1-2.95,5.11,16.43,16.43,0,0,1-4.9.42l-4.08.35a2.85,2.85,0,0,1-3-2.12l-.86-3.38A2.84,2.84,0,0,1,347.16,331.94Z" style="fill:#ffb573"></path><path d="M396.8,295.71c-.21-2.8-.46-5.48-.89-8.37a8.09,8.09,0,0,0-16.06,1.91v.12l.66,7.6c.23,2.56.42,5.13.59,7.66.08,1.27.15,2.53.2,3.78s.11,2.5.12,3.72c0,1.51,0,3,0,4.44-1.13.8-2.33,1.61-3.55,2.4-2.28,1.46-4.65,2.94-7.07,4.36s-4.87,2.87-7.33,4.3-5,2.88-7.38,4.35l-.07,0a3.47,3.47,0,0,0-1.25,4.25c.69,2.13,2.05,3.66,4.23,3.18,2.95-.65,5.76-1.44,8.6-2.29s5.63-1.8,8.42-2.84,5.58-2.14,8.35-3.46a60.71,60.71,0,0,0,8.47-4.64,6.54,6.54,0,0,0,2.7-4l.13-.6a64.68,64.68,0,0,0,1.23-9c.23-2.9.27-5.72.26-8.54S397,298.48,396.8,295.71Z" style="fill:#263238"></path></g><g id="freepik--character-2--inject-114"><path d="M258.37,294c-.43-2.76-5.5-3.92-5.5-3.92l-3-1.23a2.21,2.21,0,0,0-2.74.89l-1.45,2.33a2.23,2.23,0,0,0,.76,3.09l2.75,1.62a3.93,3.93,0,0,0,1.6.53l2.3.24a5.13,5.13,0,0,0,4.92-2.45l.14-.22A1.35,1.35,0,0,0,258.37,294Z" style="fill:#ff8b7b"></path><path d="M292.76,272.2c-1.1,4.8-2.32,13.6.95,16.92a35.85,35.85,0,0,0-16.83,8.62c-3.19-6.4,1.84-9.09,1.84-9.09,5.42-1.11,5.41-5.11,4.59-8.88Z" style="fill:#ff8b7b"></path><path d="M275.81,293.14c1.67-5.1-2.35-6.12,4.53-8.22,5.38-1.65,15.4-1.2,17.68.62,1.27,1-.67,4.09-.67,4.09Z" style="fill:#e0e0e0"></path><path d="M301.13,297.83l-.34.42-.29.36-.58.66c-.38.43-.78.83-1.17,1.24-.79.79-1.6,1.55-2.44,2.29a42.06,42.06,0,0,1-5.33,4c-.93.61-1.91,1.14-2.87,1.69s-2,1-3,1.45a42.31,42.31,0,0,1-6.33,2.2l-.28.07a3.24,3.24,0,0,1-1.23.11,13.73,13.73,0,0,1-4.36-1.17,29.86,29.86,0,0,1-3.2-1.65,57.73,57.73,0,0,1-5.51-3.74q-2.58-2-5-4.11c-1.59-1.44-3.13-2.87-4.64-4.45a2.49,2.49,0,0,1,3.07-3.87l.05,0c1.75,1,3.52,2.11,5.29,3.11s3.54,2,5.3,3,3.53,1.85,5.25,2.61A22.57,22.57,0,0,0,276,303a5.8,5.8,0,0,0,1.68.32l-1.51.18A40.75,40.75,0,0,0,281,301.3a41.21,41.21,0,0,0,4.52-2.78,45.9,45.9,0,0,0,4.18-3.3c.67-.58,1.31-1.18,1.93-1.8l.9-.93.42-.45.34-.37.27-.3a5,5,0,0,1,7.59,6.46Z" style="fill:#ff8b7b"></path><path d="M263.75,299.55c0,3.25-5.32,10.59.86,15.14.54,6.58,1.27,13.06,2.68,23.87l33,1c-3.15-12-.44-19.93,4.59-40.7a8.34,8.34,0,0,0-7-10.24c-1.31-.17-2.71-.33-4.13-.44a104.32,104.32,0,0,0-15-.48c-1.62.1-3.3.25-4.9.43A11.32,11.32,0,0,0,263.75,299.55Z" style="fill:#407BFF"></path><path d="M263.75,299.55c0,3.25-5.32,10.59.86,15.14.54,6.58,1.27,13.06,2.68,23.87l33,1c-3.15-12-.44-19.93,4.59-40.7a8.34,8.34,0,0,0-7-10.24c-1.31-.17-2.71-.33-4.13-.44a104.32,104.32,0,0,0-15-.48c-1.62.1-3.3.25-4.9.43A11.32,11.32,0,0,0,263.75,299.55Z" style="opacity:0.4"></path><path d="M276,264.68c-.09.59-.49,1-.88,1s-.63-.6-.53-1.2.49-1,.88-1S276.14,264.08,276,264.68Z" style="fill:#263238"></path><path d="M275.68,263.54l-1.37-.64S274.86,264.14,275.68,263.54Z" style="fill:#263238"></path><path d="M275.7,265.25a16.23,16.23,0,0,1-2.74,3.48,2.58,2.58,0,0,0,2.07.74Z" style="fill:#ff5652"></path><path d="M275.19,261.19a.32.32,0,0,1-.2-.18.34.34,0,0,1,.16-.47,3.51,3.51,0,0,1,3.25,0,.37.37,0,0,1,.12.49.35.35,0,0,1-.48.12,2.84,2.84,0,0,0-2.57.06A.34.34,0,0,1,275.19,261.19Z" style="fill:#263238"></path><path d="M296.13,265.87c-1.61,7.28-2.14,10.39-6.38,13.59-6.38,4.8-14.79,1.24-15.34-6.37-.5-6.85,2.22-17.6,9.75-19.4S297.75,258.59,296.13,265.87Z" style="fill:#ff8b7b"></path><path d="M278.84,267.52c1.37,6.79,8,12.38,13,12.17S304.21,270,304,262.9s-5.18-13.37-13.29-13S272.23,250.73,278.84,267.52Z" style="fill:#263238"></path><path d="M288,252.61c-6.16-6.37-14.7-1.82-15.89,4.9,3.59-.7,6.57,4.34,11.23,4.06C288.68,261.25,291.42,256.17,288,252.61Z" style="fill:#263238"></path><path d="M295.12,253.94c.84-6.06,7-4.9,9.51-1.75s3.64,12.8-2.52,10.71S294.7,257,295.12,253.94Z" style="fill:#407BFF"></path><path d="M300.8,256.1c-1.1-6.91,3.89-21.94,16.15-16.16,10.14,4.78-3.8,30.24,10.14,34.86C321.8,282.87,303.65,274,300.8,256.1Z" style="fill:#263238"></path><path d="M328.47,278l-.09,0c-7.43-2.95-7.64-14.6-7.81-24-.12-6.09-.21-11.35-2.2-12.62a2.6,2.6,0,0,0-2.54.07.23.23,0,0,1-.31-.12.25.25,0,0,1,.12-.32,3.09,3.09,0,0,1,3,0c2.2,1.41,2.3,6.79,2.41,13,.17,9.23.38,20.71,7.51,23.54a.24.24,0,0,1,.14.31A.25.25,0,0,1,328.47,278Z" style="fill:#263238"></path><path d="M282.08,268.5c-1,1.64-1.45,2.35-2.72,2.79a2.19,2.19,0,0,1-2.9-2.79c.52-1.7,2.14-4.1,4-3.93A2.46,2.46,0,0,1,282.08,268.5Z" style="fill:#ff8b7b"></path><polygon points="277.61 272.02 276.61 274.15 275.61 272.02 276.61 269.9 277.61 272.02" style="fill:#fff"></polygon><path d="M279.65,339.08s-27.81-1.43-46.13,6.86c-5.7,2.58-6.58,6.89-7.59,13.06-4.21,25.91-10.76,52-10.76,52l6.24,1.85s23.27-34.19,20.08-52.74c43.19,9.16,56.85-5.19,56.85-5.19Z" style="fill:#ff8b7b"></path><path d="M215.47,409.85c-.35-.11-.64.1-.95.27-2.26,1.22-2.25,1.29-8.33,1.91-2,.21-2.26,2.07,2.68,3.62l12.1,3.8c1.19.37,3.36-2.46,1.71-7.15a.89.89,0,0,0-.77-.58A17.91,17.91,0,0,1,215.47,409.85Z" style="fill:#263238"></path><path d="M296,341.36s-22.12-3.69-40.42,4.52a14.06,14.06,0,0,0-8.19,14.81c3.72,26,13,56.53,13,56.53l6.51-.1s-.48-36.3-3.67-54.85c3.68,1.2,9.95,1.23,13.2,1.08,12-.57,21.8-3.81,20.31-15.72Z" style="fill:#ff8b7b"></path><path d="M260.06,416c-.36,0-.57.28-.82.54-1.78,1.85-1.76,1.9-7.38,4.33-1.88.81-1.53,2.64,3.65,2.64h12.68c1.24,0,2.47-3.36-.51-7.33a.88.88,0,0,0-.91-.32A18.17,18.17,0,0,1,260.06,416Z" style="fill:#263238"></path><path d="M267.29,338.56s-17.7-.11-31.06,5.38c0,18.83,7.81,26.37,7.81,26.37s72.72,12.78,56.25-30.71C291.76,337,267.48,337.79,267.29,338.56Z" style="fill:#263238"></path><path d="M248.7,341.63c-1,2.61-6.2,2.66-6.2,2.66l-3.17.57a2.24,2.24,0,0,1-2.5-1.45l-.91-2.59a2.24,2.24,0,0,1,1.4-2.86l3-1a4.14,4.14,0,0,1,1.68-.17l2.3.26a5.16,5.16,0,0,1,4.29,3.43l.08.25A1.33,1.33,0,0,1,248.7,341.63Z" style="fill:#ff8b7b"></path><path d="M275.08,299.11c-.38,2.47-.87,4.8-1.37,7.18s-1.07,4.73-1.71,7.08a100.51,100.51,0,0,1-4.78,14.06l-.13.29a3,3,0,0,1-.44.73,35.77,35.77,0,0,1-4.36,4.35c-1.47,1.29-3,2.43-4.54,3.54s-3.12,2.13-4.72,3.11-3.21,1.9-4.93,2.76a2.5,2.5,0,0,1-2.87-4l0,0,3.84-3.77c1.28-1.26,2.55-2.51,3.78-3.78s2.44-2.53,3.57-3.79a38,38,0,0,0,3-3.76l-.57,1c.71-2.06,1.32-4.23,1.92-6.42s1.11-4.43,1.63-6.68,1-4.51,1.47-6.78.92-4.57,1.36-6.77v-.06a5,5,0,0,1,9.84,1.74Z" style="fill:#ff8b7b"></path><path d="M305,296.56c-2.18,5.45-8,9.45-16.23,10.81-3.61-.9-8.56-13-8.56-13S303.94,281.59,305,296.56Z" style="fill:#407BFF"></path><path d="M305,296.56c-2.18,5.45-8,9.45-16.23,10.81-3.61-.9-8.56-13-8.56-13S303.94,281.59,305,296.56Z" style="opacity:0.4"></path><path d="M268.54,289.72c-3.85,2.37-8.07,7.53-8.67,16.59,1.49,3.41,16.46,6.27,16.46,6.27S281.9,283.3,268.54,289.72Z" style="fill:#407BFF"></path><path d="M268.54,289.72c-3.85,2.37-8.07,7.53-8.67,16.59,1.49,3.41,16.46,6.27,16.46,6.27S281.9,283.3,268.54,289.72Z" style="opacity:0.4"></path><rect x="225.35" y="367.98" width="75.87" height="8.04" rx="4.02" transform="translate(526.57 743.99) rotate(-180)" style="fill:#407BFF"></rect><path d="M268.8,356.69H313a6.42,6.42,0,0,0,6.12-5.35l6.75-46.91a4.52,4.52,0,0,0-4.57-5.34H277.09a6.39,6.39,0,0,0-6.11,5.34l-6.76,46.91A4.54,4.54,0,0,0,268.8,356.69Z" style="fill:#407BFF"></path><path d="M271,304.43l-6.76,46.91a4.88,4.88,0,0,0,.57,3.13,2.42,2.42,0,0,0,4.46-.91l7.21-50.07a2.42,2.42,0,0,0-4.32-1.8A6,6,0,0,0,271,304.43Z" style="fill:#fff;opacity:0.4"></path><polygon points="307.54 367.98 309.8 367.98 318.41 311.8 316.15 311.8 307.54 367.98" style="fill:#263238"></polygon><polygon points="273.1 367.98 275.35 367.98 283.96 311.8 281.71 311.8 273.1 367.98" style="fill:#263238"></polygon><rect x="275.52" y="367.98" width="39.08" height="8.04" rx="4.02" transform="translate(590.12 743.99) rotate(-180)" style="fill:#407BFF"></rect><rect x="225.35" y="367.98" width="50.17" height="8.04" rx="4.02" style="fill:#fff;opacity:0.4"></rect><polygon points="262.65 424.4 264.9 424.4 273.51 376.01 271.26 376.01 262.65 424.4" style="fill:#263238"></polygon><polygon points="223.52 424.4 225.77 424.4 234.38 376.01 232.13 376.01 223.52 424.4" style="fill:#263238"></polygon><polygon points="277.8 424.4 275.54 424.4 266.93 376.01 269.19 376.01 277.8 424.4" style="fill:#263238"></polygon><polygon points="316.93 424.4 314.67 424.4 306.06 376.01 308.32 376.01 316.93 424.4" style="fill:#263238"></polygon></g><g id="freepik--speech-bubbles--inject-114"><path d="M124.36,118.2a42.7,42.7,0,0,0,2.28,84.59,60.21,60.21,0,0,1-2.06,9.36s6.58-3.76,10.24-9.27c1.12-.09,2.25-.22,3.38-.41a42.7,42.7,0,1,0-13.84-84.27Z" style="fill:#407BFF"></path><path d="M124.36,118.2a42.7,42.7,0,0,0,2.28,84.59,60.21,60.21,0,0,1-2.06,9.36s6.58-3.76,10.24-9.27c1.12-.09,2.25-.22,3.38-.41a42.7,42.7,0,1,0-13.84-84.27Z" style="fill:#fff;opacity:0.5"></path><path d="M136.13,199.39a40.3,40.3,0,1,1,33.23-46.3A40.36,40.36,0,0,1,136.13,199.39Zm-13-79a39.79,39.79,0,1,0,45.72,32.81A39.84,39.84,0,0,0,123.14,120.36Z" style="fill:#fff"></path><path d="M126.38,178.85a23.45,23.45,0,1,1,19.34-26.94A23.47,23.47,0,0,1,126.38,178.85Zm-7.52-45.78A22.94,22.94,0,1,0,145.22,152,23,23,0,0,0,118.86,133.07Z" style="fill:#fff"></path><path d="M312.53,108.44a45.24,45.24,0,0,0-4.85-8.67l.88-.63a46.06,46.06,0,0,1,5,8.88Z" style="fill:#407BFF"></path><path d="M301.68,92.92a45.4,45.4,0,0,0-19.89-10.87l.27-1a46.64,46.64,0,0,1,20.36,11.13Z" style="fill:#407BFF"></path><path d="M313.4,126.09a42.71,42.71,0,1,0-45.79,42.58c3.37,5.57,9.52,9.57,9.52,9.57a59,59,0,0,1-1.53-9.74A42.7,42.7,0,0,0,313.4,126.09Z" style="fill:#407BFF"></path><path d="M276.14,122.84a5.45,5.45,0,1,1-5.44-5.44A5.44,5.44,0,0,1,276.14,122.84Z" style="fill:#fff"></path><path d="M295,129.34a5.45,5.45,0,1,1-5.45-5.45A5.45,5.45,0,0,1,295,129.34Z" style="fill:#fff"></path><path d="M257.31,126.09a5.44,5.44,0,1,1-5.44-5.45A5.44,5.44,0,0,1,257.31,126.09Z" style="fill:#fff"></path><path d="M359,186.35a36.45,36.45,0,1,1,44.22,32.71,35.75,35.75,0,0,1-7.9,10.05,59.64,59.64,0,0,0,.3-9.19A36.44,36.44,0,0,1,359,186.35Z" style="fill:#407BFF"></path><path d="M359,186.35a36.45,36.45,0,1,1,44.22,32.71,35.75,35.75,0,0,1-7.9,10.05,59.64,59.64,0,0,0,.3-9.19A36.44,36.44,0,0,1,359,186.35Z" style="opacity:0.4"></path><path d="M383.3,186.64l24.35-1.92a2.22,2.22,0,0,0,2-2.37h0a2.22,2.22,0,0,0-2.38-2L383,182.24a2.21,2.21,0,0,0-2,2.38h0A2.2,2.2,0,0,0,383.3,186.64Z" style="fill:#fff"></path><path d="M384,195.24l24.35-1.93a2.21,2.21,0,0,0,2-2.37h0a2.23,2.23,0,0,0-2.38-2l-24.35,1.92a2.23,2.23,0,0,0-2,2.38h0A2.23,2.23,0,0,0,384,195.24Z" style="fill:#fff"></path><path d="M382.62,178.05,407,176.13a2.23,2.23,0,0,0,2-2.38h0a2.2,2.2,0,0,0-2.37-2l-24.35,1.92a2.21,2.21,0,0,0-2,2.37h0A2.21,2.21,0,0,0,382.62,178.05Z" style="fill:#fff"></path></g></svg>