<svg xmlns="http://www.w3.org/2000/svg" viewBox="0 0 500 500"><g id="freepik--background-complete--inject-113"><rect x="312.38" y="51.3" width="133.02" height="203.96" style="fill:#dbdbdb"></rect><rect x="319.63" y="59.47" width="56.17" height="90.72" style="fill:#fff"></rect><rect x="381.98" y="59.47" width="56.17" height="90.72" style="fill:#fff"></rect><rect x="319.63" y="156.37" width="56.17" height="90.72" style="fill:#fff"></rect><rect x="381.98" y="156.37" width="56.17" height="90.72" style="fill:#fff"></rect><rect x="312.38" y="51.3" width="31.51" height="291.8" style="fill:#ebebeb"></rect><polygon points="337.92 65.17 338.16 96.72 338.25 128.27 338.41 191.37 338.25 254.47 338.16 286.02 337.92 317.57 337.67 286.02 337.58 254.47 337.42 191.37 337.58 128.27 337.67 96.72 337.92 65.17" style="fill:#fff"></polygon><polygon points="323.45 72.49 323.69 100.66 323.83 128.83 323.95 185.17 323.83 241.52 323.69 269.69 323.45 297.86 323.2 269.69 323.06 241.52 322.95 185.17 323.06 128.83 323.2 100.66 323.45 72.49" style="fill:#fff"></polygon><polygon points="330.68 79.14 330.93 112.13 331.01 145.11 331.18 211.09 331.01 277.06 330.93 310.05 330.68 343.03 330.44 310.05 330.35 277.06 330.18 211.09 330.35 145.11 330.44 112.13 330.68 79.14" style="fill:#fff"></polygon><polygon points="318.07 66.84 318.31 101.36 318.4 135.88 318.57 204.93 318.4 273.98 318.31 308.51 318.07 343.03 317.82 308.51 317.74 273.98 317.57 204.93 317.74 135.88 317.82 101.36 318.07 66.84" style="fill:#fff"></polygon><rect x="413.89" y="51.3" width="31.51" height="291.8" transform="translate(859.29 394.4) rotate(180)" style="fill:#ebebeb"></rect><polygon points="419.87 65.17 420.11 96.72 420.2 128.27 420.37 191.37 420.2 254.47 420.11 286.02 419.87 317.57 419.62 286.02 419.54 254.47 419.37 191.37 419.54 128.27 419.62 96.72 419.87 65.17" style="fill:#fff"></polygon><polygon points="434.33 72.49 434.58 100.66 434.72 128.83 434.83 185.17 434.72 241.52 434.58 269.69 434.33 297.86 434.09 269.69 433.95 241.52 433.83 185.17 433.95 128.83 434.09 100.66 434.33 72.49" style="fill:#fff"></polygon><polygon points="427.1 79.14 427.34 112.13 427.43 145.11 427.6 211.09 427.43 277.06 427.35 310.05 427.1 343.03 426.86 310.05 426.77 277.06 426.6 211.09 426.77 145.11 426.86 112.13 427.1 79.14" style="fill:#fff"></polygon><polygon points="439.71 66.84 439.96 101.36 440.05 135.88 440.21 204.93 440.05 273.98 439.96 308.51 439.71 343.03 439.47 308.51 439.38 273.98 439.22 204.93 439.38 135.88 439.47 101.36 439.71 66.84" style="fill:#fff"></polygon><rect x="54.6" y="51.3" width="133.02" height="203.96" style="fill:#dbdbdb"></rect><rect x="61.85" y="59.47" width="56.17" height="90.72" style="fill:#fff"></rect><rect x="124.2" y="59.47" width="56.17" height="90.72" style="fill:#fff"></rect><rect x="61.85" y="156.37" width="56.17" height="90.72" style="fill:#fff"></rect><rect x="124.2" y="156.37" width="56.17" height="90.72" style="fill:#fff"></rect><rect x="54.6" y="51.3" width="31.51" height="291.8" style="fill:#ebebeb"></rect><polygon points="80.13 65.17 80.38 96.72 80.46 128.27 80.63 191.37 80.47 254.47 80.38 286.02 80.13 317.57 79.89 286.02 79.8 254.47 79.63 191.37 79.8 128.27 79.89 96.72 80.13 65.17" style="fill:#fff"></polygon><polygon points="65.67 72.49 65.91 100.66 66.05 128.83 66.17 185.17 66.05 241.52 65.91 269.69 65.67 297.86 65.42 269.69 65.28 241.52 65.17 185.17 65.28 128.83 65.42 100.66 65.67 72.49" style="fill:#fff"></polygon><polygon points="72.9 79.14 73.14 112.13 73.23 145.11 73.4 211.09 73.23 277.06 73.14 310.05 72.9 343.03 72.65 310.05 72.57 277.06 72.4 211.09 72.57 145.11 72.66 112.13 72.9 79.14" style="fill:#fff"></polygon><polygon points="60.28 66.84 60.53 101.36 60.62 135.88 60.78 204.93 60.62 273.98 60.53 308.51 60.28 343.03 60.04 308.51 59.95 273.98 59.79 204.93 59.95 135.88 60.04 101.36 60.28 66.84" style="fill:#fff"></polygon><rect x="156.11" y="51.3" width="31.51" height="291.8" transform="translate(343.73 394.4) rotate(180)" style="fill:#ebebeb"></rect><polygon points="162.09 65.17 162.33 96.72 162.42 128.27 162.58 191.37 162.42 254.47 162.33 286.02 162.09 317.57 161.84 286.02 161.75 254.47 161.59 191.37 161.75 128.27 161.84 96.72 162.09 65.17" style="fill:#fff"></polygon><polygon points="176.55 72.49 176.79 100.66 176.93 128.83 177.05 185.17 176.94 241.52 176.8 269.69 176.55 297.86 176.31 269.69 176.17 241.52 176.05 185.17 176.17 128.83 176.31 100.66 176.55 72.49" style="fill:#fff"></polygon><polygon points="169.32 79.14 169.56 112.13 169.65 145.11 169.82 211.09 169.65 277.06 169.56 310.05 169.32 343.03 169.07 310.05 168.99 277.06 168.82 211.09 168.99 145.11 169.07 112.13 169.32 79.14" style="fill:#fff"></polygon><polygon points="181.93 66.84 182.18 101.36 182.26 135.88 182.43 204.93 182.26 273.98 182.18 308.51 181.93 343.03 181.69 308.51 181.6 273.98 181.43 204.93 181.6 135.88 181.69 101.36 181.93 66.84" style="fill:#fff"></polygon><rect x="46.11" y="301.36" width="26.48" height="11.19" style="fill:#ebebeb"></rect><rect x="31.34" y="315.47" width="26.48" height="11.19" style="fill:#ebebeb"></rect><rect x="258.21" y="150.47" width="26.48" height="11.19" style="fill:#ebebeb"></rect><rect x="243.44" y="164.58" width="26.48" height="11.19" style="fill:#ebebeb"></rect><rect x="228.73" y="150.47" width="26.48" height="11.19" style="fill:#ebebeb"></rect><rect x="442.18" y="315.47" width="26.48" height="11.19" style="fill:#ebebeb"></rect><rect x="427.41" y="62.3" width="26.48" height="11.19" style="fill:#ebebeb"></rect><rect x="442.18" y="76.41" width="26.48" height="11.19" style="fill:#ebebeb"></rect><rect x="46.11" y="62.3" width="26.48" height="11.19" style="fill:#ebebeb"></rect></g><g id="freepik--Floor--inject-113"><polygon points="32.94 369.61 87.2 369.37 141.47 369.28 250 369.11 358.53 369.28 412.8 369.37 467.06 369.61 412.8 369.86 358.53 369.94 250 370.11 141.47 369.94 87.2 369.85 32.94 369.61" style="fill:#263238"></polygon></g><g id="freepik--Shadow--inject-113"><ellipse cx="250" cy="429.91" rx="205.71" ry="25.24" style="fill:#ebebeb"></ellipse></g><g id="freepik--Plant--inject-113"><path d="M123.92,287.85c-2.8-2.75-6.44-6.08-10.73-4.89-4,1.11-5.59,5.52-6.31,9.2-.93,4.73-1.66,9.52-2.41,14.28s-1.47,9.64-2.16,14.46c-.4,2.73-.78,5.45-1.16,8.17l-.57,4.09c-.19,1.33-.41,2.67-.48,4,0,.43.65.49.74.08.52-2.27.74-4.63,1.07-6.94s.67-4.64,1-7c.67-4.6,1.37-9.2,2.06-13.81s1.42-9.2,2.15-13.8c.62-3.9.92-8.75,4.38-11.32a6.67,6.67,0,0,1,6.46-.6,19.13,19.13,0,0,1,5.87,4.1A.06.06,0,1,0,123.92,287.85Z" style="fill:#263238"></path><path d="M120.08,285s-5.74-2.07-8.58,2.12S112.06,302,138.2,308a73.64,73.64,0,0,0-6.29-23.63C126.31,272.17,116.32,276.8,120.08,285Z" style="fill:#FFC727"></path><path d="M136.7,306.28a20.24,20.24,0,0,0-1.32-2.12c-.43-.68-.88-1.35-1.32-2-.34-.51-.68-1-1-1.5a2.32,2.32,0,0,0,.05-.38l.09-.67.21-1.47c.07-.49.15-1,.25-1.46a7.17,7.17,0,0,1,.34-1.54c0-.08-.11-.12-.12,0a5.06,5.06,0,0,1-.23.87c-.06.22-.12.44-.17.66-.13.5-.25,1-.36,1.49s-.19.93-.27,1.39c0,.22-.07.45-.1.67-.47-.66-.94-1.32-1.44-2-1.38-1.83-2.85-3.58-4.37-5.3,0,0,0,0,0-.05a47.58,47.58,0,0,1,.68-8.17c0-.07-.09-.11-.11,0a28.33,28.33,0,0,0-1,7.82c-.54-.61-1.09-1.22-1.65-1.81q-1.91-2.06-3.89-4c-.06-.05-.14,0-.09.08,2.2,2.37,4.29,4.84,6.33,7.36a44.92,44.92,0,0,0-4.78.17c-1.77.13-3.53.36-5.29.6-.08,0-.05.13,0,.12a49.25,49.25,0,0,1,5.29-.47c1.7-.07,3.4,0,5.1,0,1.1,1.36,2.19,2.74,3.27,4.12h-1.45c-.79,0-1.59.07-2.38.14a37.51,37.51,0,0,0-4.83.72.06.06,0,0,0,0,.12c1.6-.18,3.21-.33,4.83-.39.77,0,1.54,0,2.31,0h1.2a1.31,1.31,0,0,0,.66-.06l2.11,2.75c.55.73,1.1,1.46,1.64,2.21s1,1.59,1.65,2.3A.06.06,0,0,0,136.7,306.28Z" style="fill:#263238"></path><path d="M122.58,291a16.37,16.37,0,0,0-2.8-.14c-.93,0-1.86,0-2.79.06a.06.06,0,1,0,0,.12c1-.07,1.89-.09,2.84-.07s1.83.1,2.75.07A0,0,0,1,0,122.58,291Z" style="fill:#263238"></path><path d="M130.79,293.08a26.87,26.87,0,0,1,.4-2.67.06.06,0,1,0-.11,0c-.13.88-.3,1.75-.43,2.63q-.1.66-.18,1.32a5.87,5.87,0,0,0-.11,1.25.08.08,0,0,0,.15,0,7.36,7.36,0,0,0,.14-1.24C130.69,293.93,130.73,293.51,130.79,293.08Z" style="fill:#263238"></path><path d="M129.07,283.19c-.23.87-.46,1.75-.62,2.63q-.12.68-.21,1.35a5.37,5.37,0,0,0-.09,1.32,0,0,0,0,0,.07,0,7.53,7.53,0,0,0,.21-1.26c0-.43.12-.87.2-1.3.15-.91.32-1.81.55-2.71C129.2,283.16,129.09,283.12,129.07,283.19Z" style="fill:#263238"></path><path d="M95,336.21c-.14-1.65-.3-3.29-.47-4.93q-.52-4.89-1.18-9.75c-.44-3.24-.85-6.48-1.37-9.71a24.59,24.59,0,0,0-1-4.4,4.15,4.15,0,0,0-2.44-2.75c-3.08-1.07-5.15,2.12-6.39,4.38a.06.06,0,0,0,.1.06c.74-1.07,2.8-4.07,5.13-3.93,1.57.09,2.83,1.2,3.58,5.12,1.88,9.75,3.57,29.55,3.77,30.84.1.69.59.66.59-.08C95.35,339.44,95.16,337.82,95,336.21Z" style="fill:#263238"></path><path d="M83,307.84s2.68-9.5-3.26-4.75C69.85,311,69.5,328.18,69.5,328.18S87.08,318,89.27,311.23C92.53,301.19,83,307.84,83,307.84Z" style="fill:#FFC727"></path><path d="M86.33,312.5c-1.39.28-2.78.46-4.18.66l-2,.28-1.34.16c1.31-1.81,2.63-3.61,3.88-5.45.05-.07-.06-.14-.11-.08a39.68,39.68,0,0,0-2.94,3.39l-.78-2.21c-.3-.85-.62-1.69-.84-2.57,0-.07-.13,0-.11,0,.24.87.41,1.75.64,2.63s.48,1.67.78,2.49c-.64.84-1.26,1.69-1.86,2.56-.3-.86-.68-1.69-.94-2.56a.06.06,0,0,0-.12,0c.32,1,.49,2,.78,2.93L76,316.58c-.71,1.1-1.38,2.22-2,3.34a.27.27,0,0,0-.16.27c-1.11,1.92-2.17,3.87-3.21,5.84,0,.07.07.12.1.06,1-1.95,2.21-3.84,3.42-5.7h0a2.59,2.59,0,0,1,.58-.11l.6-.13c.46-.1.91-.22,1.36-.33.89-.22,1.77-.43,2.68-.59.07,0,0-.13,0-.11-1.07.2-2.14.32-3.21.45-.51.05-1,.12-1.52.2h-.07c.63-1,1.27-1.91,1.92-2.86s1.29-1.84,2-2.75c.61-.09,1.22-.25,1.82-.36l2-.4c1.36-.27,2.72-.57,4.09-.8C86.43,312.6,86.4,312.48,86.33,312.5Z" style="fill:#263238"></path><path d="M75.76,313.43c-.09-.25-.16-.5-.24-.75a12.9,12.9,0,0,1-.4-1.6c0-.07-.13,0-.12,0,.12.53.24,1.07.37,1.6a10.58,10.58,0,0,0,.45,1.58.11.11,0,0,0,.21-.06C76,314,75.84,313.7,75.76,313.43Z" style="fill:#263238"></path><path d="M88.12,310.3c-.8.12-1.61.17-2.41.25s-1.62.18-2.42.3c0,0-.05.07,0,.07.81-.06,1.61-.12,2.42-.22s1.61-.23,2.42-.28C88.2,310.41,88.2,310.29,88.12,310.3Z" style="fill:#263238"></path><path d="M108,324.19c-.32-7-.76-14-1.46-20.93-.35-3.46-.74-6.93-1.23-10.38a74.76,74.76,0,0,0-2-10.05,19.33,19.33,0,0,0-3.35-7.08,7.58,7.58,0,0,0-6.76-2.95c-3.06.38-5.52,2.31-7.65,4.4-2.39,2.35-4.58,4.91-6.79,7.43-.56.63-1.12,1.27-1.67,1.91,0,.06,0,.14.09.09,2.16-2.49,4.41-4.91,6.76-7.22,2.18-2.13,4.42-4.46,7.43-5.35a7.71,7.71,0,0,1,4.31-.1,6.87,6.87,0,0,1,2.95,1.87,15.41,15.41,0,0,1,3.33,6.46c1.88,6.43,2.55,13.16,3.25,19.8s1.18,13.5,1.52,20.27.61,13.61,1.27,20.4c.08.84.18,1.67.29,2.5.07.57.94.57.9,0C108.6,338.23,108.28,331.22,108,324.19Z" style="fill:#263238"></path><path d="M85.14,278s4-7.39-.73-9.76-20.5,15.25-25.11,41c0,0,25.49-11.28,34.15-22.52S92.29,273,85.14,278Z" style="fill:#FFC727"></path><path d="M88.88,284c-2.86,0-5.72-.21-8.58-.19.53-.62,1.07-1.24,1.61-1.85a25.17,25.17,0,0,0,2.24-2.6c0-.06-.05-.14-.1-.1a20.3,20.3,0,0,0-2.17,2.18c-.72.76-1.43,1.52-2.14,2.29-1.1,1.19-2.17,2.39-3.24,3.6,0-.12,0-.23,0-.35,0-.5,0-1,0-1.5,0-1,0-1.95,0-2.92,0-2,0-3.95.15-5.91a.06.06,0,0,0-.12,0c-.14,2-.34,3.94-.44,5.92-.05,1-.07,2-.08,2.92,0,.5,0,1,0,1.5,0,.28,0,.57,0,.85l-.51.56c-2.28,2.61-4.46,5.31-6.57,8.06,0-.15,0-.3,0-.45,0-.3-.07-.61-.1-.91-.08-.66-.17-1.31-.26-2s-.19-1.23-.3-1.84-.28-1.38-.33-2.08a.06.06,0,1,0-.12,0,18.23,18.23,0,0,1,.24,2.1c.06.63.12,1.26.17,1.89l.18,1.89.09.91.06.45a1,1,0,0,0,.12.36l-1.09,1.43c-1.44,1.91-2.86,3.85-4.28,5.78,0,.06,0,.14.08.08,1.35-1.75,2.73-3.47,4.13-5.18,1,0,2.12,0,3.17,0l3.32,0c.07,0,.07-.12,0-.12-1.1,0-2.21,0-3.31,0s-2,0-3.05,0c1.24-1.5,2.48-3,3.73-4.47l1.37-1.62a6.07,6.07,0,0,0,1.28,0h1.51c.94,0,1.88,0,2.82,0,2,0,3.9-.09,5.84-.1.08,0,.07-.12,0-.12-2,0-3.9-.11-5.85-.15-.94,0-1.88-.06-2.82-.07l-1.51,0c-.29,0-.58,0-.87,0l3.21-3.81a.22.22,0,0,0,.06-.07q1.56-1.85,3.14-3.68l.44-.5c3,.09,5.94-.11,8.91-.05C89,284.08,89,284,88.88,284Z" style="fill:#263238"></path><path d="M87.42,289h-.7c-.06,0-.06.1,0,.1h.69C87.5,289.15,87.49,289,87.42,289Z" style="fill:#263238"></path><path d="M85.88,289,83.12,289l-1.37,0a5.06,5.06,0,0,0-1.29,0s0,.07,0,.09a5,5,0,0,0,1.28.09l1.38,0h2.75C86,289.16,86,289,85.88,289Z" style="fill:#263238"></path><path d="M77.86,297.64a39.41,39.41,0,0,0-5.64-.51s0,0,0,0c1.88.18,3.75.28,5.61.59C77.91,297.77,77.94,297.65,77.86,297.64Z" style="fill:#263238"></path><path d="M70.2,289.44l-.06-.49c0-.37-.11-.74-.16-1.11-.12-.7-.24-1.39-.37-2.09,0-.07-.12-.05-.12,0q.14,1.08.24,2.16l.09,1.07a3.12,3.12,0,0,0,.14,1,.14.14,0,0,0,.25,0A1.35,1.35,0,0,0,70.2,289.44Z" style="fill:#263238"></path><path d="M107.71,268.47c-.91-1.7-2.07-3.94-4.35-3.8-1.88.12-2.72,2-3.13,3.62C99,273.2,98.9,278.37,98.66,283.4c-.51,10.63-1,21.26-1,31.9q0,4.43,0,8.85c0,3,0,6,.21,9a.23.23,0,0,0,.45,0c0-2.58-.08-5.15-.09-7.72s0-5,.05-7.54q.12-7.62.41-15.25c.19-5.05.41-10.1.62-15.15l.33-7.57c.11-2.45.22-4.89.5-7.33a39.85,39.85,0,0,1,.64-4.06,5.67,5.67,0,0,1,1.17-2.73,2.58,2.58,0,0,1,3.33-.24,7.06,7.06,0,0,1,2.35,2.94A.06.06,0,1,0,107.71,268.47Z" style="fill:#263238"></path><path d="M107.1,267.66s-1.87-6.61,2.26-3.31c6.9,5.51,7.14,17.48,7.14,17.48s-12.25-7.12-13.77-11.81C100.46,263,107.1,267.66,107.1,267.66Z" style="fill:#FFC727"></path><path d="M113.92,276.92l-.34-.54a3.62,3.62,0,0,0,0-.57c0-.28,0-.56,0-.85,0-.56,0-1.12.06-1.67a.06.06,0,1,0-.12,0c0,.55,0,1.09-.06,1.64,0,.28,0,.55,0,.83,0,.1,0,.23,0,.35-.48-.75-1-1.49-1.48-2.21l-.46-.63a13,13,0,0,1,0-2.16c0-.77,0-1.53,0-2.3,0-.08-.11-.08-.12,0,0,.8-.06,1.6-.1,2.4a13.9,13.9,0,0,0,0,1.71c-1.19-1.61-2.44-3.16-3.71-4.7,0-.06-.14,0-.09.07.78,1,1.54,2,2.28,3-1.45-.34-2.91-.53-4.38-.74-.07,0-.1.1,0,.11,1.56.24,3.08.63,4.61,1h0c.59.82,1.17,1.66,1.74,2.49l.7,1h-.07l-.48-.06-1-.1-2.13-.13c-.07,0-.07.12,0,.12.69,0,1.39.07,2.08.14l1.09.14.48.05.14,0,1.18,1.74c.69,1,1.31,2.12,2,3.11a.05.05,0,0,0,.09-.06A29.61,29.61,0,0,0,113.92,276.92Z" style="fill:#263238"></path><path d="M110.87,269.45c0-.26,0-.51,0-.77a12.47,12.47,0,0,1,.06-1.62c0-.09-.11-.1-.11,0,0,.53-.06,1.07-.09,1.6,0,.27,0,.54,0,.81v.37a1,1,0,0,0,0,.38.05.05,0,0,0,.1,0,1.08,1.08,0,0,0,0-.36C110.87,269.72,110.87,269.59,110.87,269.45Z" style="fill:#263238"></path><path d="M109.36,272.19c-.46-.08-.92-.1-1.38-.14s-1-.09-1.52-.15c-.08,0-.1.11,0,.11,1,.07,1.93.24,2.9.27C109.4,272.29,109.41,272.2,109.36,272.19Z" style="fill:#263238"></path><path d="M113.21,272.23a.75.75,0,0,1,0,.26v1.13a1.11,1.11,0,0,0,0,.41s0,0,0,0a.41.41,0,0,0,0-.19v-1.36c0-.06,0-.2,0-.25S113.13,272.12,113.21,272.23Z" style="fill:#263238"></path><path d="M108,303.75c-2.58-1.93-4.89-4.71-8.36-4.85-2.86-.11-4.86,2-6,4.44a25.41,25.41,0,0,0-1.4,4c-.52,1.81-1,3.63-1.46,5.46q-1.35,5.38-2.29,10.87c-.35,2-.68,4.07-.93,6.12A51,51,0,0,0,87,336a.33.33,0,0,0,.64.07c.34-1.71.49-3.48.74-5.21s.52-3.48.81-5.22q.89-5.2,2.06-10.36c.74-3.24,1.46-6.53,2.51-9.69.75-2.26,2-4.9,4.39-5.71,3.72-1.24,7.1,1.91,9.82,3.95C108,303.88,108.06,303.8,108,303.75Z" style="fill:#263238"></path><path d="M105.33,301.9s-2.37-6.78,1.06-8.11c5.15-2,18.62,13.19,16,36.44A133.11,133.11,0,0,1,104.28,318C96.59,311.59,94.63,303.16,98,301S105.33,301.9,105.33,301.9Z" style="fill:#FFC727"></path><path d="M120.82,325.24a17.52,17.52,0,0,0-1.25-2.34c-.44-.8-.89-1.59-1.35-2.38-.89-1.53-1.78-3.06-2.69-4.58l-.46-.73.06-.27.15-.68c.12-.5.21-1,.3-1.52.19-1,.36-2,.63-3,0-.07-.1-.09-.12,0-.21,1-.52,2-.82,2.95-.14.48-.3.95-.42,1.44,0,.16-.09.33-.13.5-1.11-1.82-2.24-3.62-3.45-5.37a2.55,2.55,0,0,0,.12-.74l.12-1c.09-.77.18-1.53.29-2.3a45.14,45.14,0,0,1,.81-4.45c0-.07-.09-.09-.11,0-.37,1.46-.78,2.93-1,4.41-.14.73-.27,1.46-.37,2.19,0,.37-.08.74-.12,1.11,0,.11,0,.22,0,.33-.38-.52-.75-1-1.14-1.57-1.19-1.56-2.42-3.09-3.67-4.61a.06.06,0,1,0-.09.07,81.71,81.71,0,0,1,5.85,8.55c.34.54.67,1.09,1,1.64l-.33,0-1.31-.12-2.63-.23c-1.76-.14-3.52-.25-5.27-.44-.07,0-.09.11,0,.12,1.78.2,3.54.49,5.31.74l2.6.35a10.23,10.23,0,0,0,2,.21l2.07,3.35a3.65,3.65,0,0,0-.47,0h-2.5c-1.13,0-2.26,0-3.39,0-.08,0-.06.12,0,.12,1.15,0,2.29.07,3.43.13l1.63.1.81.06a1.7,1.7,0,0,0,.71,0c.59.95,1.18,1.9,1.76,2.86s1.08,1.75,1.64,2.62a20.72,20.72,0,0,0,1.77,2.65C120.75,325.35,120.85,325.32,120.82,325.24Z" style="fill:#263238"></path><path d="M115.86,306.45a16.68,16.68,0,0,1-.46,2.21c-.2.75-.42,1.5-.66,2.24a.07.07,0,1,0,.14,0c.23-.73.44-1.47.62-2.22s.3-1.5.48-2.25C116,306.4,115.87,306.37,115.86,306.45Z" style="fill:#263238"></path><path d="M108.21,311a.86.86,0,0,0-.56-.21l-1-.13c-.61-.09-1.22-.15-1.83-.23-1.27-.14-2.54-.27-3.8-.43-.08,0-.1.11,0,.12,1.19.14,2.38.33,3.58.48l1.75.23.85.09a3.19,3.19,0,0,1,1,.17S108.25,311,108.21,311Z" style="fill:#263238"></path><path d="M115.84,321.22c-.6-.05-1.2-.07-1.8-.09l-.91,0h-.43a2.69,2.69,0,0,1-.57,0c-.09,0-.09.13,0,.12a2.35,2.35,0,0,1,.53,0l.48,0,.9,0c.6,0,1.21.07,1.81.08C115.91,321.35,115.92,321.22,115.84,321.22Z" style="fill:#263238"></path><path d="M119.51,318.62c.07-.34.14-.69.2-1,.12-.67.24-1.34.37-2,0-.07-.1-.09-.12,0-.15.65-.29,1.31-.44,2-.07.33-.15.65-.21,1,0,.15-.07.3-.1.45a1.31,1.31,0,0,0,0,.48c0,.06.09.1.13.05A2.33,2.33,0,0,0,119.51,318.62Z" style="fill:#263238"></path><polygon points="84.27 333.41 84.99 341.65 87.45 369.48 109.25 369.48 112.33 341.65 113.23 333.41 84.27 333.41" style="fill:#455a64"></polygon><polygon points="84.27 333.41 84.99 341.65 112.33 341.65 113.23 333.41 84.27 333.41" style="fill:#263238"></polygon><rect x="82.11" y="331.16" width="33.29" height="6.69" transform="translate(197.5 669.01) rotate(180)" style="fill:#455a64"></rect></g><g id="freepik--Table--inject-113"><rect x="176.52" y="312.58" width="146.96" height="11.28" style="fill:#37474f"></rect><polygon points="210.82 323.87 206.64 334.06 186.23 383.93 181 383.93 194.73 334.06 197.53 323.87 210.82 323.87" style="fill:#37474f"></polygon><polygon points="197.53 323.87 210.82 323.87 206.64 334.06 194.73 334.06 197.53 323.87" style="fill:#263238"></polygon><polygon points="319 383.93 313.77 383.93 293.36 334.06 289.19 323.87 302.47 323.87 305.27 334.06 319 383.93" style="fill:#37474f"></polygon><polygon points="305.27 334.06 293.36 334.06 289.19 323.87 302.47 323.87 305.27 334.06" style="fill:#263238"></polygon></g><g id="freepik--Device--inject-113"><rect x="204.41" y="269" width="91.15" height="43.58" style="fill:#dbdbdb"></rect><rect x="238.4" y="293.87" width="23.17" height="12.97" style="fill:#fff"></rect><rect x="238.4" y="290.31" width="3.9" height="1.95" style="fill:#455a64"></rect><rect x="243.92" y="290.31" width="3.9" height="1.95" style="fill:#455a64"></rect><rect x="249.43" y="290.31" width="3.9" height="1.95" style="fill:#455a64"></rect><rect x="257.68" y="290.31" width="3.9" height="1.95" style="fill:#FFC727"></rect><rect x="238.4" y="277.55" width="23.17" height="6.4" style="fill:#37474f"></rect><rect x="199.62" y="268.04" width="31.89" height="44.54" style="fill:#c7c7c7"></rect><path d="M203.52,268l-.14.14-2,2-.16.16-1.6,1.61v-.68L200.9,270l.15-.15L202.9,268Zm3.74,0-1.84,1.82-.19.2-2,2-.2.19-2,2-.2.19-1.24,1.24v.71l.61-.6,1-1,.2-.2,2-2,.21-.2,2-2,.2-.21,2-2,.15-.15Zm4.59,0-.11-.11-.11.11-1.83,1.82-.24.23L207.62,272l-.24.24-1.94,1.93-.24.23-1.94,1.93-.24.24-1,1-1,1-.24.24L199.62,280v.66l1.57-1.56.24-.24,1-1,1-1,.24-.24,1.92-1.94.25-.24,1.92-1.94.25-.25,1.91-1.93.25-.25,1.92-1.93.17-.17Zm4.31,0-.08-.08L216,268l-1.25,1.23-.58.58-.28.27L212,272l-.27.27-1.91,1.89-.27.27-1.91,1.9-.28.27-1.9,1.89-.28.28-.95.94-.94.95L203,281l-1.89,1.9-.28.28-1.21,1.23V285l1.53-1.52.29-.28,1.9-1.89.28-.28.95-.94.94-.95.28-.28,1.88-1.9.28-.28,1.9-1.91.27-.27,1.89-1.9.27-.28,1.89-1.9.28-.28.57-.58c.44-.44.87-.88,1.3-1.33a1.37,1.37,0,0,0,.17-.17Zm4.34,0-.06-.05-.05.05-1.85,1.81-.3.29-1.32,1.3-.57.57-.29.29-1.89,1.87-.29.29L212,276.33l-.29.29-1.9,1.88-.29.29-1.88,1.87-.3.29-1.88,1.88-.29.3L203.29,285l-.29.29-1.88,1.89-.29.29-1.21,1.23v.6l1.52-1.51.3-.3,1.88-1.87.3-.29,1.89-1.88.29-.29.94-.93.94-.95L208,281l1.87-1.89.3-.29,1.87-1.89.29-.3,1.87-1.88.3-.3,1.87-1.88.29-.3.57-.57,1.29-1.32.29-.29c.63-.63,1.25-1.27,1.87-1.91a1,1,0,0,0,.14-.15Zm4.32,0h0s0,0,0,0c-.63.61-1.25,1.21-1.87,1.83-.1.09-.21.19-.31.3L220.72,272l-.31.31-1.31,1.28-.57.56-.31.31-1.87,1.86-.31.3-1.87,1.86-.31.31L212,280.67l-.31.31-1.87,1.85-.31.31-.94.93-.92.93-.31.31-1.86,1.87-.31.31-1.85,1.87-.31.32-1.86,1.86-.31.32-1.21,1.22v.56l1.5-1.49.32-.31,1.87-1.85.31-.31,1.87-1.86.31-.31,1.87-1.85.32-.31,2.17-2.17,1.85-1.87.31-.32,1.86-1.87.31-.31,1.85-1.87.31-.31,1.85-1.87.87-.87,1.29-1.32c.11-.1.21-.21.31-.31l1.84-1.88.31-.32,1.84-1.88.13-.14Zm4.38,0,0,0-1.87,1.81-.33.32L225.1,272l-.33.32-1.86,1.83-.33.33-1.31,1.28-.55.55-.33.32-1.85,1.84-.33.33-1.86,1.84L216,281l-1.86,1.84-.33.33L212,285l-.32.32-.93.92-.92.93-.33.32-1.84,1.86-.32.33-1.84,1.85-.33.33-1.84,1.85L203,294l-1.84,1.85-.33.32-.55.56-.66.67V298l.94-.92.55-.55.33-.32,1.85-1.84.33-.33,1.85-1.83.33-.33,1.85-1.84.33-.32,1.85-1.84.33-.33.93-.92.92-.93.32-.32,1.84-1.85.33-.33,1.84-1.86.32-.33,1.84-1.85.33-.33,1.84-1.85.32-.33.55-.55c.43-.44.86-.87,1.28-1.31l.33-.33,1.83-1.86.32-.33,1.83-1.87.32-.33c.6-.62,1.21-1.24,1.81-1.87l.11-.12Zm2.14,2.21q-.93.88-1.86,1.8l-.34.34c-.62.59-1.24,1.19-1.85,1.8a3.85,3.85,0,0,0-.35.35c-.62.59-1.24,1.2-1.85,1.81-.12.1-.24.22-.35.33l-1.3,1.28-.54.54-.35.34-1.84,1.82-.34.35-1.84,1.82-.34.34L216.35,285l-.34.35-1.84,1.82-.34.34-.92.91-.91.92-.34.34-1.83,1.84-.34.34-1.82,1.84-.34.35-1.83,1.83-.34.35-1.82,1.83-.34.35-.54.54-1.28,1.3-.34.35-1.22,1.24v.44l1.47-1.44c.12-.11.23-.22.34-.34l1.3-1.27.55-.54.34-.35,1.83-1.81.35-.35,1.83-1.82L208,294l1.84-1.82.34-.34L212,290l.35-.35.92-.91.91-.92.34-.34,1.82-1.84.35-.34,1.82-1.84.34-.34,1.82-1.84L221,281l1.82-1.83.34-.35.54-.54,1.28-1.3.34-.35c.61-.61,1.21-1.22,1.81-1.84l.34-.35c.61-.61,1.21-1.23,1.81-1.85.11-.11.23-.23.33-.35q.93-.93,1.8-1.86a.19.19,0,0,0,.09-.09v-.16Zm0,4.31-1.84,1.8-.35.35c-.62.59-1.23,1.2-1.85,1.81l-.35.33-1.3,1.28-.54.54-.35.34-1.83,1.82-.35.35L220.7,285l-.34.34-1.84,1.82-.34.35-1.84,1.82-.34.34-.92.91-.91.92-.35.35L212,293.68l-.34.35-1.82,1.83-.34.35-1.82,1.84-.35.34-1.81,1.84-.35.34-.54.55c-.43.43-.85.86-1.27,1.3-.12.11-.23.22-.34.34-.61.61-1.21,1.23-1.81,1.85-.12.12-.24.23-.34.35-.43.42-.84.85-1.25,1.28v.32l1.44-1.41c.12-.1.23-.22.35-.34.62-.6,1.24-1.2,1.85-1.81l.34-.34,1.3-1.27.55-.54.34-.35,1.84-1.81.34-.35,1.84-1.82.35-.35,1.83-1.82.34-.34,1.84-1.82.35-.34.91-.91.92-.92.34-.35,1.82-1.83.34-.35,1.82-1.83.34-.35,1.83-1.83.34-.35,1.82-1.84.35-.34.54-.55c.43-.43.85-.87,1.27-1.3l.34-.34c.61-.61,1.21-1.23,1.81-1.85.12-.12.24-.23.34-.35l1.81-1.85,0,0v-.31Zm0,4.31-1.86,1.83-.33.32-1.31,1.28-.55.55-.34.33L225.05,285l-.33.33-1.85,1.83-.33.33-1.85,1.83-.33.33-1.85,1.84-.33.33-.93.92-.91.92L216,294l-1.84,1.85-.33.33L212,298l-.33.33-1.84,1.86-.33.33-1.83,1.85-.88.88c-.43.44-.86.87-1.28,1.31l-.32.33c-.62.62-1.22,1.24-1.83,1.86l-.32.33L201.22,309l-.32.33c-.43.44-.86.88-1.28,1.33v.2l1.43-1.38.33-.32,1.87-1.83.33-.33,1.86-1.83.33-.32,1.3-1.28.56-.55.32-.33,1.85-1.83.34-.33,1.85-1.84.33-.32,1.85-1.84.33-.33,1.85-1.83.33-.33.93-.92.92-.92.32-.33,1.84-1.86.33-.32,1.84-1.86.32-.32,1.84-1.86.33-.33,1.84-1.85.32-.33.55-.55c.43-.44.86-.87,1.28-1.31l.33-.33,1.82-1.86,0,0v-.4A2.13,2.13,0,0,0,231.29,278.87Zm.22,4.55V283l-.23.23L230,284.48l-.56.55-.31.32-1.87,1.85-.32.31L225,289.37l-.31.31-1.87,1.85-.32.31-1.86,1.85-.32.32-.93.92-.93.94-.31.31-1.85,1.87-.31.31-1.85,1.87-.32.31L212,302.41l-.32.31-1.85,1.87-.31.31-.55.56c-.43.44-.87.88-1.29,1.32l-.31.31c-.62.62-1.23,1.25-1.84,1.88a3.11,3.11,0,0,0-.31.32c-.62.62-1.24,1.25-1.85,1.88l-.3.32c-.36.36-.71.72-1.06,1.09h.23c.33-.31.65-.63,1-.95l.32-.3,1.88-1.85a3.11,3.11,0,0,0,.32-.31c.63-.61,1.26-1.22,1.88-1.84l.31-.31c.44-.42.88-.86,1.32-1.29l.56-.55.31-.31L212,303l.31-.31,1.87-1.86.31-.3,1.87-1.86.31-.31,1.87-1.85.31-.31.94-.93.93-.93L221,294l1.85-1.87.31-.31L225,290l.3-.3,1.86-1.87.31-.32,1.85-1.87.32-.31.55-.56,1.28-1.3s0,0,0,0Zm0,4.33v-.48l-.24.24-1.89,1.87-.3.3-1.88,1.86-.3.3L225,293.71l-.3.29-1.88,1.87-.3.3-.94.93-.94.95-.29.29-1.87,1.89-.29.29-1.87,1.89-.29.29-1.88,1.89-.29.3L212,306.77l-.29.3-.57.57-1.3,1.32-.29.3q-.94.94-1.86,1.89l-.29.3-1.12,1.13h.36l.95-.93.3-.3c.64-.61,1.27-1.23,1.9-1.86l.3-.28,1.32-1.3.57-.57.3-.29,1.88-1.87.3-.29,1.89-1.88.29-.29,1.89-1.87.29-.29,1.88-1.87.3-.3.94-.93.94-.94.29-.3,1.88-1.89.29-.29,1.87-1.89.29-.29,1.87-1.89.3-.29,1.83-1.85,0,0Zm0,4.33v-.48l-.25.24-1.9,1.89-.28.27-1.9,1.89-.28.27-1.9,1.89-.28.28-.95.94-1,1-.27.27-1.89,1.91-.27.27-1.89,1.9-.27.28-1.89,1.91-.29.28-1.88,1.9-.28.28-.57.58c-.44.44-.87.88-1.3,1.33l-.28.28c-.38.38-.76.77-1.13,1.16H211c.32-.3.63-.61.94-.92l.28-.28,1.33-1.3.58-.58.28-.27,1.9-1.89.28-.27,1.91-1.9.27-.27,1.91-1.89.27-.27,1.91-1.89.27-.27,1-.95.94-.95.28-.28,1.89-1.91.27-.27,1.89-1.91.27-.27,1.84-1.85.05-.05Zm-.23,4.08-1.94,1.92-.24.24-1.93,1.92-.26.26-1,.95-1,1-.25.25-1.92,1.93-.24.24-1.92,1.94-.24.24L218.49,309l-.25.25-1.92,1.93-.24.24-.59.6-.59.6h.52l.34-.33.6-.59.24-.24,1.94-1.92.24-.25,1.95-1.92.24-.24,1.94-1.92.24-.24,1.94-1.93.24-.23,1-1,1-1,.24-.24,1.93-1.94.24-.24,1.84-1.86v-.62Zm.21,4.11-.2.2-2,2-.2.2-1,1-1,1-.2.2-2,2-.2.2-2,2-.2.2-2,2-.21.21-1.21,1.22h.56l1-.93.2-.2,2-2,.19-.2,2-2,.2-.2,2-2,.2-.19,1-1,1-1,.2-.2,1.86-1.87v-.65Zm0,4.36-.16.16-1,1-1,1-.15.15-2,2-.15.16-2,2-.15.15-1.25,1.26h.6l1-.95.14-.14,2-2,.15-.15,2-2,.14-.14,1-1,.87-.88v-.69Zm-.12,4.47-2.08,2.09-.09.09-1.28,1.3h.63l1-1,.07-.07,1.93-1.91v-.69ZM229.8,268h-.65l0,0,.09.09,2.08,2.09.08.08.09.09v-.69Zm.84,5.16-1-1-.14-.14-2-2-.15-.15L225.44,268h-.62l.14.14,2,2,.16.16,2,2,.15.15,1,1,1,1,.16.15,0,.05v-.68Zm-1,3.36-.19-.2-1-1-1-1-.19-.2-2-2-.2-.2-2-2-.2-.19L221.08,268h-.58l.15.15,2,2,.2.21,2,2,.21.21,2,2,.2.2,1,1,1,1,.2.2,2,2,.2.21h0v-.65Zm0,4.38-.24-.24-1.93-1.94-.24-.24-1-1-1-1-.24-.23-1.94-1.93-.24-.24L221,272.26l-.25-.24-1.94-1.92-.24-.25L216.71,268l-.11-.11-.11.11h-.33l.16.17,1.92,1.93.25.25,1.92,1.94.25.24,1.92,1.94.24.24,1.92,1.93.25.25,1,1,1,1,.25.25L229.1,281l.24.25,1.94,1.92.23.23v-.62Zm1.84,6.22-1.83-1.85-.28-.28-1.89-1.9-.27-.28-1.89-1.9-.28-.28-.94-.95-1-1-.27-.27L221,276.61l-.27-.27-1.91-1.89-.28-.28-1.9-1.89-.28-.27-1.9-1.89-.28-.27-.58-.58L212.34,268l-.08-.08-.07.08h-.34a1.37,1.37,0,0,0,.17.17c.43.45.86.89,1.3,1.33l.57.58.28.28,1.89,1.9.28.28,1.88,1.9.28.28,1.89,1.9.28.28,1.88,1.9.28.28.94.95.95.94.28.28,1.9,1.89.29.28,1.9,1.89.27.27,1.91,1.89.24.24v-.48l.05-.06Zm0,4.36-1.83-1.84-.3-.3-1.87-1.89-.29-.29-1.87-1.89-.3-.29-1.87-1.89-.29-.3L221,281l-.3-.29-1.88-1.87-.29-.29-1.89-1.87-.3-.29-1.88-1.88-.3-.29-1.89-1.87L212,272l-.57-.57-1.32-1.3-.3-.28L208,268s0,0,0-.05l-.05.05h-.3l.15.15c.61.64,1.23,1.27,1.86,1.9l.29.3,1.3,1.32.57.57.29.3,1.87,1.88.29.3,1.87,1.88.3.3,1.87,1.89.29.29,1.87,1.89.29.29.94.95.94.93.3.3,1.88,1.87.3.29,1.88,1.87.3.3,1.88,1.87.3.29,1.88,1.87.25.24v-.48l0,0Zm0,4.38-1.28-1.3-.87-.87-1.85-1.87-.31-.32-1.86-1.86-.3-.31-1.86-1.87-.31-.32L221,285.31l-.31-.31-.92-.93-.94-.93-.31-.31L216.66,281l-.31-.3-1.86-1.86-.32-.31-1.87-1.86-.31-.31-1.87-1.85-.87-.87-1.31-1.29-.32-.3-1.88-1.85-.32-.31L203.56,268l0,0,0,0h-.27l.13.14c.62.62,1.23,1.25,1.85,1.88l.31.32,1.84,1.88.31.31,1.29,1.31.87.87,1.85,1.87.31.32,1.85,1.87.32.31L216,281l.31.31,1.85,1.87.31.31.93.94.93.92.31.32,1.87,1.85.32.31,1.87,1.86.31.3,1.86,1.86.32.31,1.86,1.85.32.31.56.56,1.32,1.29.23.23v-.46h0S231.52,295.9,231.51,295.9Zm0,4.37-1.82-1.86-.33-.33c-.42-.44-.85-.87-1.28-1.31l-.55-.55-.33-.33L225.35,294l-.33-.33-1.84-1.86-.32-.32L221,289.68l-.33-.34-1.84-1.85-.33-.33-.91-.92-.93-.92-.33-.33-1.85-1.83-.33-.33L212.32,281l-.33-.32-1.85-1.84-.34-.33L208,276.66l-.32-.32-.56-.55-1.3-1.28-.33-.32-1.86-1.83c-.11-.12-.23-.23-.34-.33l-1.86-1.83-.33-.32-1.43-1.38v.2c.42.45.85.89,1.28,1.33l.32.33,1.82,1.86.33.34c.61.62,1.21,1.24,1.83,1.86l.32.33c.42.44.85.87,1.28,1.31l.55.55.32.33,1.84,1.85.33.33,1.84,1.86.33.33,1.83,1.85.33.33,1.84,1.85.32.32.92.93.93.92.33.33,1.85,1.83.33.33,1.85,1.84.33.32,1.85,1.84.34.33,1.84,1.83.34.33.55.55,1.31,1.28q.17.18.33.33l1.86,1.82a1.52,1.52,0,0,0,.22.22v-.4Zm0,4.36-1.81-1.85-.34-.34c-.59-.62-1.2-1.23-1.81-1.85l-.33-.35-1.28-1.3-.54-.54-.35-.35-1.82-1.83-.34-.35L221,294l-2.17-2.17-.34-.35-1.82-1.84-.35-.34-.91-.92-.92-.91-.34-.34-1.84-1.82L212,285l-1.83-1.82-.35-.35L208,281l-.34-.35-1.84-1.82-.34-.34-.55-.54-1.3-1.27c-.11-.12-.22-.23-.34-.34-.61-.61-1.23-1.21-1.85-1.81l-.35-.35-1.44-1.4v.32c.41.43.82.85,1.24,1.27l.35.36,1.81,1.85.34.34c.42.44.84.87,1.27,1.3l.54.55.34.34,1.82,1.83.35.35,1.82,1.84.35.35,1.82,1.83.34.34,1.82,1.84.34.34.91.92.92.91.35.35,1.83,1.82.35.35,1.83,1.82.35.34,1.83,1.82.35.35,1.83,1.81.35.35.54.54,1.3,1.28.35.33c.62.61,1.23,1.22,1.85,1.81l.34.34,1.85,1.81.21.2v-.31Zm0,4.39q-.87-.93-1.8-1.86a3.73,3.73,0,0,0-.34-.35c-.59-.62-1.19-1.24-1.8-1.85l-.34-.35c-.6-.62-1.2-1.23-1.81-1.84l-.34-.35-1.28-1.3-.54-.54-.35-.35L221,298.39l-.35-.34-1.82-1.84-.34-.34L216.68,294l-.34-.35-1.82-1.83-.35-.35-.91-.92-.92-.91-.34-.34-1.84-1.82-.34-.34L208,285.35l-.35-.35-1.84-1.82-.35-.35L203.62,281l-.34-.34-.55-.54-1.3-1.27-.34-.34-1.47-1.44v.43c.4.42.81.84,1.23,1.25l.34.34c.42.43.84.87,1.27,1.3l.54.55.34.34,1.82,1.84.35.34,1.82,1.84.34.35,1.82,1.83.34.35,1.83,1.83.33.35.92.92.91.91.35.34L216,294l.34.35,1.84,1.82.34.34,1.84,1.82.34.35,1.84,1.81.35.35.54.54,1.3,1.28.35.33c.61.61,1.23,1.22,1.85,1.81.11.12.22.23.34.34.61.61,1.23,1.21,1.85,1.81l.35.34,1.86,1.8c0,.06.11.11.17.17v-.16A.19.19,0,0,0,231.42,309Zm-1.84,2.51c-.1-.12-.21-.23-.32-.34-.6-.63-1.21-1.25-1.81-1.87l-.33-.34-1.82-1.86c-.11-.11-.21-.22-.33-.33l-1.82-1.86q-.15-.17-.33-.33c-.42-.44-.85-.87-1.28-1.31l-.88-.88-1.83-1.85-.33-.33-1.84-1.86-.32-.32-1.84-1.86-.33-.33L212.33,294l-.33-.33-.91-.92-.93-.92-.33-.33L208,289.68l-.33-.33-1.85-1.84-.33-.33-1.85-1.83-.33-.33-1.85-1.84-.33-.33-.55-.54-.94-.92v.52l.66.67.55.55.32.33,1.85,1.85.32.33,1.84,1.85.33.33,1.84,1.86.32.32,1.84,1.85.33.33.92.93.92.92.33.32,1.85,1.84.33.33,1.86,1.84.32.32,1.86,1.84.33.33,1.85,1.83.33.33.55.55,1.31,1.28.33.33,1.86,1.82.33.33c.62.61,1.24,1.22,1.87,1.82l.33.33,1.87,1.81a3.33,3.33,0,0,0,.34.32c.33.34.67.66,1,1h.08Q230.11,312.06,229.58,311.53Zm-4.32,0c-.09-.11-.2-.21-.3-.32l-1.85-1.89-.3-.31L221,307.09l-.31-.31-1.29-1.32-.56-.56-.31-.32-1.85-1.86-.31-.31-1.86-1.87-.3-.31-1.86-1.87L212,298l-1.85-1.87-.32-.31-.92-.93L208,294l-.31-.31-1.87-1.85-.31-.31-1.87-1.85-.31-.32-1.87-1.85-.32-.31-1.5-1.49v.56l1.21,1.22.31.32,1.86,1.87.31.31,1.85,1.87.31.31,1.86,1.87.3.31.93.93.94.93.31.31,1.87,1.85.31.31,1.87,1.86.31.3,1.88,1.86.31.31,1.87,1.85.87.87c.44.43.88.87,1.32,1.29l.31.31c.62.62,1.25,1.24,1.88,1.84l.31.31,1.89,1.84c.1.11.21.21.31.31l1,.95h.23C226,312.21,225.62,311.85,225.26,311.49Zm-4.32,0-.29-.3-1.87-1.9-.29-.29c-.42-.44-.86-.88-1.29-1.32l-.57-.57-.29-.3-1.87-1.88-.3-.3-1.87-1.89-.29-.29-1.87-1.89-.3-.29L208,298.34l-.29-.29-.94-.95-.94-.93-.3-.3L203.62,294l-.3-.29-1.88-1.87-.3-.3L199.62,290v.6l1.21,1.23.29.29L203,294l.29.29,1.87,1.89.29.3.94.94.94.93.3.3,1.88,1.87.29.29,1.89,1.87.3.29,1.89,1.88.29.29,1.88,1.87.3.29.57.57,1.32,1.3.3.29,1.9,1.86.3.29.95.93h.36Zm-4.34,0-.28-.28c-.43-.45-.86-.89-1.3-1.33l-.57-.58-.28-.28-1.88-1.9-.28-.28-1.89-1.9-.28-.28L208,302.68l-.27-.27-1.89-1.91-.27-.27-1-1-.95-.94-.28-.28-1.9-1.88-.28-.28-1.54-1.53V295l1.21,1.22.28.28L203,298.4l.28.28.94.95.95.94.28.28,1.9,1.89.28.27,1.9,1.89.28.28,1.91,1.89.27.27,1.9,1.89.28.27.58.58,1.33,1.3a3.7,3.7,0,0,0,.28.28l.94.92h.44C217.37,312.19,217,311.8,216.6,311.42Zm-3.75.56-.59-.6-.24-.24-1.92-1.93-.25-.25L207.93,307l-.24-.24-1.92-1.94-.25-.24-1.92-1.94-.24-.24-1-1-1-1-.25-.25-1.56-1.55v.66l1.22,1.24.25.24,1,1,1,1,.24.24,1.94,1.93.24.23,1.94,1.93.24.24,1.94,1.93.24.23,1.94,1.93.24.24.6.59.34.33h.52Zm-4.95-.63-.2-.2-2-2-.2-.2-2-2-.21-.2-2-2-.2-.2-1-1-.61-.6v.7l.25.25,1,1,.19.19,2,2,.2.2,2,2,.19.19,2,2,.19.2,1,.93h.57Zm-4.36,0-.16-.16-2-2-.16-.16-1.6-1.62v.69l1.28,1.26.15.15,2,2,.14.14,1,.95h.6Zm-3.92.41v.64l.2.2h.63Z" style="fill:#a6a6a6;opacity:0.2"></path><rect x="268.46" y="268.04" width="31.89" height="44.54" style="fill:#c7c7c7"></rect><path d="M272.34,268l-.14.14-2,2-.16.16-1.6,1.61v-.68l1.28-1.26.15-.15,1.85-1.84Zm3.74,0-1.84,1.82-.19.2-2,2-.2.19-2,2-.2.19-1.24,1.24v.71l.61-.6,1-1,.2-.2,2-2,.21-.2,2-2,.2-.21,2-2,.15-.15Zm4.59,0-.11-.11-.11.11-1.83,1.82-.24.23L276.44,272l-.24.24-1.94,1.93-.24.23-1.94,1.93-.24.24-1,1-1,1-.24.24L268.44,280v.66L270,279.1l.24-.24,1-1,1-1,.24-.24,1.92-1.94.25-.24,1.92-1.94.25-.25,1.91-1.93.25-.25,1.92-1.93L281,268Zm4.31,0-.08-.08a.6.6,0,0,0-.08.08l-1.25,1.23-.58.58-.28.27-1.9,1.89-.27.27-1.91,1.89-.27.27-1.91,1.9-.28.27-1.9,1.89-.28.28-.95.94-.94.95-.28.28-1.89,1.9-.28.28-1.21,1.23V285l1.53-1.52.29-.28,1.9-1.89.28-.28.95-.94.94-.95.28-.28,1.88-1.9.28-.28,1.9-1.91.27-.27,1.89-1.9.27-.28,1.89-1.9.28-.28.57-.58c.44-.44.87-.88,1.3-1.33a1.37,1.37,0,0,0,.17-.17Zm4.34,0-.06-.05-.05.05-1.85,1.81-.3.29-1.32,1.3-.57.57-.29.29L283,274.17l-.29.29-1.89,1.87-.29.29-1.9,1.88-.29.29-1.88,1.87-.3.29-1.88,1.88-.29.3L272.11,285l-.29.29-1.88,1.89-.29.29-1.21,1.23v.6l1.52-1.51.3-.3,1.88-1.87.3-.29,1.89-1.88.29-.29.94-.93.94-.95.29-.29,1.87-1.89.3-.29,1.87-1.89.29-.3,1.87-1.88.3-.3,1.87-1.88.29-.3.57-.57,1.29-1.32c.1-.09.19-.19.29-.29.63-.63,1.25-1.27,1.87-1.91a1,1,0,0,0,.14-.15Zm4.32,0h0s0,0,0,0c-.63.61-1.25,1.21-1.87,1.83-.1.09-.21.19-.31.3L289.54,272l-.31.31-1.31,1.28-.57.56-.31.31-1.87,1.86-.31.3L283,278.5l-.31.31-1.87,1.86-.31.31-1.87,1.85-.31.31-.94.93-.92.93-.31.31-1.86,1.87-.31.31-1.85,1.87-.31.32L270,291.54l-.31.32-1.21,1.22v.56l1.5-1.49.32-.31,1.87-1.85.31-.31,1.87-1.86.31-.31,1.87-1.85.32-.31,2.17-2.17,1.85-1.87.31-.32,1.86-1.87.31-.31,1.85-1.87.31-.31,1.85-1.87.87-.87,1.29-1.32.31-.31,1.84-1.88.31-.32,1.84-1.88.13-.14Zm4.38,0,0,0-1.87,1.81-.33.32L293.92,272l-.33.32-1.86,1.83q-.17.15-.33.33l-1.31,1.28-.55.55-.33.32-1.85,1.84-.33.33-1.86,1.84-.32.32L283,282.83l-.33.33L280.81,285l-.32.32-.93.92-.92.93-.33.32-1.84,1.86-.32.33-1.84,1.85-.33.33-1.84,1.85-.32.33L270,295.89l-.33.32-.55.56-.66.67V298l.94-.92.55-.55.33-.32,1.85-1.84.33-.33,1.85-1.83.33-.33,1.85-1.84.33-.32,1.85-1.84.33-.33.93-.92.92-.93.32-.32,1.84-1.85.33-.33,1.84-1.86.32-.33,1.84-1.85.33-.33,1.84-1.85.32-.33.55-.55c.43-.44.86-.87,1.28-1.31l.33-.33,1.83-1.86.32-.33,1.83-1.87.32-.33c.6-.62,1.21-1.24,1.81-1.87l.11-.12Zm2.14,2.21q-.93.88-1.86,1.8l-.34.34c-.62.59-1.24,1.19-1.85,1.8a3.85,3.85,0,0,0-.35.35c-.62.59-1.24,1.2-1.85,1.81-.12.1-.24.22-.35.33l-1.3,1.28-.54.54-.35.34-1.84,1.82-.34.35-1.84,1.82-.34.34L285.17,285l-.34.35L283,287.16l-.34.34-.92.91-.91.92-.34.34-1.83,1.84-.34.34-1.82,1.84-.34.35-1.83,1.83-.34.35-1.82,1.83-.34.35-.54.54-1.28,1.3-.34.35-1.22,1.24v.44l1.47-1.44.34-.34,1.3-1.27.55-.54.34-.35,1.83-1.81.35-.35,1.83-1.82.35-.35,1.84-1.82.34-.34,1.83-1.82.35-.35.92-.91.91-.92.34-.34,1.82-1.84.35-.34,1.82-1.84.34-.34,1.82-1.84.35-.35,1.82-1.83.34-.35.54-.54,1.28-1.3.34-.35c.61-.61,1.21-1.22,1.81-1.84l.34-.35c.61-.61,1.21-1.23,1.81-1.85.11-.11.23-.23.33-.35q.93-.93,1.8-1.86a.19.19,0,0,0,.09-.09v-.16A1.37,1.37,0,0,0,300.16,270.25Zm0,4.31-1.84,1.8-.35.35c-.62.59-1.23,1.2-1.85,1.81l-.35.33-1.3,1.28-.54.54-.35.34-1.83,1.82-.35.35L289.52,285l-.34.34-1.84,1.82-.34.35-1.84,1.82-.34.34-.92.91-.91.92-.35.35-1.82,1.83-.34.35-1.82,1.83-.34.35-1.82,1.84-.35.34-1.81,1.84-.35.34-.54.55c-.43.43-.85.86-1.27,1.3-.12.11-.23.22-.34.34-.61.61-1.21,1.23-1.81,1.85-.12.12-.24.23-.34.35-.43.42-.84.85-1.25,1.28v.32l1.44-1.41c.12-.1.23-.22.35-.34.62-.6,1.24-1.2,1.85-1.81l.34-.34,1.3-1.27.55-.54.34-.35,1.84-1.81.34-.35,1.84-1.82.35-.35,1.83-1.82.34-.34,1.84-1.82.35-.34.91-.91.92-.92.34-.35,1.82-1.83.34-.35,1.82-1.83.34-.35,1.83-1.83.34-.35,1.82-1.84.35-.34.54-.55c.43-.43.85-.87,1.27-1.3l.34-.34c.61-.61,1.21-1.23,1.81-1.85.12-.12.24-.23.34-.35l1.81-1.85.05,0v-.31Zm0,4.31-1.86,1.83-.33.32-1.31,1.28-.55.55-.34.33L293.87,285l-.33.33-1.85,1.83-.33.33-1.85,1.83-.33.33-1.85,1.84-.33.33-.93.92-.91.92-.33.33L283,295.86l-.33.33L280.83,298l-.33.33-1.84,1.86-.33.33-1.83,1.85-.88.88c-.43.44-.86.87-1.28,1.31l-.32.33c-.62.62-1.22,1.24-1.83,1.86l-.32.33L270,309l-.32.33c-.43.44-.86.88-1.28,1.33v.2l1.43-1.38.33-.32,1.87-1.83.33-.33,1.86-1.83.33-.32,1.3-1.28.56-.55.32-.33,1.85-1.83.34-.33,1.85-1.84.33-.32,1.85-1.84.33-.33,1.85-1.83.33-.33.93-.92.92-.92.32-.33,1.84-1.86.33-.32,1.84-1.86.32-.32,1.84-1.86.33-.33,1.84-1.85.32-.33.55-.55c.43-.44.86-.87,1.28-1.31l.33-.33,1.82-1.86,0,0v-.4A2.13,2.13,0,0,0,300.11,278.87Zm.22,4.55V283l-.23.23-1.32,1.29-.56.55-.31.32L296,287.2l-.32.31-1.86,1.86-.31.31-1.87,1.85-.32.31-1.86,1.85-.32.32-.93.92-.93.94-.31.31-1.85,1.87-.31.31L283,300.23l-.32.31-1.85,1.87-.32.31-1.85,1.87-.31.31-.55.56c-.43.44-.87.88-1.29,1.32l-.31.31c-.62.62-1.23,1.25-1.84,1.88a3.11,3.11,0,0,0-.31.32c-.62.62-1.24,1.25-1.85,1.88l-.3.32c-.36.36-.71.72-1.06,1.09h.23c.33-.31.65-.63,1-.95l.32-.3,1.88-1.85a3.11,3.11,0,0,0,.32-.31c.63-.61,1.26-1.22,1.88-1.84.11-.1.21-.2.31-.31.44-.42.88-.86,1.32-1.29l.56-.55.31-.31,1.87-1.86.31-.31,1.87-1.86.31-.3,1.87-1.86.31-.31,1.87-1.85.31-.31.94-.93.93-.93.31-.32,1.85-1.87.31-.31,1.86-1.87.3-.3,1.86-1.87.31-.32,1.85-1.87.32-.31.55-.56,1.28-1.3s0,0,0,0Zm0,4.33v-.48l-.24.24-1.89,1.87-.3.3L296,291.54l-.3.3-1.88,1.87-.3.29-1.88,1.87-.3.3-.94.93-.94.95-.29.29-1.87,1.89-.29.29-1.87,1.89-.29.29L283,304.59l-.29.3-1.87,1.88-.29.3-.57.57-1.3,1.32-.29.3q-.94.94-1.86,1.89l-.29.3-1.12,1.13h.36l.95-.93.3-.3c.64-.61,1.27-1.23,1.9-1.86l.3-.28,1.32-1.3.57-.57.3-.29,1.88-1.87.3-.29,1.89-1.88.29-.29,1.89-1.87.29-.29,1.88-1.87.3-.3.94-.93.94-.94.29-.3,1.88-1.89.29-.29,1.87-1.89.29-.29L298.2,290l.3-.29,1.83-1.85,0,0Zm0,4.33v-.48l-.25.24-1.9,1.89-.28.27-1.9,1.89-.28.27-1.9,1.89-.28.28-1,.94-.95,1-.27.27-1.89,1.91-.27.27-1.89,1.9-.27.28-1.89,1.91-.29.28L283,309l-.28.28-.57.58c-.44.44-.87.88-1.3,1.33a3.7,3.7,0,0,0-.28.28c-.38.38-.76.77-1.13,1.16h.43c.32-.3.63-.61.94-.92a3.7,3.7,0,0,0,.28-.28l1.33-1.3.58-.58.28-.27,1.9-1.89.28-.27,1.91-1.9.27-.27,1.91-1.89.27-.27,1.91-1.89.27-.27,1-.95.94-.95.28-.28,1.89-1.91.27-.27,1.89-1.91.27-.27,1.84-1.85.05-.05Zm-.23,4.08-1.94,1.92-.24.24L296,300.24l-.26.26-1,.95-1,1-.25.25-1.92,1.93-.24.24-1.92,1.94-.24.24L287.31,309l-.25.25-1.92,1.93-.24.24-.59.6-.59.6h.52l.34-.33.6-.59.24-.24,1.94-1.92.24-.25,1.95-1.92.24-.24,1.94-1.92.24-.24,1.94-1.93.24-.23,1-1,1-1,.24-.24,1.93-1.94.24-.24,1.84-1.86v-.62Zm.21,4.11-.2.2-2,2-.2.2-1,1-1,1-.2.2-2,2-.2.2-2,2-.2.2-2,2-.21.21-1.21,1.22h.56l.95-.93.2-.2,2-2,.19-.2,2-2,.2-.2,2-2,.2-.19,1-1,1-1,.2-.2,1.86-1.87v-.65Zm0,4.36-.16.16-1,1-1,1L298,307l-2,2-.15.16-2,2-.15.15-1.25,1.26h.6l1-.95.14-.14,2-2,.15-.15,2-2,.14-.14,1-1,.87-.88v-.69Zm-.12,4.47-2.08,2.09-.09.09-1.28,1.3h.63l1-1,.07-.07,1.93-1.91v-.69ZM298.62,268H298l0,0,.09.09,2.08,2.09.08.08.09.09v-.69Zm.84,5.16-1-1-.14-.14-2-2-.15-.15L294.26,268h-.62l.14.14,2,2,.16.16,2,2,.15.15,1,1,1,1,.16.15.05.05v-.68Zm-1,3.36-.19-.2-1-1-1-1-.19-.2-2-2-.2-.2-2-2-.2-.19L289.9,268h-.58l.15.15,2,2,.2.21,2,2,.21.21,2,2,.2.2,1,1,1,1,.2.2,2,2,.2.21h0v-.65Zm0,4.38-.24-.24-1.93-1.94-.24-.24-1-1-1-1-.24-.23L292,274.42l-.24-.24-1.94-1.92-.25-.24-1.94-1.92-.24-.25L285.53,268l-.11-.11-.11.11H285l.16.17,1.92,1.93.25.25,1.92,1.94.25.24,1.92,1.94.24.24,1.92,1.93.25.25,1,1,1,1,.25.25,1.94,1.92.24.25,1.94,1.92.23.23v-.62Zm1.84,6.22-1.83-1.85-.28-.28-1.89-1.9-.27-.28-1.89-1.9-.28-.28-.94-.95-1-1-.27-.27-1.91-1.89-.27-.27-1.91-1.89-.28-.28-1.9-1.89-.28-.27-1.9-1.89-.28-.27-.58-.58L281.16,268l-.08-.08L281,268h-.34a1.37,1.37,0,0,0,.17.17c.43.45.86.89,1.3,1.33l.57.58.28.28,1.89,1.9.28.28,1.88,1.9.28.28,1.89,1.9.28.28,1.88,1.9.28.28.94.95,1,.94.28.28,1.9,1.89.29.28,1.9,1.89.27.27,1.91,1.89.24.24v-.48l.05-.06Zm0,4.36-1.83-1.84-.3-.3-1.87-1.89-.29-.29-1.87-1.89-.3-.29L292,283.13l-.29-.3L289.83,281l-.3-.29-1.88-1.87-.29-.29-1.89-1.87-.3-.29-1.88-1.88-.3-.29-1.89-1.87-.29-.29-.57-.57-1.32-1.3-.3-.28L276.77,268s0,0,0-.05l-.05.05h-.3l.15.15c.61.64,1.23,1.27,1.86,1.9l.29.3,1.3,1.32.57.57.29.3,1.87,1.88.29.3,1.87,1.88.3.3,1.87,1.89.29.29,1.87,1.89.29.29.94.95.94.93.3.3,1.88,1.87.3.29,1.88,1.87.3.3,1.88,1.87.3.29,1.88,1.87.25.24v-.48l0,0Zm0,4.38-1.28-1.3-.87-.87-1.85-1.87-.31-.32-1.86-1.86-.3-.31L292,287.5l-.31-.32-1.86-1.87-.31-.31-.92-.93-.94-.93-.31-.31L285.48,281l-.31-.3-1.86-1.86-.32-.31-1.87-1.86-.31-.31-1.87-1.85-.87-.87-1.31-1.29-.32-.3-1.88-1.85-.32-.31L272.38,268l0,0,0,0h-.27l.13.14c.62.62,1.23,1.25,1.85,1.88l.31.32,1.84,1.88.31.31,1.29,1.31.87.87,1.85,1.87.31.32,1.85,1.87.32.31,1.85,1.87.31.31,1.85,1.87.31.31.93.94.93.92.31.32,1.87,1.85.32.31,1.87,1.86.31.3,1.86,1.86.32.31L297.9,294l.32.31.56.56,1.32,1.29.23.23v-.46h0S300.34,295.9,300.33,295.9Zm0,4.37-1.82-1.86-.33-.33c-.42-.44-.85-.87-1.28-1.31l-.55-.55-.33-.33L294.17,294l-.33-.33L292,291.85l-.32-.32-1.84-1.85-.33-.34-1.84-1.85-.33-.33-.91-.92-.93-.92-.33-.33-1.85-1.83-.33-.33L281.14,281l-.33-.32L279,278.83l-.34-.33-1.85-1.84-.32-.32-.56-.55-1.3-1.28-.33-.32q-.93-.93-1.86-1.83c-.11-.12-.23-.23-.34-.33l-1.86-1.83-.33-.32-1.43-1.38v.2c.42.45.85.89,1.28,1.33l.32.33,1.82,1.86.33.34c.61.62,1.21,1.24,1.83,1.86l.32.33c.42.44.85.87,1.28,1.31l.55.55.32.33,1.84,1.85.33.33L280.5,281l.33.33,1.83,1.85.33.33,1.84,1.85.32.32.92.93.93.92.33.33,1.85,1.83.33.33,1.85,1.84.33.32,1.85,1.84.34.33,1.84,1.83.34.33.55.55,1.31,1.28q.16.18.33.33l1.86,1.82a1.52,1.52,0,0,0,.22.22v-.4Zm0,4.36-1.81-1.85-.34-.34c-.59-.62-1.2-1.23-1.81-1.85l-.33-.35-1.28-1.3-.54-.54-.35-.35L292,296.22l-.34-.35L289.84,294l-2.17-2.17-.34-.35-1.82-1.84-.35-.34-.91-.92-.92-.91-.34-.34-1.84-1.82-.34-.34L279,283.18l-.35-.35L276.79,281l-.34-.35-1.84-1.82-.34-.34-.55-.54-1.3-1.27c-.11-.12-.22-.23-.34-.34-.61-.61-1.23-1.21-1.85-1.81l-.35-.35-1.44-1.4v.32c.41.43.82.85,1.24,1.27l.35.36,1.81,1.85.34.34c.42.44.84.87,1.27,1.3l.54.55.34.34,1.82,1.83.35.35,1.82,1.84.35.35,1.82,1.83.34.34,1.82,1.84.34.34.91.92.92.91.35.35,1.83,1.82.35.35,1.83,1.82.35.34,1.83,1.82.35.35,1.83,1.81.35.35.54.54,1.3,1.28.35.33c.62.61,1.23,1.22,1.85,1.81l.34.34,1.85,1.81.21.2v-.31Zm0,4.39q-.87-.93-1.8-1.86a3.73,3.73,0,0,0-.34-.35c-.59-.62-1.19-1.24-1.8-1.85l-.34-.35c-.6-.62-1.2-1.23-1.81-1.84l-.34-.35-1.28-1.3-.54-.54-.35-.35-1.81-1.84-.35-.34-1.82-1.84-.34-.34L285.5,294l-.34-.35-1.82-1.83-.35-.35-.91-.92-.92-.91-.34-.34L279,287.51l-.34-.34-1.83-1.82-.35-.35-1.84-1.82-.35-.35L272.44,281l-.34-.34-.55-.54-1.3-1.27-.34-.34-1.47-1.44v.43c.4.42.81.84,1.23,1.25l.34.34c.42.43.84.87,1.27,1.3l.54.55.34.34,1.82,1.84.35.34,1.82,1.84.34.35,1.82,1.83.34.35,1.83,1.83.33.35.92.92.91.91.35.34,1.84,1.82.34.35,1.84,1.82.34.34,1.84,1.82.34.35,1.84,1.81.35.35.54.54,1.3,1.28.35.33c.61.61,1.23,1.22,1.85,1.81.11.12.22.23.34.34.61.61,1.23,1.21,1.85,1.81l.35.34,1.86,1.8c0,.06.11.11.17.17v-.16A.19.19,0,0,0,300.24,309Zm-1.84,2.51c-.1-.12-.21-.23-.32-.34-.6-.63-1.21-1.25-1.81-1.87l-.33-.34-1.82-1.86c-.11-.11-.21-.22-.33-.33L292,304.93q-.15-.17-.33-.33c-.42-.44-.85-.87-1.28-1.31l-.88-.88-1.83-1.85-.33-.33-1.84-1.86-.32-.32-1.84-1.86-.33-.33L281.15,294l-.33-.33-.91-.92-.93-.92-.33-.33-1.85-1.83-.33-.33-1.85-1.84-.33-.33-1.85-1.83-.33-.33-1.85-1.84-.33-.33-.55-.54-.94-.92v.52l.66.67.55.55.32.33,1.85,1.85.32.33,1.84,1.85.33.33,1.84,1.86.32.32,1.84,1.85.33.33.92.93.92.92.33.32,1.85,1.84.33.33,1.86,1.84.32.32,1.86,1.84.33.33,1.85,1.83.33.33.55.55,1.31,1.28.33.33,1.86,1.82q.17.18.33.33c.62.61,1.24,1.22,1.87,1.82.11.12.22.22.33.33l1.87,1.81a3.33,3.33,0,0,0,.34.32c.33.34.67.66,1,1h.08Q298.92,312.06,298.4,311.53Zm-4.32,0c-.09-.11-.2-.21-.3-.32l-1.85-1.89-.3-.31-1.84-1.88-.31-.31-1.29-1.32-.56-.56-.31-.32-1.85-1.86-.31-.31-1.86-1.87-.3-.31-1.86-1.87-.31-.32L279,296.17l-.32-.31-.92-.93-.94-.93-.31-.31-1.87-1.85-.31-.31-1.87-1.85-.31-.32-1.87-1.85-.32-.31-1.5-1.49v.56l1.21,1.22.31.32,1.86,1.87.31.31,1.85,1.87.31.31,1.86,1.87.3.31.93.93.94.93.31.31,1.87,1.85.31.31,1.87,1.86.31.3,1.88,1.86.31.31,1.87,1.85.87.87c.44.43.88.87,1.32,1.29.1.11.2.21.31.31.62.62,1.25,1.24,1.88,1.84l.31.31,1.89,1.84.31.31,1,.95h.23C294.8,312.21,294.44,311.85,294.08,311.49Zm-4.32,0-.29-.3-1.87-1.9-.29-.29c-.42-.44-.86-.88-1.29-1.32l-.57-.57-.29-.3-1.87-1.88-.3-.3-1.87-1.89-.29-.29L279,300.52l-.3-.29-1.87-1.89-.29-.29-.94-.95-.94-.93-.3-.3L272.44,294l-.3-.29-1.88-1.87-.3-.3L268.44,290v.6l1.21,1.23.29.29,1.88,1.89.29.29,1.87,1.89.29.3.94.94.94.93.3.3,1.88,1.87.29.29,1.89,1.87.3.29,1.89,1.88.29.29,1.88,1.87.3.29.57.57,1.32,1.3.3.29,1.9,1.86.3.29.95.93h.36Zm-4.34,0-.28-.28c-.43-.45-.86-.89-1.3-1.33l-.57-.58L283,309l-1.88-1.9-.28-.28-1.89-1.9-.28-.28-1.89-1.91-.27-.27-1.89-1.91-.27-.27-.95-1-.95-.94-.28-.28-1.9-1.88-.28-.28-1.54-1.53V295l1.21,1.22.28.28,1.89,1.91.28.28.94.95.95.94.28.28,1.9,1.89.28.27,1.9,1.89.28.28,1.91,1.89.27.27,1.9,1.89.28.27.58.58,1.33,1.3.28.28.94.92h.44C286.19,312.19,285.81,311.8,285.42,311.42Zm-3.75.56-.59-.6-.24-.24-1.92-1.93-.25-.25L276.75,307l-.24-.24-1.92-1.94-.25-.24-1.92-1.94-.24-.24-1-1-1-1-.25-.25-1.56-1.55v.66l1.22,1.24.25.24,1,1,1,1,.24.24,1.94,1.93.24.23,1.94,1.93.24.24,1.94,1.93.24.23,1.94,1.93.24.24.6.59.34.33h.52Zm-4.95-.63-.2-.2-2-2-.2-.2-2-2-.21-.2-2-2-.2-.2-1-1-.61-.6v.7l.25.25,1,1,.19.19,2,2,.2.2,2,2,.19.19,2,2,.19.2.95.93h.57Zm-4.36,0-.16-.16-2-2L270,309l-1.6-1.62v.69l1.28,1.26.15.15,2,2,.14.14,1,.95h.6Zm-3.92.41v.64l.2.2h.63Z" style="fill:#a6a6a6;opacity:0.2"></path></g><g id="freepik--character-1--inject-113"><path d="M130,367.93l-17.47,35c-1.44,7.23-2.58,13.59-2.86,16.94,0,0,0,0,0,.06a5.31,5.31,0,0,0,.08,2.34s0,0,0,.05c1.86,1.89,59.32,15.12,61.48,14.9s1.72-6.38-.1-8.67-21.57-17.2-21.57-17.2l17.1-35.07Z" style="fill:#d3766a"></path><path d="M171.21,437.27c-2.15.21-59.61-13-61.47-14.91l0-.05a5.24,5.24,0,0,1-.09-2.34s0,0,0-.05c.28-3.35,1.42-9.72,2.86-17l3.28-6.6,37.15,8.16-3.35,6.87s19.72,14.9,21.55,17.2S173.38,437.06,171.21,437.27Z" style="fill:#c7c7c7"></path><path d="M171.22,437.27c-2.17.21-59.62-13-61.48-14.91-.73-.71.71-9.19,2.75-19.39l.06-.32,37.16,8.12-.15.62s19.72,14.9,21.56,17.2S173.38,437.06,171.22,437.27Z" style="fill:#FFC727"></path><path d="M171.22,437.27c-2.17.21-59.62-13-61.48-14.91-.73-.71.71-9.19,2.75-19.39l.06-.32,37.16,8.12-.15.62s19.72,14.9,21.56,17.2S173.38,437.06,171.22,437.27Z" style="opacity:0.1"></path><path d="M171.08,434.89c-9.63-2.47-48.71-11.51-58.41-13.22-.08,0-.09,0,0,.06,9.5,2.66,48.64,11.38,58.39,13.32C171.25,435.09,171.28,434.94,171.08,434.89Z" style="fill:#263238"></path><path d="M152.64,412.22c-3.64-1.59-8.44-2.07-12,0-.13.08,0,.27.11.26a55,55,0,0,1,11.75.25A.25.25,0,0,0,152.64,412.22Z" style="fill:#263238"></path><path d="M155,414.51c-3.64-1.59-8.44-2.07-12,0-.13.08,0,.27.11.26a55,55,0,0,1,11.75.25A.25.25,0,0,0,155,414.51Z" style="fill:#263238"></path><path d="M157.38,416.8c-3.64-1.58-8.44-2.07-12,0-.13.08,0,.28.11.26a55.63,55.63,0,0,1,11.75.25A.25.25,0,0,0,157.38,416.8Z" style="fill:#263238"></path><path d="M171.21,437.27c-.88.08-11-2.08-22.8-4.79l5.17-18c5.87,4.48,16.23,12.5,17.53,14.14C172.93,430.88,173.38,437.06,171.21,437.27Z" style="opacity:0.1"></path><path d="M112.6,400.24l42,10.6S198,331.69,197.1,313.73c-1.21-24.82-30.31-101-30.31-101H132s23.12,82.38,23.42,96.23C155.53,316.23,112.6,400.24,112.6,400.24Z" style="fill:#455a64"></path><path d="M156.42,402.31c-2.24-.89-22.24-6.67-37.17-9.82-.1,0-.12.12,0,.15,4.7,1.66,34.35,9.46,37.13,9.84C156.45,402.49,156.52,402.35,156.42,402.31Z" style="fill:#263238"></path><path d="M158.28,291.28c-2.77-11.63-5.69-23.22-8.85-34.75S143,233.38,139.31,222c-.45-1.4-.91-2.79-1.37-4.19a.18.18,0,0,0-.34.11c3.26,11.38,6.58,22.75,9.68,34.18s6.07,22.9,8.86,34.41q1,4.28,2,8.56a77.17,77.17,0,0,1,1.78,8.91,23,23,0,0,1-.58,8.58,48.7,48.7,0,0,1-3.09,8q-7.54,16.37-15.07,32.73c-5,10.94-10,21.89-14.82,32.93-.6,1.37-1.19,2.73-1.77,4.11,0,.09.09.17.14.08,5.5-10.81,10.53-21.88,15.63-32.88s10.25-22.14,15.35-33.22c2.29-5,5-10.1,5.34-15.7C161.44,302.74,159.61,296.88,158.28,291.28Z" style="fill:#263238"></path><path d="M157.07,381.77s1.35,38.54,1.35,38.57c.22,7.37.54,13.83,1,17.16a.11.11,0,0,0,0,.05,5.17,5.17,0,0,0,.61,2.26l.05.05c2.23,1.42,61.19,1.38,63.25.69s.24-6.61-2.05-8.43-24.88-11.91-24.88-11.91l-1.71-38.51Z" style="fill:#d3766a"></path><path d="M158.14,412.43s.28,7.88.28,7.91c.22,7.37.54,13.83,1,17.16a.11.11,0,0,0,0,.05,10.09,10.09,0,0,0,.61,2.26l.05.05c2.23,1.42,61.19,1.38,63.25.69s.24-6.61-2.05-8.43-24.88-11.91-24.88-11.91l-.17-8Z" style="fill:#c7c7c7"></path><path d="M223.36,440.55c-2.06.7-61,.73-63.26-.69-.86-.53-1.37-9.12-1.68-19.52,0-.11,0-.22,0-.32l38-.45v.64s22.57,10.08,24.87,11.91S225.42,439.86,223.36,440.55Z" style="fill:#FFC727"></path><path d="M223.36,440.55c-2.06.7-61,.73-63.26-.69-.86-.53-1.37-9.12-1.68-19.52,0-.11,0-.22,0-.32l38-.45v.64s22.57,10.08,24.87,11.91S225.42,439.86,223.36,440.55Z" style="opacity:0.1"></path><path d="M222.69,438.27c-9.94-.24-50-.27-59.89.25-.08,0-.08.06,0,.07,9.85.45,50,.15,59.89-.16C222.9,438.42,222.9,438.27,222.69,438.27Z" style="fill:#263238"></path><path d="M199.63,420.33c-3.91-.73-8.69-.13-11.68,2.66-.11.11,0,.27.17.23a55,55,0,0,1,11.5-2.4A.25.25,0,0,0,199.63,420.33Z" style="fill:#263238"></path><path d="M202.46,422c-3.92-.73-8.7-.13-11.68,2.66-.12.11,0,.27.16.23a55,55,0,0,1,11.5-2.4A.25.25,0,0,0,202.46,422Z" style="fill:#263238"></path><path d="M205.28,423.73c-3.91-.73-8.69-.13-11.68,2.66-.12.11,0,.27.17.23a54.87,54.87,0,0,1,11.49-2.4A.25.25,0,0,0,205.28,423.73Z" style="fill:#263238"></path><path d="M163.25,212.7a.16.16,0,0,1,0,0c-.15.71-8.84,35-9.92,35.69s31.55,44.84,35.44,66.5c2.49,13.85,10.76,103.26,10.76,103.26H155.16s-4.09-77.23-5.46-99.83C149.17,309.6,115,272,112.2,243c-.83-8.53,6.09-30.32,6.09-30.32Z" style="fill:#455a64"></path><path d="M154.11,376.83c-.5-11.36-1-22.74-1.78-34.08-.47-6.43-1.39-12.65-2-19.06,0-.34-.31-.42-.3-.07.3,11.41,1.24,22.69,1.85,34.08s1.19,22.73,1.83,34.09c.37,6.43.68,12.86,1.18,19.28,0,.1.16.1.16,0C155.05,399.66,154.6,388.23,154.11,376.83Z" style="fill:#263238"></path><path d="M188.81,315.41a59.56,59.56,0,0,0-1.74-8.88,44.74,44.74,0,0,0-3.39-8.16c-2.84-5.47-6.08-10.75-9.21-16.05s-6.37-10.73-9.67-16q-2.79-4.46-5.59-8.91c-1.9-3-3.91-5.93-5.87-8.88a.11.11,0,0,0-.19.11c3.2,5.36,6.36,10.74,9.56,16.1s6.35,10.74,9.5,16.13,6.21,10.59,9.18,16a55.73,55.73,0,0,1,3.76,8,48.2,48.2,0,0,1,2.11,8.78c1.11,6.95,2,13.93,3.42,20.83,0,.08.16.06.16,0C190.4,328,189.65,321.7,188.81,315.41Z" style="fill:#263238"></path><path d="M195.87,411c-2.39-.32-23.21-.94-38.44-.29a.08.08,0,1,0,0,.15c5,.44,35.62.63,38.42.31C195.94,411.12,196,411,195.87,411Z" style="fill:#263238"></path><path d="M158.78,246a78,78,0,0,0-12.33,5.74c-.15.09,0,.33.11.25,4.16-1.78,8.39-3.49,12.45-5.5A.27.27,0,0,0,158.78,246Z" style="fill:#263238"></path><path d="M160,217.56c0-.14-.26-.17-.26,0a138.34,138.34,0,0,1-.7,13.88c-.19,2.14-1.91,14-5.62,13.11-.62-.15-.94-.76-1-1.7a15.53,15.53,0,0,1,.49-3.62c.42-2.48.75-5,1-7.46a67.44,67.44,0,0,0-.15-14,.12.12,0,0,0-.24,0,127.21,127.21,0,0,1-1.13,19.31c-.46,3.08-2,7.71,1.2,8.18s5.4-7.27,5.8-9.39A70.62,70.62,0,0,0,160,217.56Z" style="fill:#263238"></path><path d="M153.55,244.84a19.67,19.67,0,0,0-.84,2.45,5.43,5.43,0,0,0-.34,2c0,.13.18.14.25.05a6.76,6.76,0,0,0,.86-2c.29-.75.59-1.51.85-2.27A.42.42,0,0,0,153.55,244.84Z" style="fill:#263238"></path><path d="M157.82,367.92q-1.23-19.31-2.53-38.61c-.39-5.83-.37-12-2.85-17.41a59.24,59.24,0,0,0-4.54-7.57q-2.55-3.88-5-7.82C136.29,286,130,275.36,124.22,264.4a71.39,71.39,0,0,1-6.73-16.54,52.73,52.73,0,0,1-.76-18.66c.19-1.55.4-3.09.66-4.63,0-.12-.15-.16-.17,0a61.36,61.36,0,0,0-1.38,18.07,50.53,50.53,0,0,0,4.82,16.64c2.54,5.5,5.57,10.8,8.55,16.08q4.62,8.16,9.51,16.16c3.24,5.3,6.66,10.49,10.05,15.7a30.28,30.28,0,0,1,4,8,43.21,43.21,0,0,1,1.28,9.12q1.25,19.37,2.49,38.73c.86,12.87,1.62,25.76,2.77,38.6.15,1.63.29,3.26.44,4.9,0,.14.24.14.23,0C159.47,393.66,158.64,380.78,157.82,367.92Z" style="fill:#263238"></path><path d="M132.26,224c0-.09-.15-.06-.16,0-.12,3.58,0,7.28-1.4,10.67a14.54,14.54,0,0,1-6.65,6.92,51.19,51.19,0,0,1-5.1,2.5c-.13.06-.08.26.06.21,3.31-1,6.67-2.19,9.41-4.39a12.25,12.25,0,0,0,4.37-9.47A31.94,31.94,0,0,0,132.26,224Z" style="fill:#263238"></path><path d="M160.79,173.57a130.67,130.67,0,0,0,17.87,37.35c7.73,10.18,46.83,4.31,54.24,2.56,3-.71-5.47-23.42-8.73-24.22-2.26-.55-30,6.08-31.19,4.44-.86-1.15-14.32-15.46-21.59-24.46C161.13,156.54,159.4,168.64,160.79,173.57Z" style="fill:#d3766a"></path><path d="M232.9,213.48c3.19-.29,17.87-2.84,21.73-4.48s14.65-7.13,13.7-10.22-4.23-1.73-4.23-1.73,4.18-3,2.94-6.06-6.28-.74-6.28-.74,4.07-3.44,2.62-6.37-6.14.22-6.14.22,3.87-3,1.66-4.87c-2.65-2.3-9.17,4-13.57,5.47-1,.33-20.75,5.37-20.75,5.37Z" style="fill:#d3766a"></path><path d="M257.65,183.84c-4.8,4.61-7.7,5.8-14.11,7.11-.13,0-.12.22,0,.21,6.41-.72,10.26-1.68,14.34-7.1C258.09,183.8,257.88,183.62,257.65,183.84Z" style="fill:#263238"></path><path d="M261.14,189.88c-5.41,4.35-8.54,5.66-15.16,7.54-.09,0-.06.18,0,.17,6.65-1.3,10.47-2.35,15.29-7.41C261.53,190,261.38,189.68,261.14,189.88Z" style="fill:#263238"></path><path d="M263.76,197.14c-5.54,3.83-8.91,5.42-15.57,6.42a.12.12,0,1,0,0,.24c6.89-.35,11.11-2.3,15.64-6.48C264.16,197,264.1,196.9,263.76,197.14Z" style="fill:#263238"></path><path d="M220.47,190.84s4.84-6.79,7.63-9.3,16.61-8.06,18-5.14c1.76,3.77-5.59,8.54-9.5,10.41,0,0,4.09,8.71-.44,13.28S220.47,190.84,220.47,190.84Z" style="fill:#d3766a"></path><path d="M246.22,177.59c-.87,4.6-6.15,6.72-9.81,8.82a.37.37,0,0,0-.08.62c1.47,3.77,2.45,9.51.07,13.06a.1.1,0,0,0,.16.12c3.06-3.46,2.56-9.18.68-13.2,3.78-2.09,9-4.45,9-9.41A0,0,0,0,0,246.22,177.59Z" style="fill:#263238"></path><path d="M169,197.53l19.24-10.15a16,16,0,0,0-1.22-6.15c-1.25-2.49-11.25-12-17.44-16.3-5.76-4-12-3.7-9.16,10,2.91,14.09,4.11,18,5,19.94S169,197.53,169,197.53Z" style="fill:#FFC727"></path><path d="M187.1,185.41s0-.07,0,0q-9.81,4.32-19.2,9.51c-.08,0,0,.18.07.14C174.48,192.12,180.85,188.9,187.1,185.41Z" style="fill:#263238"></path><path d="M178.91,192.28,169,197.53s-2.64-.74-3.55-2.66-2.12-5.85-5-19.94c-1.06-5.13-.85-8.38.13-10.23Z" style="fill:#263238"></path><path d="M113.05,233.13l62.15,2.58c.27-.25,2.6-1.16,2.24-9.66-.81-19.35-7.13-54-11-61.42a12.59,12.59,0,0,0-16.94-5.84c-3.52,2-6.79,4.72-11,10.52C128.15,183.56,116.69,209,112.66,223,111,228.87,112.92,233,113.05,233.13Z" style="fill:#FFC727"></path><path d="M173.13,189.68q-.51-2.6-1.06-5.18c-.13-.6-.29-1.19-.43-1.79a37.28,37.28,0,0,0-.43-5.16c0-.05-.09,0-.09,0a28.1,28.1,0,0,0,.17,3.67c-.55-2.3-1.15-4.58-1.82-6.84a0,0,0,1,0-.07,0q.91,5.16,2,10.27l1.11,5c.37,1.72.89,3.4,1.25,5.12,0,.09.17.05.15,0C173.63,193.1,173.46,191.38,173.13,189.68Z" style="fill:#263238"></path><path d="M147.06,169.49a105.13,105.13,0,0,1-37.65,23.68C97.1,197.3,71.59,190,64.84,187.05c-2.92-1.27,10-22.46,13.18-23.69,0,0,26.59,4.89,28.62,4.45,1.42-.31,21.39-4.07,33.66-7.81C156.16,155.17,150.77,165.84,147.06,169.49Z" style="fill:#d3766a"></path><path d="M48.83,178.23c4.38,4.34,16.82,9.71,20.32,9.86s11.9-19.56,10.27-22.76-16.08-17.82-22.34-18.49S44.29,173.73,48.83,178.23Z" style="fill:#d3766a"></path><path d="M57.21,323.29,51,323.08,57,144c.11-3.37-.74-6.17-2.47-8.1a7.74,7.74,0,0,0-5.51-2.6c-3.72-.12-7.57,2.49-7.78,8.6L41,147l-6.26-.21.17-5.16c.33-9.92,7.42-14.88,14.25-14.65a14.12,14.12,0,0,1,10,4.67c2,2.21,4.28,6.16,4.07,12.5Z" style="fill:#FFC727"></path><polygon points="59.62 330.43 48.07 330.05 49.44 315.91 59.2 316.23 59.62 330.43" style="fill:#FFC727"></polygon><polygon points="59.62 330.43 48.07 330.05 49.44 315.91 59.2 316.23 59.62 330.43" style="opacity:0.2"></polygon><path d="M66.5,149.8c.8,3.17-3.39,2.29-3.39,2.29s5.73,2.72,5.29,6.3-5.47,2.22-5.83,2.14c.3.14,5.5,2.78,4.69,6.34s-5.69,1.58-6,1.45c.24.22,3.39,3.29,2.15,5.85-2.12,4.4-10.38-3.21-14.32-2.88,0,0-.21,6.74-.26,6.94,0,0-8-7.09-8.15-12.43a3.41,3.41,0,0,1,2.54-3.44s-2.84-2-2.28-4.82c.29-1.45,2.86-2.28,2.86-2.28a4.27,4.27,0,0,1-1.55-4.17c.51-2,3-2.5,3-2.5s-1.36-2.61-.18-4.46C47.45,140.38,64.79,143,66.5,149.8Z" style="fill:#d3766a"></path><path d="M45.64,148.44c-.06,0-.06-.08,0-.09a30.48,30.48,0,0,1,17.7,3.76c.17.1.08.42-.13.35A62.41,62.41,0,0,0,45.64,148.44Z" style="fill:#263238"></path><path d="M43.72,155.21c-.07,0-.06-.11,0-.12a28.43,28.43,0,0,1,19.05,5.31c.19.14.22.46,0,.31C58.9,158.18,49.38,155.58,43.72,155.21Z" style="fill:#263238"></path><path d="M61.54,168.74c-5.42-3.84-11.54-5.56-18.07-6.42-.09,0-.06-.13,0-.14,3.31-.45,7.42.53,10.55,1.57a17.55,17.55,0,0,1,7.65,4.8C61.76,168.64,61.66,168.83,61.54,168.74Z" style="fill:#263238"></path><path d="M63.11,152.09a20.27,20.27,0,0,1,3,2.14,6.79,6.79,0,0,1,2.06,2.83,2.23,2.23,0,0,1-.09,1.57,3.1,3.1,0,0,1-1,1.25,3.87,3.87,0,0,1-3.16.39l-2.59-.67,2.2,1.54A11.08,11.08,0,0,1,66,163.59a3.93,3.93,0,0,1,.89,3.08,2.24,2.24,0,0,1-2.09,1.9,6.8,6.8,0,0,1-3.32-.73l-2.88-1.33,2.28,2.19a10.47,10.47,0,0,1,1.64,2.05,4.3,4.3,0,0,1,.72,2.35,2,2,0,0,1-1.2,1.76,4.53,4.53,0,0,1-2.5,0,34.29,34.29,0,0,1-5.15-1.94c-.86-.36-1.71-.73-2.59-1a6.44,6.44,0,0,0-2.73-.55,7,7,0,0,1,2.63.79c.84.38,1.66.81,2.49,1.24a29.4,29.4,0,0,0,5.16,2.25,5.23,5.23,0,0,0,3,.13,2.88,2.88,0,0,0,1.86-2.53,5.19,5.19,0,0,0-.81-2.93,11.14,11.14,0,0,0-1.8-2.31l-.6.86a7.74,7.74,0,0,0,3.91.89,3.21,3.21,0,0,0,2-.87,3.7,3.7,0,0,0,1-1.92,5,5,0,0,0-1.12-3.9A11.9,11.9,0,0,0,64,160.33l-.39.86a4.65,4.65,0,0,0,3.88-.69,3.88,3.88,0,0,0,1.2-1.61,2.84,2.84,0,0,0,0-2,6.93,6.93,0,0,0-2.41-2.9A17,17,0,0,0,63.11,152.09Z" style="fill:#263238"></path><path d="M78,163.36s-8.81-25.57-16.82-17.47c-2.38,2.4-9.29,15.13-6.76,16.57,3.27,1.85,7.14-2.92,9.1-6.31,0,0,1.74,8.82,8.25,9.44A7.38,7.38,0,0,0,78,163.36Z" style="fill:#d3766a"></path><path d="M61.91,145.26a13.48,13.48,0,0,0-2.73,2.91A30.54,30.54,0,0,0,57,151.55a46.06,46.06,0,0,0-3.32,7.32,8,8,0,0,0-.41,2.08,2.85,2.85,0,0,0,.21,1.2,2,2,0,0,0,.35.57,2,2,0,0,0,.53.41,3.37,3.37,0,0,0,2.31.34,6.32,6.32,0,0,0,2-.85,12.13,12.13,0,0,0,3-2.85,28.58,28.58,0,0,0,2.23-3.38l-.86-.16a15.58,15.58,0,0,0,1,2.91,14.52,14.52,0,0,0,1.5,2.66A10.14,10.14,0,0,0,67.69,164a7.68,7.68,0,0,0,2.68,1.34,9,9,0,0,1-2.48-1.59,10.78,10.78,0,0,1-1.84-2.25,14.73,14.73,0,0,1-1.29-2.61,16.53,16.53,0,0,1-.77-2.79l-.2-1.17-.65,1a28.87,28.87,0,0,1-2.25,3.18,11.6,11.6,0,0,1-2.76,2.58,3.29,3.29,0,0,1-3.18.5c-.81-.39-.57-1.82-.22-3s.85-2.46,1.34-3.68,1-2.43,1.59-3.62A25.14,25.14,0,0,1,61.91,145.26Z" style="fill:#263238"></path><path d="M117.3,164.85l8.75,21.54a42.31,42.31,0,0,0,6.43-1.67c2.61-1,12.92-10.89,16.91-16.65s5.15-11-8.76-9.52c-14.31,1.51-18.34,2.31-20.34,3S117.3,164.85,117.3,164.85Z" style="fill:#FFC727"></path><path d="M139.75,179.34l-.61.41c.32-.32.65-.63,1-1,1.21-1.27,2.32-2.61,3.48-3.93,0,0,0-.08-.06-.05-1.19,1.17-2.45,2.27-3.66,3.42s-2.4,2.32-3.62,3.46a14.45,14.45,0,0,1-3.7,2.71,17.6,17.6,0,0,1-2.23.84,22.74,22.74,0,0,1-2.26.71.08.08,0,0,0,0,.15c.79-.16,1.59-.2,2.37-.37a11.93,11.93,0,0,0,2.24-.72,12.47,12.47,0,0,0,3.65-2.58l2-1.86.43-.25c.4-.24.79-.49,1.18-.75.75-.53,1.47-1.08,2.17-1.66,0,0,0-.11-.06-.08Z" style="fill:#263238"></path><path d="M119.09,164.6s-.06,0,0,0c2.36,6.75,5,13.38,8,19.89,0,.07.17,0,.14-.06C124.79,177.71,122.08,171.1,119.09,164.6Z" style="fill:#263238"></path><path d="M158.74,170.89c-1-.34-5.91-7.38-6.7-11.94a68.31,68.31,0,0,1,2.79-6.24c.9-2,1.85-4.24,2.57-6.35.14-.43,1.35.87,1.35.87l2.5,1.59,8.29,5.27a35.76,35.76,0,0,0-4,7.67,5,5,0,0,0-.2.9,1.31,1.31,0,0,1,0,.15C165,164.54,160.32,171.44,158.74,170.89Z" style="fill:#d3766a"></path><path d="M165.29,162.66a1.31,1.31,0,0,1,0,.15,10.38,10.38,0,0,1-1.39-.4c-8.84-3.24-6.09-14.95-6.09-14.95l3.47,1.36,8.29,5.27a35.76,35.76,0,0,0-4,7.67A5,5,0,0,0,165.29,162.66Z" style="fill:#263238"></path><path d="M160.18,130.81c-2.78,4.38-4.06,18.89-1.51,22.9,3.7,5.83,11.65,8.48,17.08,3.6,5.26-4.73,6.59-23.67,3.56-27.51C174.86,124.13,164.28,124.34,160.18,130.81Z" style="fill:#d3766a"></path><path d="M171.37,142.79s-.08,0-.08.08c-.06,1-.3,2.09-1.21,2.33,0,0,0,.06,0,.06C171.17,145.21,171.47,143.73,171.37,142.79Z" style="fill:#263238"></path><path d="M170.59,141.69c-1.56-.27-2,2.87-.53,3.12S171.9,141.91,170.59,141.69Z" style="fill:#263238"></path><path d="M177,143.7s.07.05.06.09c-.16,1-.18,2.11.66,2.55,0,0,0,.06,0,0C176.63,146.1,176.67,144.59,177,143.7Z" style="fill:#263238"></path><path d="M178,142.8c1.58.09,1.29,3.24-.18,3.16S176.66,142.72,178,142.8Z" style="fill:#263238"></path><path d="M169.54,140.09a10.76,10.76,0,0,0,1.28-.27,2,2,0,0,0,1.24-.52.65.65,0,0,0,0-.81,1.64,1.64,0,0,0-1.63-.39,2.4,2.4,0,0,0-1.54.86A.71.71,0,0,0,169.54,140.09Z" style="fill:#dbdbdb"></path><path d="M179.4,141.38c-.42-.13-.79-.32-1.2-.49a2.07,2.07,0,0,1-1.13-.73.67.67,0,0,1,.14-.81,1.66,1.66,0,0,1,1.68-.09,2.47,2.47,0,0,1,1.36,1.12A.72.72,0,0,1,179.4,141.38Z" style="fill:#dbdbdb"></path><path d="M169.27,151.7c.21.26.4.6.75.68a2.6,2.6,0,0,0,1.07-.11,0,0,0,0,1,0,.06,1.32,1.32,0,0,1-1.31.36,1.05,1.05,0,0,1-.65-1A.05.05,0,0,1,169.27,151.7Z" style="fill:#263238"></path><path d="M170.68,148.92a3.31,3.31,0,0,0,2,1.77,4.24,4.24,0,0,0,1.18.21h.45a.24.24,0,0,0,.22-.19h0a.31.31,0,0,0,0-.1h0v-.08c.12-.75.2-1.9.2-1.9.25.18,1.56,1,1.59.6a50.29,50.29,0,0,0,0-10.19c0-.11-.18-.11-.18,0-.35,3.12-.15,6.29-.46,9.44a5.51,5.51,0,0,0-1.5-.68c-.11,0-.11,2.22-.19,2.55v0a4.68,4.68,0,0,1-3.29-1.52C170.72,148.78,170.63,148.84,170.68,148.92Z" style="fill:#263238"></path><path d="M173.49,150.46a3.91,3.91,0,0,1-1.74,1,1.75,1.75,0,0,1-1.08-.07c-.75-.31-.67-1-.45-1.62a4.22,4.22,0,0,1,.47-.88A5.15,5.15,0,0,0,173.49,150.46Z" style="fill:#263238"></path><path d="M171.75,151.47a1.75,1.75,0,0,1-1.08-.07c-.75-.31-.67-1-.45-1.62A1.84,1.84,0,0,1,171.75,151.47Z" style="fill:#ff97b8"></path><path d="M174.73,148.48a3.73,3.73,0,0,1,1.85,1.66c.38.63.85,1.83.6,1.85-.92.06-3.42-1.67-3.64-1.76s-4.1-.15-4.76-1.29c-.26-.45,2.91-1.25,3.54-1.19a4.57,4.57,0,0,1,1.82.61A3.57,3.57,0,0,1,174.73,148.48Z" style="fill:#dbdbdb"></path><path d="M180.75,134.84c-.36-1.31-.5-3.78-1.71-4.36-.87-.42-1.53,1.34-3.23,1.23-2.31-.16-3.44-2.37-6.6-3-4.54-.94-6.48,4-7.46,10.52-.88,5.79-4.46,5.87-4.46,5.87s-.41-13.09,3.77-16.84,12.71-4.51,17.72.28C180.61,130.26,180.75,134.84,180.75,134.84Z" style="fill:#dbdbdb"></path><path d="M160.07,122.81a1.36,1.36,0,1,0,1.48-1.22A1.36,1.36,0,0,0,160.07,122.81Z" style="fill:#37474f"></path><path d="M158.24,135.33c.65-.49,9.39-5.3,11.49-5.47a64.53,64.53,0,0,1,9.89.71c1.29.27,3.75-1.53,3.24-2.94-.6-1.63-4.79-2.29-7.43-3.06s-10.23-2.85-14.71-.87c-3.43,1.51-7.7,5-7.22,8C154,134.42,158.24,135.33,158.24,135.33Z" style="fill:#455a64"></path><path d="M159.94,143s-2-5.29-4.31-4.7-1.64,7.71.53,9.21a2.5,2.5,0,0,0,3.59-.47Z" style="fill:#d3766a"></path><path d="M155.88,140.29s-.06,0,0,.06A6.37,6.37,0,0,1,158,145a1.39,1.39,0,0,0-1.92-.88c-.05,0,0,.1,0,.1a1.55,1.55,0,0,1,1.52.94,8.21,8.21,0,0,1,.44,1.54c0,.17.33.15.32,0v0C159,144.51,158.12,141.09,155.88,140.29Z" style="fill:#263238"></path><g style="opacity:0.2"><path d="M174,135.77a12.28,12.28,0,0,0,1.58.32c.54,0,1.09,0,1.63.06a8.84,8.84,0,0,1,2.89,1c.09,0,.06.1,0,.06a7.47,7.47,0,0,0-3.1-.84,9.39,9.39,0,0,1-2.64-.3,9.65,9.65,0,0,0-5.94-.15s0,0,0,0A9.58,9.58,0,0,1,174,135.77Z"></path><path d="M174.19,134.34a12.28,12.28,0,0,0,1.49.3c.52.05,1,0,1.55.06a8.25,8.25,0,0,1,2.74,1c.08,0,.06.09,0,.05a7.2,7.2,0,0,0-2.94-.79,9.62,9.62,0,0,1-2.51-.28,9.11,9.11,0,0,0-5.63-.15s0,0,0,0A9.21,9.21,0,0,1,174.19,134.34Z"></path></g><path d="M165.26,162.74l-5.5,7.06-7-12.86L149,159.37s5.11,18.72,5.38,18l5.22-5.92,3.37,6.11,3-12.07Z" style="fill:#fff"></path><path d="M164.83,171.7c.44-2,.93-4,1.27-6,0-.07-.09-.13-.13-.06-.94,1.8-2.55,9.49-3.08,11.3v0c-.14-.26-3.19-5.44-3.25-5.39-1,.89-4.84,5.19-5.13,5.6-.81-3-4-13.87-5.16-16.78a.07.07,0,0,0-.14,0c.59,3.06,4.8,17.68,4.93,17.68a78.31,78.31,0,0,0,5.48-6.26c.46,1.07,3.41,6.77,3.5,6.48A64,64,0,0,0,164.83,171.7Z" style="fill:#263238"></path></g><g id="freepik--character-2--inject-113"><path d="M333.29,126.58c7.38,3,12.45,10.91,12.45,10.91s8.61,6.5,9.16,11.75a9.23,9.23,0,0,1-3,8l-.59-2.79s-.28,4-5.32,7.7-13.17,5.06-17.84,4.73a16.09,16.09,0,0,1-7.75-2.61l3,3.15a12.06,12.06,0,0,1-11.16-2.35c-5.65-4.42.14-16.62.17-18.74s-4.43-15.58,10.24-19.08C322.67,127.27,328.2,124.51,333.29,126.58Z" style="fill:#c7c7c7"></path><path d="M353.74,156.09a9.5,9.5,0,0,0,2-5.32,8.64,8.64,0,0,0-1.29-5.5,19.33,19.33,0,0,0-5-4.71c-1.91-1.41-3.92-2.68-5.8-4.12-.1-.08,0-.24.13-.18a52.6,52.6,0,0,1,5.29,3.06,24.87,24.87,0,0,1,4.62,3.48,9.27,9.27,0,0,1,2.64,4.54,9,9,0,0,1-.2,4.32,19,19,0,0,1-2.31,4.51C353.81,156.27,353.67,156.17,353.74,156.09Z" style="fill:#c7c7c7"></path><path d="M308.61,159.63c-.37-5.49,2.67-10.35,3.54-15.64.48-2.86.53-5.83,1.55-8.58,0-.07.16,0,.13.05-.77,2.41-.76,4.91-1,7.4a37.37,37.37,0,0,1-1.71,7.37c-1.35,4.4-3,9.62-.46,13.93,1.17,2,3.4,3.8,5.83,3.55.1,0,.1.15,0,.15a7.35,7.35,0,0,1-5.36-2.21A9.33,9.33,0,0,1,308.61,159.63Z" style="fill:#c7c7c7"></path><path d="M309,161a9.54,9.54,0,0,1-1-5.72,13.67,13.67,0,0,1,2.39-5.3c1.24-1.86,2.59-3.7,2.92-6,0-.09.16-.06.15,0-.48,3.7-3.19,6.47-4.36,9.92-1.34,3.93.41,8.12,3.53,10.67a15.75,15.75,0,0,0,6.68,3.06s0,.08,0,.07C315.12,167,310.9,164.93,309,161Z" style="fill:#c7c7c7"></path><path d="M335.67,177.64c-7.38,16.84-22.45,44.27-33.42,46.56-8.81,1.84-31.92-5.36-42.32-9.93-3-1.3,12.24-22.37,15.61-21.56,6.12,1.48,18.9,7.25,21.42,6.64,4.19-1,18.32-16.55,27.29-25.37C336.19,162.23,340.71,166.16,335.67,177.64Z" style="fill:#f7a9a0"></path><path d="M250.68,201.42c.84,1.43.09,1.88-2.66.8s-12.71-7.71-14.73-4,12.18,12.82,16.9,14.27S263,214.6,263,214.6C260.64,212.27,255.34,206.05,250.68,201.42Z" style="fill:#f7a9a0"></path><path d="M278.18,195.11c-7-6.32-15.37-14.62-25.81-16.76a5.35,5.35,0,0,0-3.44.37c-4.66-1-6.55.85-6.55.85-4.64.36-6.31,2.56-6.31,2.56s-5.48-1.16-6.74,2c-1.41,3.59,6.57,4.52,10.65,7.71,9.34,7.32,20.58,20.34,23.06,22.72Z" style="fill:#f7a9a0"></path><path d="M255.16,192.67a76.14,76.14,0,0,0-8.54-5.94,76.92,76.92,0,0,0-10.49-4.48.09.09,0,0,1,.05-.18,40.33,40.33,0,0,1,19.08,10.48C255.38,192.67,255.31,192.78,255.16,192.67Z" style="fill:#263238"></path><path d="M260.4,187.67c-2.83-1.89-7.82-5.18-18-8,0,0,0-.07,0-.06a36.24,36.24,0,0,1,18.13,7.92C260.66,187.67,260.59,187.8,260.4,187.67Z" style="fill:#263238"></path><path d="M263.17,184.94c-4.94-3-8.43-4.33-14.22-6.19,0,0,0-.07,0-.06,6.8,1.42,9.11,2.71,14.34,6.09C263.48,184.9,263.36,185.05,263.17,184.94Z" style="fill:#263238"></path><path d="M279.86,192.71l-13.72,29.2s24.74,6,38.38,2.39c9.85-2.6,27.41-35,32-46.63,4.73-12.16.76-15.6-10.89-5.52s-26.66,24.51-28.37,25.44S279.86,192.71,279.86,192.71Z" style="fill:#37474f"></path><path d="M287.65,436.66c2.06.69,61.12.81,63.37-.61.86-.54,1.38-9.14,1.71-19.54.07-2.25-1.45-38.5-1.45-38.5l-37.55-.18.76,31.56.17,6.93S292,426.39,289.72,428.21,285.59,436,287.65,436.66Z" style="fill:#f7a9a0"></path><path d="M352.56,421.18c-.33,8.2-.81,14.42-1.54,14.87-2.25,1.42-61.31,1.3-63.37.61s-.22-6.62,2.07-8.44c1-.81,5.94-3.2,11.15-5.63h0s-5.14,4.15-3.25,4.75C307.6,430.45,341.7,423.52,352.56,421.18Z" style="fill:#263238"></path><path d="M356.51,237.31l0,2.57s-5.37,56-5.88,76.51c-.6,24.2,6.88,93,6.88,93l-50.53,0s4.5-72.62,5.43-96.81c.8-21.13,11-75.13,11-75.13l.11-2.45,2.2-21.27h30.54Z" style="fill:#FFC727"></path><path d="M354.62,397.71c-3-.21-6-.23-8.95-.29s-5.9-.06-8.86,0c-5.95,0-11.91,0-17.86.15a91.66,91.66,0,0,0-10.08.45.08.08,0,0,0,0,.15,83.39,83.39,0,0,0,8.8.31h9c5.95,0,11.91,0,17.85-.18,3.36-.11,6.74-.17,10.08-.44C354.67,397.81,354.68,397.71,354.62,397.71Z" style="fill:#263238"></path><path d="M330.86,219c-1.05,5.64-1.87,11.33-2.78,17s-1.82,11.34-2.7,17c-1.73,11.17-3.46,22.34-5,33.54-3,22.22-4.79,44.62-5.8,67-.29,6.24-.55,12.49-.74,18.74s-.56,16.08-.55,22.44c0,.11.16.1.17,0,.42-5.68.67-14.72.95-20.41s.52-11.14.8-16.71c.58-11.24,1.22-22.48,2.07-33.7s1.92-22.36,3.37-33.48,3.21-22.35,4.9-33.51q1.43-9.37,2.76-18.76c.92-6.38,1.94-12.75,2.69-19.14C331,218.94,330.88,218.89,330.86,219Z" style="fill:#263238"></path><path d="M356.51,237.31l0,2.57s-5.37,56-5.88,76.51c0,1.69,0,3.6,0,5.69L330.5,213.73h25.73Z" style="fill:#263238"></path><path d="M403.23,425c2-.87,45.86-40.4,46.58-43,.28-1-5.1-7.69-11.84-15.63-1.46-1.72-27.43-28-27.43-28L383.13,365l26.48,26.77s-10,22.65-10.51,25.55S401.23,425.82,403.23,425Z" style="fill:#f7a9a0"></path><path d="M441,369.93c5.25,6.3,9.07,11.23,8.83,12.05-.71,2.57-44.59,42.1-46.59,43s-4.6-4.76-4.12-7.65c.21-1.28,2.26-6.35,4.49-11.65h0s-1,6.53.78,5.7C413.85,407,434.5,378.94,441,369.93Z" style="fill:#263238"></path><path d="M327.46,213.7a.08.08,0,0,0,0,0c.15.72-.1,12.09,2.44,21.86,1.84,7.13,3.74,13.4,4.83,14S342,253,344,253.87c0,0,4.21,51.61,8.72,72.18,4.18,19.06,37.22,67.5,37.22,67.5l43.36-36s-34.13-34.35-41.55-44.24c-6.35-8.47-12-68-12-68,1.64-20.32-7-31.67-7-31.67Z" style="fill:#FFC727"></path><path d="M334.13,249.84a78.9,78.9,0,0,1,12.33,5.74c.15.09.05.33-.11.26-4.16-1.79-8.39-3.49-12.45-5.5A.28.28,0,0,1,334.13,249.84Z" style="fill:#263238"></path><path d="M332.88,221.39c0-.15.26-.18.26,0a138.34,138.34,0,0,0,.7,13.88c.19,2.14,1.91,14,5.62,13.1.62-.14.94-.76,1-1.69A15,15,0,0,0,340,243c-.41-2.47-.74-5-.95-7.46a67.44,67.44,0,0,1,.15-14,.12.12,0,0,1,.24,0,127.21,127.21,0,0,0,1.13,19.31c.46,3.07,2,7.7-1.2,8.18s-5.4-7.28-5.8-9.4A70.54,70.54,0,0,1,332.88,221.39Z" style="fill:#263238"></path><path d="M339.36,248.67a19.13,19.13,0,0,1,.84,2.45,5.35,5.35,0,0,1,.34,2,.14.14,0,0,1-.25.06,6.88,6.88,0,0,1-.86-2c-.29-.76-.59-1.51-.85-2.28A.41.41,0,0,1,339.36,248.67Z" style="fill:#263238"></path><path d="M390.74,373.67c-2.94-4-7.34-10.48-10.07-14.58s-5.47-8.34-8.15-12.55c-5.16-8.11-10.58-16.29-12.87-25.75-1.19-4.91-1.82-10-2.52-15s-1.33-10-1.9-15.06q-1.73-15.15-2.75-30.37c-.67-10.15-1.18-20.31-1.47-30.47,0-1.24-.13-7.4-.16-8.64,0-.07-.12-.07-.12,0-.05,10.21.21,25.36.79,35.55s1.42,20.48,2.54,30.68q.84,7.61,1.87,15.2c.67,4.93,1.31,9.88,2.24,14.77a55.74,55.74,0,0,0,4.36,13.69,126.6,126.6,0,0,0,7.2,12.48c5.32,8.45,11,16.66,16.94,24.69.75,1,3.2,4.38,3.94,5.41C390.67,373.84,390.8,373.75,390.74,373.67Z" style="fill:#263238"></path><path d="M421.71,352.34c-2.4,1.76-4.7,3.68-7,5.56s-4.55,3.76-6.79,5.68c-4.53,3.87-9.06,7.73-13.54,11.66a92.19,92.19,0,0,0-7.41,6.84.08.08,0,0,0,.1.12,80.43,80.43,0,0,0,6.92-5.45c2.3-1.92,4.59-3.87,6.87-5.81,4.54-3.85,9.11-7.68,13.52-11.67,2.49-2.25,5-4.48,7.41-6.85C421.83,352.38,421.77,352.3,421.71,352.34Z" style="fill:#263238"></path><path d="M323,220.74s18.87,3.44,54-1.47c0,0-16.13-43.35-27.87-54.64-5.35-5.14-10.25-4.06-14.26-.36-1,.93-13.1,21.06-13.9,26.86-.7,5.12,3.72,10.52,3.72,10.52Z" style="fill:#FFC727"></path><path d="M324.69,201.66,323,220.74s18.86,3.44,54-1.47c0,0-16.12-43.35-27.86-54.65-5.35-5.13-10.25-4-14.26-.35-.91.85-12.34,20.83-13.51,27C320.39,196.34,324.69,201.66,324.69,201.66Z" style="fill:#fff"></path><path d="M338.61,166a.44.44,0,0,1-.44.44.44.44,0,0,1-.44-.44.43.43,0,0,1,.44-.44A.44.44,0,0,1,338.61,166Zm5.5-.44a.43.43,0,0,0-.44.44.44.44,0,0,0,.44.44.44.44,0,0,0,.44-.44A.44.44,0,0,0,344.11,165.6Zm6,0h0a.44.44,0,0,0-.45.44.45.45,0,0,0,.89,0h0Zm-8.95-4.2a.44.44,0,0,0,0,.88.44.44,0,0,0,0-.88Zm-8.91,12.45a.45.45,0,1,0,.44.45A.45.45,0,0,0,332.23,173.86Zm5.94,0a.45.45,0,1,0,.44.45A.45.45,0,0,0,338.17,173.86Zm5.94,0a.45.45,0,1,0,.44.45A.45.45,0,0,0,344.11,173.86Zm5.94,0a.45.45,0,1,0,.44.45A.45.45,0,0,0,350.05,173.86Zm6,0a.11.11,0,0,0-.08,0,.45.45,0,1,0,.42.58Zm-20.87-4.21a.45.45,0,1,0,.44.45A.45.45,0,0,0,335.2,169.67Zm5.94,0a.45.45,0,1,0,.44.45A.45.45,0,0,0,341.14,169.67Zm5.94,0a.45.45,0,1,0,.44.45A.45.45,0,0,0,347.08,169.67Zm5.94,0a.45.45,0,1,0,.44.45A.45.45,0,0,0,353,169.67Zm-26.73,12.46a.45.45,0,0,0,0,.89.45.45,0,0,0,0-.89Zm5.94,0a.45.45,0,0,0,0,.89.45.45,0,0,0,0-.89Zm5.94,0a.45.45,0,0,0,0,.89.45.45,0,0,0,0-.89Zm5.94,0a.45.45,0,0,0,0,.89.45.45,0,0,0,0-.89Zm5.94,0a.45.45,0,1,0,.44.44A.45.45,0,0,0,350.05,182.13Zm5.94,0a.45.45,0,1,0,.44.44A.45.45,0,0,0,356,182.13Zm-26.73-4.19a.45.45,0,0,0,0,.89.45.45,0,0,0,0-.89Zm5.94,0a.45.45,0,0,0,0,.89.45.45,0,0,0,0-.89Zm5.94,0a.45.45,0,0,0,0,.89.45.45,0,0,0,0-.89Zm5.94,0a.45.45,0,1,0,.44.44A.45.45,0,0,0,347.08,177.94Zm5.94,0a.45.45,0,1,0,.44.44A.45.45,0,0,0,353,177.94Zm5.55.23a.37.37,0,0,0-.06.21.44.44,0,0,0,.43.44C358.81,178.61,358.69,178.39,358.57,178.17ZM326.29,190.4a.44.44,0,0,0,0,.88.44.44,0,0,0,0-.88Zm5.94,0a.44.44,0,1,0,0,.88.44.44,0,0,0,0-.88Zm5.94,0a.44.44,0,0,0,0,.88.44.44,0,0,0,0-.88Zm5.94,0a.44.44,0,0,0,0,.88.44.44,0,0,0,0-.88Zm5.94,0a.44.44,0,1,0,.44.44A.45.45,0,0,0,350.05,190.4Zm5.94,0a.44.44,0,1,0,.44.44A.45.45,0,0,0,356,190.4Zm5.94,0a.44.44,0,1,0,.44.44A.45.45,0,0,0,361.93,190.4Zm-38.61-4.19a.41.41,0,0,0-.24.08c-.07.15-.13.28-.19.43h0a.42.42,0,0,0,.43.36.44.44,0,0,0,.44-.44A.44.44,0,0,0,323.32,186.21Zm5.94,0a.44.44,0,0,0-.44.44.43.43,0,0,0,.44.44.44.44,0,0,0,.44-.44A.44.44,0,0,0,329.26,186.21Zm5.94,0a.44.44,0,0,0-.44.44.43.43,0,0,0,.44.44.44.44,0,0,0,.44-.44A.44.44,0,0,0,335.2,186.21Zm5.94,0a.44.44,0,0,0-.44.44.43.43,0,0,0,.44.44.44.44,0,0,0,.44-.44A.44.44,0,0,0,341.14,186.21Zm5.94,0a.45.45,0,0,0-.45.44.45.45,0,1,0,.45-.44Zm5.94,0a.45.45,0,0,0-.45.44.45.45,0,1,0,.45-.44Zm5.94,0a.45.45,0,0,0-.45.44.45.45,0,1,0,.45-.44Zm-32.67,12.46a.43.43,0,0,0-.44.44.44.44,0,0,0,.44.44.44.44,0,0,0,.44-.44A.44.44,0,0,0,326.29,198.67Zm5.94,0a.43.43,0,0,0-.44.44.44.44,0,0,0,.44.44.44.44,0,0,0,.44-.44A.44.44,0,0,0,332.23,198.67Zm5.94,0a.43.43,0,0,0-.44.44.44.44,0,0,0,.44.44.44.44,0,0,0,.44-.44A.44.44,0,0,0,338.17,198.67Zm5.94,0a.43.43,0,0,0-.44.44.44.44,0,0,0,.44.44.44.44,0,0,0,.44-.44A.44.44,0,0,0,344.11,198.67Zm5.94,0a.44.44,0,0,0-.45.44.45.45,0,0,0,.89,0A.44.44,0,0,0,350.05,198.67Zm5.94,0a.44.44,0,0,0-.45.44.45.45,0,0,0,.89,0A.44.44,0,0,0,356,198.67Zm5.94,0a.44.44,0,0,0-.45.44.45.45,0,0,0,.89,0A.44.44,0,0,0,361.93,198.67Zm5.94,0a.44.44,0,0,0-.45.44.45.45,0,0,0,.89,0A.44.44,0,0,0,367.87,198.67Zm-44.55-4.19a.43.43,0,0,0-.44.44.44.44,0,0,0,.44.44.44.44,0,0,0,.44-.44A.44.44,0,0,0,323.32,194.48Zm5.94,0a.43.43,0,0,0-.44.44.44.44,0,0,0,.44.44.44.44,0,0,0,.44-.44A.44.44,0,0,0,329.26,194.48Zm5.94,0a.43.43,0,0,0-.44.44.44.44,0,0,0,.44.44.44.44,0,0,0,.44-.44A.44.44,0,0,0,335.2,194.48Zm5.94,0a.43.43,0,0,0-.44.44.44.44,0,0,0,.44.44.44.44,0,0,0,.44-.44A.44.44,0,0,0,341.14,194.48Zm5.94,0a.44.44,0,0,0-.45.44.45.45,0,0,0,.89,0A.44.44,0,0,0,347.08,194.48Zm5.94,0a.44.44,0,0,0-.45.44.45.45,0,0,0,.89,0A.44.44,0,0,0,353,194.48Zm5.94,0a.44.44,0,0,0-.45.44.45.45,0,0,0,.89,0A.44.44,0,0,0,359,194.48Zm5.94,0a.44.44,0,0,0-.45.44.45.45,0,0,0,.89,0A.44.44,0,0,0,364.9,194.48Zm-38.61,12.45a.45.45,0,1,0,.44.45A.45.45,0,0,0,326.29,206.93Zm5.94,0a.45.45,0,1,0,.44.45A.45.45,0,0,0,332.23,206.93Zm5.94,0a.45.45,0,1,0,.44.45A.45.45,0,0,0,338.17,206.93Zm5.94,0a.45.45,0,1,0,.44.45A.45.45,0,0,0,344.11,206.93Zm5.94,0a.45.45,0,1,0,.44.45A.45.45,0,0,0,350.05,206.93Zm5.94,0a.45.45,0,1,0,.44.45A.45.45,0,0,0,356,206.93Zm5.94,0a.45.45,0,1,0,.44.45A.45.45,0,0,0,361.93,206.93Zm5.94,0a.45.45,0,1,0,.44.45A.45.45,0,0,0,367.87,206.93Zm-38.61-4.19a.45.45,0,1,0,.44.45A.45.45,0,0,0,329.26,202.74Zm5.94,0a.45.45,0,1,0,.44.45A.45.45,0,0,0,335.2,202.74Zm5.94,0a.45.45,0,1,0,.44.45A.45.45,0,0,0,341.14,202.74Zm5.94,0a.45.45,0,1,0,.44.45A.45.45,0,0,0,347.08,202.74Zm5.94,0a.45.45,0,1,0,.44.45A.45.45,0,0,0,353,202.74Zm5.94,0a.45.45,0,1,0,.44.45A.45.45,0,0,0,359,202.74Zm5.94,0a.45.45,0,1,0,.44.45A.45.45,0,0,0,364.9,202.74Zm5.54.26a.32.32,0,0,0-.05.19.45.45,0,0,0,.31.42C370.62,203.41,370.53,203.2,370.44,203Zm-44.15,12.2a.44.44,0,0,0-.44.44.43.43,0,0,0,.44.44.44.44,0,0,0,.44-.44A.44.44,0,0,0,326.29,215.2Zm5.94,0a.44.44,0,0,0-.44.44.43.43,0,0,0,.44.44.44.44,0,0,0,.44-.44A.44.44,0,0,0,332.23,215.2Zm5.94,0a.44.44,0,0,0-.44.44.43.43,0,0,0,.44.44.44.44,0,0,0,.44-.44A.44.44,0,0,0,338.17,215.2Zm5.94,0a.44.44,0,0,0-.44.44.43.43,0,0,0,.44.44.44.44,0,0,0,.44-.44A.44.44,0,0,0,344.11,215.2Zm5.94,0a.45.45,0,0,0-.45.44.45.45,0,1,0,.45-.44Zm5.94,0a.45.45,0,0,0-.45.44.45.45,0,1,0,.45-.44Zm5.94,0a.45.45,0,0,0-.45.44.45.45,0,1,0,.45-.44Zm5.94,0a.45.45,0,0,0-.45.44.45.45,0,1,0,.45-.44Zm5.94,0a.45.45,0,0,0-.45.44.45.45,0,1,0,.45-.44ZM329.26,211a.45.45,0,0,0,0,.89.45.45,0,0,0,0-.89Zm5.94,0a.45.45,0,0,0,0,.89.45.45,0,0,0,0-.89Zm5.94,0a.45.45,0,0,0,0,.89.45.45,0,0,0,0-.89Zm5.94,0a.45.45,0,1,0,.44.44A.45.45,0,0,0,347.08,211Zm5.94,0a.45.45,0,1,0,.44.44A.45.45,0,0,0,353,211Zm5.94,0a.45.45,0,1,0,.44.44A.45.45,0,0,0,359,211Zm5.94,0a.45.45,0,1,0,.44.44A.45.45,0,0,0,364.9,211Zm5.94,0a.45.45,0,1,0,.44.44A.45.45,0,0,0,370.84,211Zm-47.52,8.27a.34.34,0,0,0-.22.07l-.06.7a.41.41,0,0,0,.28.11.44.44,0,0,0,0-.88Zm5.94,0a.44.44,0,0,0,0,.88.44.44,0,0,0,0-.88Zm5.94,0a.44.44,0,0,0,0,.88.44.44,0,0,0,0-.88Zm5.94,0a.44.44,0,1,0,0,.88.44.44,0,0,0,0-.88Zm5.94,0a.44.44,0,1,0,.44.44A.45.45,0,0,0,347.08,219.28Zm5.94,0a.44.44,0,1,0,.44.44A.45.45,0,0,0,353,219.28Zm5.94,0a.44.44,0,1,0,.44.44A.45.45,0,0,0,359,219.28Zm5.94,0a.44.44,0,1,0,.44.44A.45.45,0,0,0,364.9,219.28Zm5.94,0a.45.45,0,0,0-.45.44.42.42,0,0,0,.22.37l.54-.06a.44.44,0,0,0,.13-.31A.44.44,0,0,0,370.84,219.28Zm5.94,0a.39.39,0,0,0-.18,0l.23,0Z" style="fill:#FFC727"></path><path d="M342,161.13s-1.8,21.45-1,29.62,8.52,47.81,8.52,47.81l36.62-1.21s-20.83-54.77-31.67-67.68C345.67,159.28,342,161.13,342,161.13Z" style="fill:#37474f"></path><path d="M334.18,165.11s-7.18,17.75-7.91,25.82-.55,46.32-.55,46.32l-4-3.28,2.74-32.38s-4.61-4.71-3.3-10.92S331.28,167.65,334.18,165.11Z" style="fill:#37474f"></path><path d="M321.79,196.8a13.47,13.47,0,0,1-.21-5.51,29.64,29.64,0,0,1,1.91-6.31c.89-2.18,1.81-4.35,2.7-6.53,0-.06-.06-.11-.09,0-1.05,2.1-2.1,4.2-3.07,6.33a45,45,0,0,1,1.43-4.39c0-.06-.08-.1-.1,0a21.65,21.65,0,0,0-1.71,5.25,22.91,22.91,0,0,0-2,6.45,11.62,11.62,0,0,0,.64,5.51,8.14,8.14,0,0,0,3.27,4.1c.09.06.16-.08.08-.14A8.45,8.45,0,0,1,321.79,196.8Z" style="fill:#263238"></path><path d="M341.59,163.42c0,1-3,8-7.25,8.86-1.4.26-3.18-7.28-3.18-7.28l-.25-.53-3.62-7.38L335,149l1.14-1.1s.85,2.09,1.89,4.69l.15.37.18.43c.16.38.32.78.47,1.18s.24.59.35.92l.35,1A53.53,53.53,0,0,1,341.59,163.42Z" style="fill:#f7a9a0"></path><path d="M338.07,152.61a16.48,16.48,0,0,1-7.16,11.86l-3.62-7.38L335,149l1.14-1.1S337,150,338.07,152.61Z" style="fill:#263238"></path><path d="M312.62,147.17c.18,14.42,8.84,15.93,11.95,15.89,2.82,0,12.42-.53,13.73-14.89s-5.46-18.83-11.92-19.08S312.43,132.75,312.62,147.17Z" style="fill:#f7a9a0"></path><path d="M314.81,144.45c.34,0,.64-.16,1-.24a1.7,1.7,0,0,0,.94-.43.53.53,0,0,0,0-.63,1.29,1.29,0,0,0-1.27-.25,1.86,1.86,0,0,0-1.15.7A.55.55,0,0,0,314.81,144.45Z" style="fill:#c7c7c7"></path><path d="M324.1,144.34c-.34,0-.65-.11-1-.17a1.62,1.62,0,0,1-1-.37.52.52,0,0,1,0-.63,1.3,1.3,0,0,1,1.24-.34,2,2,0,0,1,1.2.62A.55.55,0,0,1,324.1,144.34Z" style="fill:#c7c7c7"></path><path d="M322.1,147.58s.07,0,.07.09c0,1,.13,2.11,1,2.42a0,0,0,0,1,0,.06C322.09,150,321.92,148.51,322.1,147.58Z" style="fill:#263238"></path><path d="M323,146.55c1.58-.14,1.74,3,.28,3.15S321.64,146.66,323,146.55Z" style="fill:#263238"></path><path d="M323.59,146.68c.29.17.57.47.91.49s.66-.33.9-.66c0,0,.05,0,.05,0,0,.61-.16,1.24-.8,1.37s-1-.41-1.23-1C323.39,146.79,323.48,146.62,323.59,146.68Z" style="fill:#263238"></path><path d="M317.07,147.76s-.07.05-.07.09c.09,1,0,2.11-.84,2.49,0,0,0,.06,0,0C317.24,150.18,317.31,148.67,317.07,147.76Z" style="fill:#263238"></path><path d="M316.14,146.79c-1.59,0-1.52,3.14-.06,3.16S317.47,146.81,316.14,146.79Z" style="fill:#263238"></path><path d="M315.48,147c-.25.17-.49.48-.79.5s-.61-.3-.83-.63c0,0-.05,0-.05,0,0,.6.21,1.23.79,1.34s.91-.44,1-1C315.67,147.11,315.58,146.94,315.48,147Z" style="fill:#263238"></path><path d="M322.63,155.73c-.21.25-.42.59-.77.65a2.44,2.44,0,0,1-1.07-.14s-.06,0,0,0a1.3,1.3,0,0,0,1.29.41,1,1,0,0,0,.69-.93C322.74,155.71,322.66,155.69,322.63,155.73Z" style="fill:#263238"></path><path d="M318.39,152.34s-.15,1.48-.12,2.17c0,.06.17.09.41.09,0,0,0,0,0,0a3.28,3.28,0,0,0,3.15-1.35.07.07,0,0,0-.11-.09,5,5,0,0,1-3,1c0-.19.34-2.52.23-2.52a6.23,6.23,0,0,0-1.56.41c.21-3.07.92-6.09,1.09-9.16,0-.11-.16-.14-.18,0a50,50,0,0,0-1.6,9.82C316.71,153.05,318.12,152.47,318.39,152.34Z" style="fill:#263238"></path><path d="M318.76,154.27a4.05,4.05,0,0,0,1.56,1.29,1.76,1.76,0,0,0,1.09.11c.8-.18.85-.91.72-1.54a4.41,4.41,0,0,0-.32-1A5.23,5.23,0,0,1,318.76,154.27Z" style="fill:#263238"></path><path d="M320.32,155.56a1.76,1.76,0,0,0,1.09.11c.8-.18.85-.91.72-1.54A1.87,1.87,0,0,0,320.32,155.56Z" style="fill:#ff99ba"></path><g style="opacity:0.2"><path d="M320.47,141.45a10.83,10.83,0,0,1-1.61,0c-.55,0-1.08-.2-1.63-.23a8.76,8.76,0,0,0-3.05.51c-.08,0-.07.08,0,.06a7.63,7.63,0,0,1,3.22-.29,9.57,9.57,0,0,0,2.67.18,9.54,9.54,0,0,1,5.9.9s0,0,0,0A9.77,9.77,0,0,0,320.47,141.45Z"></path><path d="M320.57,140a11.17,11.17,0,0,1-1.53,0c-.52-.05-1-.19-1.54-.22a8.27,8.27,0,0,0-2.89.48c-.08,0-.07.07,0,.05a7.36,7.36,0,0,1,3.06-.27,9,9,0,0,0,2.53.17,9.09,9.09,0,0,1,5.6.85s0,0,0,0A9.19,9.19,0,0,0,320.57,140Z"></path></g><path d="M337.74,149.18a5.87,5.87,0,0,1-3.7-4.44C321.86,142.62,319,134.43,319,134.43c-3.3,6-5.56,6.81-6.05,7.73,0,0-.19-5.69,2.29-9.64a11.75,11.75,0,0,1,13.48-5c3.67,1,6.34,4.76,6.34,4.76s4,1,5.15,4.54C342.13,142.68,337.74,149.18,337.74,149.18Z" style="fill:#c7c7c7"></path><path d="M318.84,133.92a10,10,0,0,0,1.8,4.59,12.73,12.73,0,0,0,3.62,3.43l1.09.61c.38.19.77.34,1.15.5a16.47,16.47,0,0,0,2.37.79c.8.19,1.63.3,2.44.46l2.47.15c-.81-.15-1.62-.27-2.43-.4s-1.6-.35-2.38-.58a18,18,0,0,1-4.44-2,13.27,13.27,0,0,1-3.58-3.22A11.6,11.6,0,0,1,318.84,133.92Z" style="fill:#c7c7c7"></path><path d="M338.39,153.48a2.83,2.83,0,0,1-.64.24,2.4,2.4,0,0,1-.68.09,2,2,0,0,1-.85-.19,2.44,2.44,0,0,1-.59-.36,2.78,2.78,0,0,1-.62-.75l.41-3.92s2.69-4.79,4.83-3.87S340.69,152.36,338.39,153.48Z" style="fill:#f7a9a0"></path><path d="M339.72,146.63s0,.05,0,.06a6.18,6.18,0,0,0-2.78,4.16,1.34,1.34,0,0,1,2-.57,0,0,0,0,1,0,.09,1.51,1.51,0,0,0-1.59.69,7,7,0,0,0-.66,1.41c-.06.15-.34.1-.3-.08v0C336.09,150.22,337.45,147.07,339.72,146.63Z" style="fill:#263238"></path><path d="M338.24,152.71a.67.67,0,0,1-.73.59.66.66,0,0,1-.6-.73.67.67,0,1,1,1.33.14Z" style="fill:#fff"></path><path d="M345.7,172.84c3.79,6.66,24.35,27.5,24.75,28.91S348,221.1,343.92,225.48c-2.8,3,16.36,20.89,22,15.76,8.77-7.94,34.73-28.87,33.24-39.67s-40.19-32.93-47.6-36.69S339.47,161.9,345.7,172.84Z" style="fill:#f7a9a0"></path><path d="M325,252.32a4.09,4.09,0,0,0,4.35,1.7,6.07,6.07,0,0,0,1.39,3.89c1.68,1.85,5.32,0,5.32,0a7.51,7.51,0,0,0,2.12,3.87c1.79,1.61,5.73.29,5.73.29a6.53,6.53,0,0,0,4,2.23c4.19.47,8.19-4.58,10.77-7.76s6.89-14.63,7.93-16.73l-20.29-16.69s-15.61,11-18.1,15.17C326.07,241.82,323.27,249.6,325,252.32Z" style="fill:#f7a9a0"></path><path d="M329.09,253.61c1.34-4.28,3.87-7.92,6.18-11.7a.08.08,0,1,1,.13.08c-2.34,3.73-3.92,7.89-6.11,11.71A.11.11,0,0,1,329.09,253.61Z" style="fill:#263238"></path><path d="M335.8,257.65a11.44,11.44,0,0,1,1.55-2.63c.61-.9,1.23-1.78,1.87-2.65q1.92-2.62,4-5.15c.06-.07.19,0,.13.09-1.27,1.74-2.52,3.5-3.71,5.3-.6.9-1.2,1.8-1.78,2.71a14.11,14.11,0,0,1-1.78,2.49A.16.16,0,0,1,335.8,257.65Z" style="fill:#263238"></path><path d="M343.91,262a8.07,8.07,0,0,1,1.52-2.3c.6-.78,1.19-1.57,1.78-2.36,1.19-1.58,2.37-3.16,3.49-4.78.06-.08.19,0,.13.08-1.13,1.65-2.25,3.32-3.4,5-.56.81-1.13,1.61-1.7,2.41a7.64,7.64,0,0,1-1.74,2.05S343.9,262.06,343.91,262Z" style="fill:#263238"></path><path d="M343.49,221.72l29,19.91s28-27.07,27.88-39c-.09-11-44.33-36.93-50.83-39.78-6.31-2.77-11.56-.28-2.9,12.07,8.93,12.74,23.23,25.58,22.83,26.85S343.49,221.72,343.49,221.72Z" style="fill:#37474f"></path><path d="M350.18,218.48c2.15,1.24,4.2,2.67,6.28,4s4.25,2.76,6.35,4.16,4.13,2.79,6.19,4.21,3.94,3,6,4.4c.07,0,0,.18-.09.13-2.09-1.35-4.27-2.54-6.33-3.92s-4.21-2.83-6.3-4.26-4-2.79-6-4.19-4.18-2.86-6.16-4.42A.08.08,0,0,1,350.18,218.48Z" style="fill:#263238"></path><path d="M343.2,221.85c1.56-1.4,17.29-13.18,20.74-15.85,1.85-1.44,3.4-2.77,5.25-4.18-.8-.83-3.54-4.11-4.25-4.93-1.48-1.69-3-3.38-4.45-5.08-1.23-1.42-2.45-2.86-3.66-4.3-1.31-1.06-2.62-2.12-3.83-3.29-.05,0,0-.12.06-.09,1,.76,2,1.57,2.94,2.4-1.41-1.69-2.81-3.39-4.18-5.11,0,0,0-.08.05,0q4.65,4.89,9.1,10c1.49,1.69,8.79,10.47,8.79,10.47-3.26,2.75-6.52,5.49-9.9,8.1s-15.05,11.39-16,12c.17.12,1,.71,1.13.81s-.11.05-.17,0Z" style="fill:#263238"></path></g><g id="freepik--music-notes--inject-113"><path d="M202,172.4a4,4,0,1,1-3.16-4.64A4,4,0,0,1,202,172.4Z" style="fill:#455a64"></path><rect x="200.89" y="152.3" width="3.03" height="19.95" transform="translate(33.88 -34.95) rotate(10.77)" style="fill:#455a64"></rect><path d="M215.72,169.13a4,4,0,1,1-3.16-4.64A4,4,0,0,1,215.72,169.13Z" style="fill:#455a64"></path><rect x="214.59" y="149.02" width="3.03" height="19.95" transform="translate(33.51 -37.58) rotate(10.77)" style="fill:#455a64"></rect><polygon points="219.45 149.52 202.28 154.81 202.78 152.19 219.95 146.9 219.45 149.52" style="fill:#455a64"></polygon><polygon points="218.51 154.46 201.34 159.75 201.84 157.13 219.01 151.84 218.51 154.46" style="fill:#455a64"></polygon><path d="M293.94,284a2.64,2.64,0,1,1-2.1-3.08A2.64,2.64,0,0,1,293.94,284Z" style="fill:#455a64"></path><rect x="293.19" y="270.68" width="2.01" height="13.25" transform="translate(56.99 -50.08) rotate(10.77)" style="fill:#455a64"></rect><path d="M303,281.86a2.64,2.64,0,1,1-2.1-3.08A2.64,2.64,0,0,1,303,281.86Z" style="fill:#455a64"></path><rect x="302.29" y="268.51" width="2.01" height="13.25" transform="translate(56.74 -51.82) rotate(10.77)" style="fill:#455a64"></rect><polygon points="305.52 268.84 294.11 272.35 294.44 270.61 305.85 267.1 305.52 268.84" style="fill:#455a64"></polygon><polygon points="304.89 272.12 293.49 275.63 293.82 273.89 305.23 270.38 304.89 272.12" style="fill:#455a64"></polygon><path d="M278,253a4,4,0,1,1-3.16-4.64A4,4,0,0,1,278,253Z" style="fill:#455a64"></path><rect x="276.83" y="232.91" width="3.03" height="19.95" transform="translate(50.27 -47.72) rotate(10.77)" style="fill:#455a64"></rect><rect x="289.23" y="229.91" width="3.03" height="5.77" transform="translate(48.61 -50.22) rotate(10.77)" style="fill:#455a64"></rect><polygon points="292.63 231 278.22 235.42 278.72 232.8 293.13 228.38 292.63 231" style="fill:#455a64"></polygon><polygon points="291.69 235.94 277.28 240.36 277.78 237.74 292.19 233.32 291.69 235.94" style="fill:#455a64"></polygon><path d="M233.83,128.1a2.91,2.91,0,1,1-2.32-3.41A2.91,2.91,0,0,1,233.83,128.1Z" style="fill:#455a64"></path><rect x="233" y="113.34" width="2.22" height="14.64" transform="translate(26.66 -41.61) rotate(10.77)" style="fill:#455a64"></rect><rect x="242.1" y="111.14" width="2.22" height="4.23" transform="translate(25.44 -43.44) rotate(10.77)" style="fill:#455a64"></rect><polygon points="244.59 111.94 234.02 115.19 234.38 113.26 244.96 110.02 244.59 111.94" style="fill:#455a64"></polygon><polygon points="243.9 115.57 233.33 118.81 233.69 116.89 244.27 113.64 243.9 115.57" style="fill:#455a64"></polygon><path d="M204.37,258.94a2.91,2.91,0,1,1-2.31-3.41A2.91,2.91,0,0,1,204.37,258.94Z" style="fill:#455a64"></path><rect x="203.54" y="244.19" width="2.22" height="14.64" transform="translate(50.59 -33.8) rotate(10.77)" style="fill:#455a64"></rect><rect x="212.64" y="241.99" width="2.22" height="4.23" transform="translate(49.37 -35.63) rotate(10.77)" style="fill:#455a64"></rect><polygon points="215.14 242.78 204.56 246.03 204.93 244.11 215.5 240.86 215.14 242.78" style="fill:#455a64"></polygon><polygon points="214.45 246.41 203.87 249.66 204.24 247.73 214.81 244.49 214.45 246.41" style="fill:#455a64"></polygon></g></svg>